<svg width="16" height="10" viewBox="0 0 16 10" fill="none" xmlns="http://www.w3.org/2000/svg">
<path fill-rule="evenodd" clip-rule="evenodd" d="M8.48577 8.92339C8.35687 9.05214 8.18213 9.12445 7.99994 9.12445C7.81775 9.12445 7.64301 9.05214 7.51411 8.92339L0.639107 2.04839C0.517667 1.91807 0.451554 1.74569 0.454697 1.56758C0.457839 1.38947 0.529992 1.21953 0.655954 1.09357C0.781916 0.967611 0.951852 0.895458 1.12996 0.892316C1.30807 0.889173 1.48045 0.955286 1.61077 1.07673L7.99994 7.46589L14.3891 1.07673C14.452 1.00918 14.5279 0.955003 14.6123 0.917427C14.6966 0.879851 14.7877 0.859646 14.88 0.858017C14.9723 0.856388 15.064 0.873369 15.1496 0.907947C15.2352 0.942524 15.3129 0.99399 15.3782 1.05927C15.4435 1.12456 15.495 1.20232 15.5296 1.28793C15.5641 1.37353 15.5811 1.46523 15.5795 1.55754C15.5779 1.64985 15.5577 1.74089 15.5201 1.82522C15.4825 1.90955 15.4283 1.98545 15.3608 2.04839L8.48577 8.92339Z" fill="#969696"/>
</svg>