<svg xmlns="http://www.w3.org/2000/svg" viewBox="0 0 24 24" fill="none">
  <path d="M10.5 19.875C12.5781 19.8749 14.5974 19.1846 16.2407 17.9125C17.884 16.6405 19.0583 14.8586 19.5792 12.8469M10.5 19.875C8.42188 19.8749 6.40265 19.1846 4.75935 17.9125C3.11605 16.6405 1.94175 14.8586 1.42084 12.8469M10.5 19.875C13.0885 19.875 15.1875 15.6771 15.1875 10.5C15.1875 5.32292 13.0885 1.125 10.5 1.125M10.5 19.875C7.91146 19.875 5.8125 15.6771 5.8125 10.5C5.8125 5.32292 7.91146 1.125 10.5 1.125M19.5792 12.8469C19.7719 12.0969 19.875 11.3104 19.875 10.5C19.8776 8.88762 19.4624 7.30207 18.6698 5.89792M19.5792 12.8469C16.8012 14.3869 13.6762 15.1925 10.5 15.1875C7.20625 15.1875 4.11146 14.3385 1.42084 12.8469M1.42084 12.8469C1.2237 12.0802 1.1243 11.2916 1.125 10.5C1.125 8.82813 1.5625 7.25729 2.33021 5.89792M10.5 1.125C12.1628 1.12431 13.7958 1.566 15.2315 2.40475C16.6672 3.24351 17.8539 4.44913 18.6698 5.89792M10.5 1.125C8.83725 1.12431 7.20425 1.566 5.76855 2.40475C4.33286 3.24351 3.14616 4.44913 2.33021 5.89792M18.6698 5.89792C16.4017 7.86243 13.5006 8.94182 10.5 8.9375C7.37709 8.9375 4.52084 7.79167 2.33021 5.89792" 
    stroke="currentColor" 
    strokeWidth="1.5" 
    strokeLinecap="round" 
    strokeLinejoin="round"/>
</svg>