<svg fill="none" xmlns="http://www.w3.org/2000/svg">
<path d="M323.868 224.003C323.868 224.003 323.144 224.624 321.543 225.2C319.973 225.761 317.372 226.17 314.466 225.11C313.039 224.578 311.551 223.697 310.328 222.361C309.121 221.03 308.097 219.309 307.689 217.306C307.459 216.314 307.391 215.26 307.476 214.198C307.546 213.134 307.787 212.058 308.206 211.031C309 208.956 310.539 207.101 312.524 205.836C314.532 204.606 316.876 204.038 319.089 204.235C320.196 204.31 321.269 204.566 322.256 204.97C323.248 205.359 324.165 205.883 324.954 206.526C326.576 207.771 327.672 209.447 328.338 211.117C329 212.801 329.138 214.525 328.99 216.041C328.666 219.117 327.155 221.274 325.963 222.439C324.743 223.626 323.868 224.003 323.868 224.003C323.824 223.943 324.653 223.485 325.795 222.277C326.911 221.088 328.309 218.961 328.565 216.004C328.681 214.545 328.524 212.9 327.872 211.302C327.217 209.719 326.158 208.135 324.611 206.968C323.859 206.364 322.986 205.873 322.044 205.511C321.108 205.133 320.091 204.895 319.045 204.829C316.95 204.65 314.743 205.191 312.846 206.352C310.971 207.548 309.515 209.292 308.758 211.252C308.358 212.221 308.125 213.239 308.054 214.245C307.967 215.249 308.024 216.249 308.236 217.191C308.606 219.092 309.565 220.739 310.699 222.023C311.848 223.311 313.257 224.174 314.618 224.71C317.388 225.78 319.913 225.458 321.471 224.977C323.057 224.483 323.833 223.937 323.868 224.003Z" fill="#E0E0E0"/>
<path d="M325.777 237.992C325.78 237.984 325.872 238.067 326.054 238.24C326.253 238.433 326.518 238.69 326.863 239.023C327.598 239.747 328.657 240.791 330.032 242.147L329.912 242.132C332.041 240.786 334.842 239.015 338.229 236.874L338.165 237.055C337.566 235.356 336.899 233.469 336.186 231.449L336.15 231.349L336.224 231.269C337.586 229.805 338.857 228.069 339.904 226.076L339.96 225.969H340.081C341.935 225.972 343.942 225.976 346.029 225.979L345.819 226.147C346.51 223.126 347.243 219.92 348.014 216.555L348.142 216.824C346.483 216.026 344.655 215.147 342.781 214.247L342.644 214.181L342.64 214.029C342.576 212.055 342.247 209.891 341.587 207.77L341.54 207.619L341.653 207.508C342.959 206.209 344.401 204.776 345.869 203.317L345.83 203.652C344.19 201.032 342.421 198.207 340.609 195.311L340.941 195.428C339.193 196.039 337.274 196.709 335.329 197.389L335.164 197.447L335.038 197.328C333.588 195.969 331.821 194.675 329.875 193.651L329.719 193.568L329.719 193.39C329.727 191.527 329.735 189.495 329.743 187.442L329.972 187.733C326.937 187.032 323.683 186.28 320.384 185.519L320.722 185.357C319.905 187.049 319.024 188.875 318.136 190.714L318.056 190.879L317.873 190.885C315.86 190.947 313.708 191.282 311.629 191.924L311.627 191.925H311.626C311.49 191.891 311.929 192.002 311.32 191.849L311.315 191.844L311.307 191.836L311.291 191.819L311.258 191.786L311.192 191.719L311.06 191.586L310.796 191.32L310.27 190.789L309.22 189.73C308.522 189.025 307.826 188.323 307.134 187.624L307.509 187.667C304.688 189.428 301.904 191.165 299.16 192.877L299.284 192.524C299.942 194.414 300.594 196.286 301.239 198.14L301.298 198.31L301.175 198.441C299.707 200.004 298.471 201.748 297.49 203.597L297.408 203.755L297.23 203.754C295.219 203.743 293.238 203.733 291.283 203.723L291.566 203.5C290.805 206.771 290.063 209.967 289.339 213.084L289.189 212.77C291.005 213.65 292.789 214.515 294.541 215.365L294.69 215.437L294.695 215.6C294.761 217.767 295.12 219.876 295.727 221.86L295.774 222.012L295.662 222.124C294.212 223.556 292.805 224.945 291.433 226.301L291.469 225.989C293.296 228.929 295.02 231.705 296.662 234.347L296.389 234.251C298.365 233.568 300.219 232.926 302.008 232.308L302.133 232.265L302.228 232.355C303.882 233.911 305.628 235.12 307.396 236.063L307.503 236.12L307.502 236.239C307.485 238.4 307.47 240.348 307.455 242.186L307.317 242.011C311.026 242.887 314.188 243.633 316.894 244.271L316.741 244.344C317.789 242.212 318.648 240.462 319.363 239.005L319.389 238.952L319.448 238.95C321.609 238.891 323.194 238.586 324.232 238.361C324.731 238.242 325.113 238.149 325.393 238.082C325.656 238.011 325.78 237.984 325.777 237.992C325.776 238.001 325.648 238.048 325.406 238.13C325.154 238.209 324.773 238.328 324.255 238.459C323.22 238.716 321.631 239.054 319.454 239.144L319.539 239.09C318.842 240.556 318.006 242.316 316.986 244.462L316.939 244.559L316.833 244.535C314.122 243.92 310.954 243.202 307.236 242.359L307.097 242.328V242.184C307.099 240.344 307.102 238.397 307.103 236.237L307.21 236.413C305.407 235.465 303.623 234.246 301.931 232.67L302.152 232.717C300.366 233.344 298.515 233.994 296.542 234.687L296.367 234.748L296.268 234.59C294.616 231.955 292.88 229.186 291.041 226.253L290.934 226.083L291.077 225.941C292.446 224.58 293.846 223.186 295.292 221.748L295.226 222.011C294.599 219.985 294.225 217.83 294.152 215.614L294.305 215.85C292.55 215.005 290.765 214.144 288.947 213.269L288.746 213.172L288.796 212.954C289.515 209.837 290.25 206.639 291.004 203.366L291.055 203.141L291.287 203.142C293.242 203.149 295.223 203.156 297.235 203.163L296.975 203.319C297.976 201.423 299.241 199.634 300.744 198.031L300.68 198.331C300.033 196.479 299.38 194.608 298.72 192.718L298.641 192.492L298.844 192.365C301.587 190.652 304.37 188.913 307.191 187.151L307.396 187.023L307.566 187.195C308.258 187.893 308.955 188.595 309.653 189.3L310.702 190.359L311.229 190.89L311.493 191.156L311.625 191.288L311.691 191.354L311.724 191.388L311.74 191.404L311.748 191.412L311.752 191.417C311.144 191.264 311.584 191.374 311.449 191.34L311.449 191.339L311.452 191.338C313.583 190.679 315.791 190.337 317.854 190.274L317.591 190.444C318.48 188.605 319.362 186.78 320.18 185.088L320.285 184.871L320.519 184.925C323.817 185.689 327.07 186.443 330.106 187.147L330.337 187.201L330.336 187.438C330.325 189.491 330.314 191.523 330.304 193.386L330.149 193.126C332.141 194.178 333.949 195.506 335.431 196.9L335.139 196.838C337.085 196.162 339.006 195.495 340.755 194.888L340.969 194.814L341.087 195.005C342.894 197.905 344.655 200.734 346.288 203.359L346.403 203.542L346.25 203.694C344.777 205.149 343.332 206.577 342.021 207.872L342.086 207.61C342.754 209.78 343.083 211.992 343.14 214.008L342.999 213.791C344.869 214.699 346.693 215.584 348.349 216.389L348.521 216.473L348.478 216.658C347.692 220.02 346.944 223.222 346.239 226.239L346.199 226.408L346.027 226.407C343.94 226.391 341.933 226.377 340.079 226.364L340.256 226.257C339.179 228.277 337.876 230.033 336.483 231.509L336.521 231.329C337.217 233.354 337.869 235.247 338.455 236.95L338.495 237.067L338.391 237.131C334.979 239.234 332.158 240.972 330.014 242.294L329.947 242.335L329.894 242.28C328.563 240.906 327.537 239.847 326.825 239.112C326.49 238.76 326.232 238.488 326.038 238.286C325.864 238.1 325.776 238.001 325.777 237.992Z" fill="#E0E0E0"/>
<path fill-rule="evenodd" clip-rule="evenodd" d="M345.371 166.792C342.435 167.694 339.426 168.186 336.424 168.282L332.766 175.855L319.21 172.718L319.248 164.309C316.594 162.905 314.105 161.143 311.863 159.041L303.924 161.807L296.557 150.004L302.528 144.086C301.622 141.15 301.134 138.139 301.038 135.139L293.466 131.48L296.6 117.926L305.01 117.963C306.414 115.309 308.176 112.822 310.28 110.579L307.512 102.641L319.316 95.2713L325.233 101.243C328.17 100.337 331.179 99.8487 334.181 99.7533L337.84 92.1798L351.396 95.3163L351.357 103.727C354.011 105.131 356.498 106.893 358.742 108.995L366.68 106.229L374.048 118.031L368.078 123.948C368.983 126.885 369.473 129.895 369.567 132.897L377.141 136.555L374.006 150.11L365.595 150.072C364.191 152.726 362.43 155.214 360.327 157.457L363.093 165.394L351.291 172.762L345.371 166.792ZM342.67 147.012C349.663 142.647 351.794 133.439 347.428 126.446C343.063 119.453 333.854 117.325 326.862 121.69C319.869 126.056 317.74 135.263 322.105 142.256C326.471 149.248 335.677 151.378 342.67 147.012Z" fill="#E0E0E0"/>
<path fill-rule="evenodd" clip-rule="evenodd" d="M377.309 211.624C375.746 212.105 374.145 212.366 372.549 212.417L370.603 216.445L363.391 214.777L363.411 210.303C361.999 209.556 360.675 208.619 359.482 207.5L355.258 208.972L351.338 202.693L354.514 199.544C354.033 197.982 353.773 196.381 353.722 194.784L349.694 192.838L351.362 185.627L355.836 185.647C356.583 184.234 357.52 182.911 358.639 181.718L357.167 177.495L363.446 173.575L366.594 176.752C368.157 176.27 369.758 176.01 371.354 175.959L373.301 171.93L380.513 173.598L380.492 178.073C381.904 178.82 383.227 179.758 384.421 180.876L388.643 179.404L392.564 185.683L389.387 188.831C389.868 190.393 390.129 191.995 390.18 193.592L394.209 195.538L392.541 202.749L388.066 202.729C387.319 204.142 386.383 205.465 385.264 206.658L386.735 210.881L380.457 214.8L377.309 211.624ZM375.871 201.101C379.591 198.779 380.725 193.881 378.402 190.16C376.08 186.44 371.182 185.307 367.462 187.629C363.741 189.952 362.609 194.85 364.931 198.571C367.253 202.291 372.151 203.424 375.871 201.101Z" fill="#EBEBEB"/>
<path d="M101.128 131.986C101.218 132.078 96.9984 136.401 91.7028 141.641C86.4054 146.883 82.0386 151.056 81.9477 150.963C81.8568 150.871 86.076 146.549 91.3734 141.307C96.669 136.068 101.037 131.894 101.128 131.986Z" fill="#E0E0E0"/>
<path d="M101.173 150.917C101.083 151.01 96.6951 146.857 91.3743 141.643C86.0517 136.426 81.8118 132.125 81.9018 132.033C81.9927 131.94 86.3793 136.093 91.7019 141.308C97.0227 146.522 101.263 150.825 101.173 150.917Z" fill="#E0E0E0"/>
<path d="M120.214 251.762C120.2 251.891 114.816 251.429 108.188 250.729C101.559 250.03 96.1965 249.358 96.21 249.229C96.2235 249.1 101.607 249.563 108.237 250.263C114.864 250.962 120.227 251.634 120.214 251.762Z" fill="#E0E0E0"/>
<path d="M119.259 260.803C119.245 260.932 113.861 260.469 107.233 259.77C100.604 259.07 95.2416 258.399 95.2551 258.269C95.2686 258.141 100.652 258.603 107.282 259.304C113.91 260.003 119.272 260.674 119.259 260.803Z" fill="#E0E0E0"/>
<path d="M54.3591 231.923C54.3591 231.923 47.232 231.41 47.8881 247.397C48.5442 263.385 50.175 271.901 50.175 271.901C50.175 271.901 49.9653 275.446 47.2203 274.75C44.4753 274.055 39.3102 270.605 36.7596 273.183C34.1145 275.858 35.055 279.96 38.5641 284.792C42.0732 289.625 49.3722 300.493 50.0292 301.478C50.6736 302.445 50.9319 304.259 48.9861 304.084C47.0403 303.909 33.9039 299.457 32.1642 305.817C30.4245 312.177 42.4125 324.032 43.6977 325.353C44.9838 326.674 45.0522 327.508 44.5311 328.307C44.0091 329.107 39.735 327.194 35.9469 326.081C32.1588 324.968 27.5715 324.341 26.8749 328.094C26.1783 331.847 31.4586 342.832 51.2316 354.376L60.7437 359.125L69.7473 353.382C88.2657 339.918 92.421 328.461 91.3527 324.797C90.2844 321.132 85.7826 322.214 82.125 323.7C78.4674 325.187 74.4057 327.517 73.8072 326.775C73.2087 326.031 73.1943 325.195 74.3409 323.752C75.4884 322.309 86.2299 309.314 83.8629 303.161C81.4959 297.006 68.8707 302.75 66.9519 303.118C65.0331 303.486 65.1087 301.656 65.6532 300.629C66.2076 299.583 72.3834 288.039 75.3912 282.88C78.399 277.721 78.9246 273.545 76.0248 271.149C73.2285 268.838 68.4351 272.787 65.7729 273.755C63.1107 274.722 62.5473 271.216 62.5473 271.216C62.5473 271.216 63.3186 262.58 62.3718 246.607C61.425 230.634 54.2142 231.924 54.2142 231.924" fill="#EBEBEB"/>
<path d="M54.9225 246.242C54.9225 246.242 54.9414 246.354 54.9603 246.576C54.9783 246.812 55.0035 247.138 55.0359 247.557C55.0953 248.437 55.1817 249.706 55.2924 251.332C55.5111 254.611 55.791 259.358 56.115 265.225C56.7675 276.958 57.5289 293.174 58.3119 311.086C59.094 329.004 59.8158 345.221 60.4026 356.957C60.7005 362.813 60.9417 367.556 61.1091 370.854C61.1901 372.482 61.2531 373.752 61.2972 374.633C61.3143 375.053 61.3278 375.379 61.3368 375.616C61.344 375.837 61.3377 375.952 61.3377 375.952C61.3377 375.952 61.3188 375.839 61.299 375.619C61.281 375.382 61.2558 375.056 61.2234 374.638C61.164 373.757 61.0776 372.488 60.9669 370.863C60.7482 367.584 60.4683 362.838 60.1443 356.971C59.4927 345.237 58.7304 329.019 57.9474 311.102C57.1653 293.19 56.4435 276.974 55.8576 265.239C55.5597 259.384 55.3185 254.64 55.1502 251.341C55.0692 249.713 55.0062 248.443 54.9621 247.562C54.945 247.143 54.9315 246.816 54.9225 246.578C54.9162 246.356 54.9225 246.242 54.9225 246.242Z" fill="#E0E0E0"/>
<path d="M43.7904 278.3C43.8084 278.282 44.0181 278.458 44.3826 278.792C44.7489 279.124 45.2628 279.622 45.8919 280.242C47.1474 281.486 48.8358 283.249 50.6619 285.229C52.4493 287.184 54.0648 288.951 55.314 290.319C55.8693 290.921 56.3418 291.434 56.7297 291.855C57.0654 292.217 57.2427 292.425 57.2256 292.443C57.2085 292.461 56.997 292.287 56.6298 291.956C56.2644 291.622 55.7505 291.125 55.1277 290.498C53.8839 289.241 52.2198 287.456 50.3937 285.476C48.5937 283.535 46.9665 281.78 45.7065 280.422C45.1476 279.823 44.6724 279.312 44.2818 278.893C43.9488 278.528 43.7724 278.318 43.7904 278.3Z" fill="#E0E0E0"/>
<path d="M58.1688 292.13C58.0968 292.06 61.5762 288.417 65.9376 283.994C70.3008 279.571 73.8954 276.043 73.9665 276.113C74.0376 276.183 70.56 279.825 66.1968 284.25C61.8345 288.671 58.2399 292.2 58.1688 292.13Z" fill="#E0E0E0"/>
<path d="M58.1292 319.694C58.1175 319.672 58.3542 319.523 58.7925 319.272C59.3001 318.987 59.922 318.639 60.6528 318.228C62.2224 317.346 64.3869 316.121 66.726 314.682C69.0696 313.25 71.1459 311.88 72.6417 310.878C73.3392 310.413 73.9323 310.018 74.4165 309.695C74.8377 309.417 75.078 309.274 75.0924 309.294C75.1068 309.315 74.8953 309.497 74.4993 309.809C74.1024 310.121 73.5201 310.561 72.7884 311.09C71.3268 312.147 69.2667 313.556 66.9159 314.993C64.5696 316.436 62.3781 317.629 60.7743 318.455C59.9706 318.865 59.3163 319.189 58.8573 319.398C58.3992 319.611 58.1409 319.717 58.1292 319.694Z" fill="#E0E0E0"/>
<path d="M42.3711 310.048C42.3837 310.027 42.6177 310.137 43.029 310.357C43.4403 310.577 44.0298 310.904 44.7534 311.315C46.2015 312.138 48.1896 313.296 50.373 314.595C52.5573 315.894 54.5247 317.088 55.9386 317.967C56.646 318.407 57.2148 318.768 57.6036 319.025C57.9924 319.281 58.2021 319.433 58.1886 319.455C58.176 319.477 57.942 319.366 57.5307 319.146C57.1194 318.927 56.5299 318.6 55.8063 318.188C54.3582 317.365 52.3701 316.206 50.1858 314.907C48.0024 313.609 46.035 312.415 44.6211 311.536C43.9137 311.096 43.3449 310.735 42.9552 310.478C42.5673 310.222 42.3576 310.07 42.3711 310.048Z" fill="#E0E0E0"/>
<path d="M39.2445 334.379C39.2571 334.357 39.5541 334.502 40.0815 334.784C40.6674 335.107 41.4099 335.516 42.2955 336.005C44.1567 337.05 46.7154 338.515 49.5306 340.153C52.3467 341.791 54.8847 343.292 56.7126 344.394C57.5748 344.922 58.2975 345.365 58.8681 345.715C59.373 346.034 59.6457 346.221 59.6331 346.243C59.6205 346.264 59.3235 346.119 58.7961 345.838C58.2102 345.515 57.4677 345.105 56.5821 344.616C54.7209 343.571 52.1622 342.106 49.3461 340.468C46.5318 338.83 43.9929 337.33 42.165 336.228C41.3028 335.7 40.5801 335.257 40.0095 334.907C39.5055 334.587 39.2319 334.4 39.2445 334.379Z" fill="#E0E0E0"/>
<path d="M59.2254 345.821C59.2128 345.799 59.508 345.603 60.0525 345.267C60.6582 344.899 61.434 344.426 62.3646 343.859C64.3158 342.671 67.0059 341.019 69.9246 339.115C72.8478 337.214 75.4479 335.426 77.3235 334.119C78.2181 333.497 78.9651 332.978 79.5465 332.574C80.0739 332.213 80.3718 332.022 80.3871 332.042C80.4024 332.061 80.1315 332.291 79.6302 332.689C79.1289 333.086 78.3936 333.649 77.4729 334.328C75.6342 335.69 73.0512 337.515 70.1226 339.42C67.1985 341.328 64.4814 342.947 62.4942 344.081C61.4988 344.645 60.6888 345.093 60.1218 345.389C59.5566 345.688 59.238 345.843 59.2254 345.821Z" fill="#E0E0E0"/>
<path d="M73.5219 362.237H47.2059L55.7955 427.254H64.9332L73.5219 362.237Z" fill="#E0E0E0"/>
<path d="M48.5721 370.229C48.5622 370.236 48.6009 370.321 48.7125 370.461C48.825 370.598 49.0311 370.778 49.347 370.915C49.9707 371.187 51.0669 371.209 52.1262 370.574C53.1891 369.988 54.1143 368.836 55.539 368.328C56.9511 367.789 58.7007 367.885 60.3783 368.424C62.0748 368.949 63.549 369.807 64.8846 370.607C66.2229 371.404 67.4487 372.114 68.5494 372.574C69.6411 373.051 70.5933 373.271 71.2521 373.355C71.5824 373.399 71.8398 373.412 72.0153 373.406C72.1899 373.406 72.2817 373.399 72.2826 373.384C72.2979 373.298 70.7931 373.311 68.6727 372.296C67.6098 371.81 66.4164 371.084 65.0889 370.268C63.7677 369.453 62.2584 368.555 60.5061 368.014C58.7745 367.457 56.9133 367.356 55.3986 367.958C54.6417 368.246 54.0063 368.699 53.4762 369.147C52.9389 369.591 52.4574 370.01 51.9696 370.314C51.0075 370.936 49.9959 370.962 49.4064 370.759C48.7998 370.548 48.6054 370.193 48.5721 370.229Z" fill="#F5F5F5"/>
<path d="M49.5324 382.204C49.5675 382.226 49.7412 381.936 50.1525 381.507C50.571 381.089 51.2577 380.543 52.254 380.174C53.2413 379.795 54.5103 379.57 55.9134 379.623C57.3228 379.671 58.8591 379.981 60.4926 380.247C62.1234 380.521 63.7389 380.643 65.1816 380.441C66.6243 380.256 67.8771 379.841 68.8707 379.388C69.867 378.933 70.605 378.436 71.0892 378.069C71.5752 377.7 71.8065 377.453 71.7921 377.436C71.7426 377.365 70.7265 378.275 68.7492 379.109C67.7628 379.517 66.5352 379.89 65.1339 380.048C63.7326 380.222 62.181 380.094 60.5601 379.822C58.9401 379.559 57.3795 379.255 55.9251 379.227C54.4689 379.194 53.1558 379.46 52.1397 379.892C51.1146 380.314 50.4216 380.927 50.0283 381.394C49.8384 381.637 49.7007 381.831 49.6305 381.977C49.5531 382.119 49.5189 382.197 49.5324 382.204Z" fill="#F5F5F5"/>
<path d="M70.5411 388.615C70.551 388.595 70.3071 388.43 69.8157 388.238C69.3261 388.044 68.5782 387.845 67.635 387.77C66.6927 387.695 65.5632 387.755 64.3374 387.959C63.1098 388.157 61.7949 388.497 60.4125 388.789C59.0319 389.08 57.6999 389.276 56.4939 389.232C55.2879 389.19 54.2151 388.926 53.3826 388.559C51.6888 387.815 51.0858 386.734 51.0228 386.802C51.0066 386.812 51.1254 387.083 51.4683 387.489C51.8076 387.894 52.3998 388.411 53.2548 388.833C54.1089 389.254 55.2213 389.561 56.4768 389.626C57.735 389.695 59.1048 389.503 60.5016 389.209C61.8984 388.912 63.2043 388.563 64.4049 388.347C65.6046 388.127 66.7008 388.038 67.6179 388.072C69.4647 388.135 70.5141 388.693 70.5411 388.615Z" fill="#F5F5F5"/>
<path d="M51.8571 397.632C51.8697 397.701 52.7967 397.046 54.4122 397.374C55.2042 397.517 56.0898 397.919 57.0852 398.371C58.077 398.833 59.2722 399.229 60.5547 399.327C63.1404 399.576 65.4399 398.741 66.8502 397.868C67.5729 397.44 68.076 396.979 68.4171 396.663C68.7375 396.322 68.9013 396.126 68.8806 396.106C68.823 396.043 68.1318 396.821 66.6981 397.606C65.2887 398.386 63.0693 399.138 60.5934 398.9C58.1022 398.758 56.1897 397.272 54.4626 397.076C53.6202 396.95 52.9164 397.07 52.4781 397.247C52.0326 397.42 51.8445 397.616 51.8571 397.632Z" fill="#F5F5F5"/>
<path d="M53.3232 410.111C53.3232 410.161 54.2061 410.154 55.5174 409.676C56.8404 409.234 58.4775 408.219 60.39 407.46C61.3494 407.094 62.3115 406.869 63.1863 406.874C64.062 406.878 64.8432 407.092 65.4345 407.387C66.6432 407.989 66.9933 408.844 67.0599 408.79C67.0788 408.782 67.0257 408.567 66.8106 408.236C66.5982 407.905 66.195 407.474 65.5776 407.12C64.962 406.768 64.134 406.506 63.1926 406.479C62.2485 406.452 61.2315 406.68 60.2379 407.059C58.2561 407.85 56.6712 408.893 55.4076 409.394C54.1584 409.931 53.3133 410.043 53.3232 410.111Z" fill="#F5F5F5"/>
<path d="M54.6129 415.917C54.5985 415.971 55.2294 416.198 56.2788 416.458C57.3282 416.719 58.7997 416.997 60.444 417.16C62.0883 417.32 63.5868 417.334 64.6668 417.282C65.7477 417.231 66.4101 417.132 66.4065 417.076C66.4002 416.947 63.7398 417.06 60.4863 416.732C57.2328 416.421 54.6453 415.791 54.6129 415.917Z" fill="#F5F5F5"/>
<path d="M204.691 127.871C188.24 99.4473 151.503 85.6044 119.546 93.1716C87.5889 100.739 61.8084 127.593 52.3854 159.053C42.9624 190.514 48.96 225.554 65.4183 253.973C81.8766 282.392 108.111 304.427 137.52 319.045C214.942 357.529 322.337 356.324 384.215 295.939C397.417 283.056 416.774 267.74 420.436 242.903C424.474 215.517 413.366 197.301 396.378 181.141C374.263 160.105 340.924 166.878 316.428 173.492C291.933 180.106 268.854 192.684 247.993 178.241" fill="#7C776E" fill-opacity="0.1"/>
<path d="M424.142 426.208C424.142 426.337 334.579 426.442 224.122 426.442C113.627 426.442 24.0822 426.336 24.0822 426.208C24.0822 426.078 113.627 425.974 224.122 425.974C334.578 425.974 424.142 426.078 424.142 426.208Z" fill="#263238"/>
<path d="M137.12 144.868C137.12 144.868 139.57 130.189 140.153 129.072C140.737 127.955 147.505 121.092 148.303 120.95C149.101 120.808 159.766 117.46 159.177 119.124C158.586 120.788 151.105 123.033 151.105 123.033L150.395 123.926C150.395 123.926 156.787 121.846 158.377 121.899C159.84 121.947 160.1 123.466 158.957 123.905C157.814 124.343 152.177 125.986 151.969 126.337C151.76 126.69 158.243 124.838 159.057 124.872C160.152 124.919 160.948 126.307 159.828 126.778C159.169 127.055 152.901 128.494 152.901 128.494C152.901 128.494 158.133 127.882 158.722 128.041C159.687 128.302 159.604 129.471 158.545 129.753C157.818 129.946 153.988 130.11 153.014 130.37C153.014 130.37 152.292 130.99 152.318 132.927C152.344 134.866 149.825 140.032 149.825 140.032L137.12 144.868Z" fill="#FFBE9D"/>
<path d="M159.169 119.157C159.21 119.199 158.673 119.792 157.599 120.521C157.063 120.883 156.39 121.27 155.602 121.616C154.807 121.914 153.928 122.216 153.005 122.538C152.321 122.77 151.661 122.993 151.036 123.205L151.142 123.14C149.109 125.168 147.585 126.589 147.502 126.517C147.419 126.445 148.805 124.898 150.798 122.824L150.838 122.782L150.905 122.759C151.521 122.543 152.172 122.315 152.848 122.078C153.752 121.772 154.613 121.48 155.433 121.202C156.201 120.892 156.867 120.548 157.413 120.233C158.503 119.597 159.118 119.101 159.169 119.157Z" fill="#EB996E"/>
<path d="M301.263 306.11L155.984 291.144C151.541 290.686 148.31 286.713 148.767 282.269L173.929 38.025C174.579 31.7133 180.222 27.1242 186.534 27.774L325.048 42.0435C331.359 42.6933 335.948 48.3372 335.299 54.6489L310.137 298.894C309.681 303.336 305.708 306.568 301.263 306.11Z" fill="#EFA71F"/>
<path opacity="0.4" d="M301.263 306.11L155.984 291.144C151.541 290.686 148.31 286.713 148.767 282.269L173.929 38.025C174.579 31.7133 180.222 27.1242 186.534 27.774L325.048 42.0435C331.359 42.6933 335.948 48.3372 335.299 54.6489L310.137 298.894C309.681 303.336 305.708 306.568 301.263 306.11Z" fill="black"/>
<path d="M286.605 304.6L141.326 289.633C136.883 289.175 133.652 285.203 134.109 280.759L159.27 36.5139C159.92 30.2022 165.564 25.6122 171.876 26.2629L310.389 40.5324C316.701 41.1822 321.29 46.8261 320.64 53.1378L295.479 297.382C295.022 301.827 291.048 305.058 286.605 304.6Z" fill="#EFA71F"/>
<path d="M210.249 262.166L160.154 257.005C158.957 256.882 158.088 255.812 158.211 254.615L160.241 234.903C160.365 233.707 161.435 232.836 162.631 232.96L212.726 238.12C213.923 238.244 214.792 239.314 214.669 240.51L212.639 260.222C212.515 261.419 211.445 262.289 210.249 262.166Z" fill="#EFA71F"/>
<g opacity="0.4">
<path d="M210.249 262.166L160.154 257.005C158.957 256.882 158.088 255.812 158.211 254.615L160.241 234.903C160.365 233.707 161.435 232.836 162.631 232.96L212.726 238.12C213.923 238.244 214.792 239.314 214.669 240.51L212.639 260.222C212.515 261.419 211.445 262.289 210.249 262.166Z" fill="black"/>
</g>
<path d="M169.395 53.5776L163.818 107.694L301.777 121.91L307.353 67.7937L169.395 53.5776Z" fill="#FAFAFA"/>
<path d="M301.776 121.899C301.776 121.899 301.8 121.566 301.859 120.933C301.921 120.292 302.011 119.357 302.13 118.131C302.375 115.666 302.734 112.046 303.197 107.378C304.138 98.0469 305.5 84.5343 307.19 67.7637L307.335 67.9419C272.613 64.3833 223.617 59.3613 169.374 53.8011L169.365 53.8002L169.622 53.5914C167.669 72.5184 165.782 90.8055 164.038 107.708L163.837 107.462C203.758 111.617 238.215 115.204 262.703 117.752C274.955 119.041 284.711 120.068 291.415 120.773C294.762 121.13 297.345 121.405 299.102 121.594C299.972 121.689 300.635 121.763 301.093 121.812C301.541 121.865 301.776 121.899 301.776 121.899C301.776 121.899 301.558 121.886 301.118 121.845C300.666 121.801 300.011 121.738 299.151 121.656C297.402 121.482 294.833 121.227 291.504 120.897C284.809 120.222 275.065 119.239 262.83 118.006C238.298 115.505 203.783 111.987 163.79 107.91L163.567 107.887L163.59 107.663C165.329 90.7596 167.209 72.4725 169.156 53.5446L169.18 53.3115L169.413 53.3358L169.422 53.3367C223.66 58.9527 272.651 64.0251 307.369 67.6197L307.531 67.6368L307.514 67.7988C305.745 84.6036 304.32 98.1432 303.336 107.493C302.839 112.143 302.455 115.747 302.192 118.202C302.06 119.413 301.959 120.337 301.89 120.971C301.82 121.59 301.776 121.899 301.776 121.899Z" fill="#263238"/>
<path d="M188.472 155.734L168.749 153.702C167.719 153.596 166.972 152.676 167.078 151.646L169.11 131.924C169.216 130.894 170.136 130.146 171.166 130.252L190.888 132.284C191.918 132.39 192.666 133.31 192.56 134.339L190.528 154.062C190.422 155.092 189.501 155.84 188.472 155.734Z" fill="#EFA71F"/>
<g opacity="0.4">
<path d="M188.472 155.734L168.749 153.702C167.719 153.596 166.972 152.676 167.078 151.646L169.11 131.924C169.216 130.894 170.136 130.146 171.166 130.252L190.888 132.284C191.918 132.39 192.666 133.31 192.56 134.339L190.528 154.062C190.422 155.092 189.501 155.84 188.472 155.734Z" fill="black"/>
</g>
<path d="M184.851 155.362L165.128 153.33C164.099 153.224 163.351 152.303 163.457 151.275L165.489 131.552C165.595 130.522 166.515 129.775 167.545 129.881L187.267 131.913C188.297 132.019 189.045 132.939 188.939 133.969L186.907 153.691C186.8 154.719 185.881 155.468 184.851 155.362Z" fill="#263238"/>
<path d="M178.366 137.796L177.359 147.569L175.097 147.336L175.917 139.378L173.962 139.177L174.149 137.362L178.366 137.796Z" fill="white"/>
<path d="M221.172 159.103L201.45 157.071C200.42 156.964 199.672 156.044 199.778 155.015L201.811 135.292C201.917 134.263 202.837 133.515 203.866 133.621L223.589 135.652C224.618 135.759 225.366 136.678 225.26 137.708L223.228 157.431C223.122 158.46 222.201 159.209 221.172 159.103Z" fill="#EFA71F"/>
<g opacity="0.4">
<path d="M221.172 159.103L201.45 157.071C200.42 156.964 199.672 156.044 199.778 155.015L201.811 135.292C201.917 134.263 202.837 133.515 203.866 133.621L223.589 135.652C224.618 135.759 225.366 136.678 225.26 137.708L223.228 157.431C223.122 158.46 222.201 159.209 221.172 159.103Z" fill="black"/>
</g>
<path d="M217.551 158.73L197.828 156.699C196.798 156.593 196.051 155.673 196.157 154.643L198.188 134.921C198.294 133.891 199.215 133.143 200.244 133.249L219.966 135.282C220.996 135.388 221.744 136.308 221.638 137.337L219.606 157.06C219.5 158.088 218.58 158.836 217.551 158.73Z" fill="#263238"/>
<path d="M213.781 149.459L213.592 151.303L206.206 150.542L206.357 149.076L210.495 145.903C211.444 145.169 211.649 144.682 211.698 144.208C211.777 143.439 211.293 142.938 210.261 142.832C209.423 142.745 208.677 142.994 208.135 143.601L206.598 142.37C207.464 141.345 208.906 140.773 210.666 140.955C212.843 141.179 214.18 142.447 213.997 144.22C213.9 145.169 213.545 146.007 212.046 147.136L209.579 149.027L213.781 149.459Z" fill="white"/>
<path d="M255.072 162.595L235.349 160.563C234.319 160.456 233.572 159.537 233.678 158.507L235.71 138.784C235.816 137.755 236.736 137.007 237.766 137.113L257.488 139.144C258.518 139.251 259.266 140.171 259.159 141.2L257.127 160.923C257.021 161.953 256.1 162.701 255.072 162.595Z" fill="#EFA71F"/>
<g opacity="0.4">
<path d="M255.072 162.595L235.349 160.563C234.319 160.456 233.572 159.537 233.678 158.507L235.71 138.784C235.816 137.755 236.736 137.007 237.766 137.113L257.488 139.144C258.518 139.251 259.266 140.171 259.159 141.2L257.127 160.923C257.021 161.953 256.1 162.701 255.072 162.595Z" fill="black"/>
</g>
<path d="M251.45 162.222L231.727 160.19C230.698 160.084 229.95 159.164 230.056 158.134L232.088 138.411C232.195 137.381 233.115 136.633 234.144 136.74L253.867 138.772C254.896 138.878 255.644 139.798 255.538 140.827L253.507 160.55C253.4 161.58 252.48 162.328 251.45 162.222Z" fill="#263238"/>
<path d="M247.715 151.798C247.545 153.445 246.12 154.822 243.343 154.535C241.974 154.394 240.602 153.872 239.722 153.104L240.781 151.464C241.463 152.098 242.463 152.526 243.482 152.631C244.613 152.747 245.359 152.359 245.441 151.563C245.517 150.823 245.02 150.306 243.735 150.174L242.702 150.068L242.856 148.574L245.102 146.506L240.941 146.077L241.128 144.262L247.97 144.967L247.819 146.433L245.354 148.719C247.083 149.179 247.864 150.36 247.715 151.798Z" fill="white"/>
<path d="M288.971 166.088L269.249 164.055C268.219 163.949 267.471 163.029 267.577 162L269.609 142.277C269.715 141.248 270.635 140.5 271.664 140.606L291.387 142.638C292.416 142.744 293.164 143.664 293.058 144.694L291.026 164.416C290.921 165.445 290 166.194 288.971 166.088Z" fill="#EFA71F"/>
<g opacity="0.4">
<path d="M288.971 166.088L269.249 164.055C268.219 163.949 267.471 163.029 267.577 162L269.609 142.277C269.715 141.248 270.635 140.5 271.664 140.606L291.387 142.638C292.416 142.744 293.164 143.664 293.058 144.694L291.026 164.416C290.921 165.445 290 166.194 288.971 166.088Z" fill="black"/>
</g>
<path d="M285.432 165.714L265.71 163.683C264.68 163.577 263.932 162.656 264.038 161.627L266.071 141.905C266.177 140.875 267.097 140.127 268.126 140.233L287.849 142.266C288.878 142.372 289.626 143.292 289.52 144.321L287.488 164.044C287.382 165.072 286.461 165.82 285.432 165.714Z" fill="#263238"/>
<path d="M271.485 151.612L271.393 152.507L281.863 153.586L281.955 152.691L271.485 151.612Z" fill="white"/>
<path d="M278.843 148.196C278.747 149.134 277.908 149.815 276.971 149.719C276.034 149.622 275.352 148.783 275.449 147.847C275.545 146.909 276.384 146.227 277.321 146.324C278.258 146.42 278.941 147.258 278.843 148.196Z" fill="white"/>
<path d="M277.903 157.327C277.807 158.265 276.968 158.946 276.031 158.85C275.093 158.754 274.412 157.915 274.508 156.978C274.604 156.04 275.443 155.359 276.381 155.455C277.318 155.551 277.999 156.389 277.903 157.327Z" fill="white"/>
<path d="M184.933 190.086L165.21 188.055C164.181 187.949 163.433 187.028 163.539 185.999L165.571 166.277C165.677 165.247 166.597 164.499 167.627 164.606L187.349 166.638C188.379 166.744 189.127 167.664 189.021 168.693L186.989 188.416C186.882 189.445 185.963 190.193 184.933 190.086Z" fill="#EFA71F"/>
<g opacity="0.4">
<path d="M184.933 190.086L165.21 188.055C164.181 187.949 163.433 187.028 163.539 185.999L165.571 166.277C165.677 165.247 166.597 164.499 167.627 164.606L187.349 166.638C188.379 166.744 189.127 167.664 189.021 168.693L186.989 188.416C186.882 189.445 185.963 190.193 184.933 190.086Z" fill="black"/>
</g>
<path d="M181.312 189.714L161.59 187.682C160.56 187.576 159.812 186.656 159.918 185.627L161.95 165.904C162.056 164.875 162.976 164.127 164.005 164.233L183.728 166.264C184.757 166.37 185.505 167.291 185.399 168.32L183.368 188.042C183.262 189.071 182.341 189.82 181.312 189.714Z" fill="#263238"/>
<path d="M176.885 180.164L175.292 180L175.081 182.052L172.876 181.825L173.087 179.773L167.823 179.231L167.98 177.709L173.227 171.985L175.599 172.229L170.722 177.666L173.346 177.936L173.534 176.108L175.67 176.328L175.482 178.157L177.075 178.321L176.885 180.164Z" fill="white"/>
<path d="M217.633 193.455L197.91 191.423C196.88 191.316 196.133 190.397 196.239 189.367L198.271 169.644C198.377 168.615 199.297 167.867 200.327 167.973L220.049 170.004C221.079 170.111 221.827 171.031 221.72 172.06L219.688 191.783C219.583 192.813 218.662 193.561 217.633 193.455Z" fill="#EFA71F"/>
<g opacity="0.4">
<path d="M217.633 193.455L197.91 191.423C196.88 191.316 196.133 190.397 196.239 189.367L198.271 169.644C198.377 168.615 199.297 167.867 200.327 167.973L220.049 170.004C221.079 170.111 221.827 171.031 221.72 172.06L219.688 191.783C219.583 192.813 218.662 193.561 217.633 193.455Z" fill="black"/>
</g>
<path d="M214.012 193.082L194.289 191.05C193.26 190.944 192.512 190.024 192.617 188.995L194.649 169.272C194.756 168.242 195.675 167.494 196.705 167.601L216.428 169.633C217.457 169.739 218.205 170.659 218.099 171.688L216.067 191.411C215.961 192.44 215.042 193.189 214.012 193.082Z" fill="#263238"/>
<path d="M209.29 182.471C209.111 184.202 207.686 185.579 204.893 185.292C203.539 185.152 202.154 184.629 201.274 183.861L202.346 182.222C203.027 182.857 204.014 183.283 205.033 183.388C206.164 183.505 206.911 183.101 206.993 182.305C207.072 181.537 206.621 180.983 204.848 180.8L202.35 180.543L203.419 175.094L209.381 175.708L209.193 177.523L205.116 177.104L204.772 178.943L205.568 179.025C208.457 179.324 209.467 180.741 209.29 182.471Z" fill="white"/>
<path d="M251.533 196.948L231.81 194.916C230.781 194.81 230.033 193.89 230.139 192.86L232.171 173.138C232.277 172.108 233.197 171.36 234.227 171.466L253.949 173.498C254.979 173.605 255.727 174.524 255.621 175.554L253.589 195.278C253.482 196.305 252.562 197.053 251.533 196.948Z" fill="#EFA71F"/>
<g opacity="0.4">
<path d="M251.533 196.948L231.81 194.916C230.781 194.81 230.033 193.89 230.139 192.86L232.171 173.138C232.277 172.108 233.197 171.36 234.227 171.466L253.949 173.498C254.979 173.605 255.727 174.524 255.621 175.554L253.589 195.278C253.482 196.305 252.562 197.053 251.533 196.948Z" fill="black"/>
</g>
<path d="M247.911 196.574L228.189 194.542C227.159 194.436 226.411 193.515 226.517 192.487L228.55 172.764C228.656 171.734 229.576 170.986 230.605 171.093L250.328 173.125C251.357 173.231 252.105 174.151 251.999 175.18L249.967 194.903C249.862 195.932 248.941 196.681 247.911 196.574Z" fill="#263238"/>
<path d="M243.875 186.02C243.67 188.016 241.906 189.104 239.84 188.892C237.146 188.614 235.645 186.753 235.97 183.597C236.318 180.219 238.55 178.544 241.497 178.847C242.529 178.953 243.509 179.294 244.149 179.798L243.14 181.373C242.634 180.954 242.018 180.763 241.361 180.696C239.729 180.527 238.581 181.383 238.32 183.246C238.95 182.732 239.804 182.525 240.823 182.629C242.708 182.824 244.065 184.177 243.875 186.02ZM241.672 185.906C241.764 185.012 241.166 184.372 240.161 184.269C239.17 184.167 238.408 184.709 238.32 185.561C238.234 186.399 238.8 187.078 239.888 187.19C240.852 187.289 241.58 186.8 241.672 185.906Z" fill="white"/>
<path d="M285.432 200.44L265.71 198.408C264.68 198.301 263.932 197.382 264.038 196.352L266.071 176.629C266.177 175.6 267.097 174.852 268.126 174.958L287.849 176.99C288.878 177.097 289.626 178.016 289.52 179.046L287.488 198.769C287.382 199.797 286.461 200.546 285.432 200.44Z" fill="#EFA71F"/>
<g opacity="0.4">
<path d="M285.432 200.44L265.71 198.408C264.68 198.301 263.932 197.382 264.038 196.352L266.071 176.629C266.177 175.6 267.097 174.852 268.126 174.958L287.849 176.99C288.878 177.097 289.626 178.016 289.52 179.046L287.488 198.769C287.382 199.797 286.461 200.546 285.432 200.44Z" fill="black"/>
</g>
<path d="M281.811 200.066L262.088 198.035C261.058 197.929 260.311 197.009 260.416 195.98L262.448 176.257C262.554 175.227 263.474 174.479 264.504 174.586L284.226 176.618C285.256 176.724 286.004 177.645 285.898 178.673L283.865 198.396C283.761 199.425 282.84 200.173 281.811 200.066Z" fill="#263238"/>
<path d="M277.004 183.714L268.738 190.232L269.295 190.939L277.561 184.421L277.004 183.714Z" fill="white"/>
<path d="M270.191 182.965L269.493 183.533L276.135 191.7L276.834 191.132L270.191 182.965Z" fill="white"/>
<path d="M181.423 224.159L161.7 222.127C160.671 222.021 159.923 221.101 160.029 220.072L162.061 200.349C162.167 199.319 163.087 198.571 164.117 198.677L183.839 200.709C184.869 200.815 185.617 201.735 185.511 202.765L183.479 222.487C183.372 223.517 182.452 224.266 181.423 224.159Z" fill="#EFA71F"/>
<g opacity="0.4">
<path d="M181.423 224.159L161.7 222.127C160.671 222.021 159.923 221.101 160.029 220.072L162.061 200.349C162.167 199.319 163.087 198.571 164.117 198.677L183.839 200.709C184.869 200.815 185.617 201.735 185.511 202.765L183.479 222.487C183.372 223.517 182.452 224.266 181.423 224.159Z" fill="black"/>
</g>
<path d="M177.802 223.787L158.08 221.755C157.05 221.649 156.302 220.729 156.408 219.7L158.44 199.977C158.546 198.948 159.467 198.2 160.495 198.306L180.218 200.338C181.247 200.444 181.995 201.365 181.889 202.394L179.857 222.116C179.752 223.144 178.831 223.893 177.802 223.787Z" fill="#263238"/>
<path d="M172.872 206.382L172.721 207.848L168.234 215.78L165.777 215.527L170.098 207.958L166.86 207.625L166.696 209.216L164.686 209.009L165.039 205.574L172.872 206.382Z" fill="white"/>
<path d="M214.123 227.528L194.4 225.496C193.37 225.39 192.623 224.47 192.729 223.44L194.761 203.718C194.867 202.688 195.787 201.94 196.817 202.046L216.539 204.078C217.569 204.184 218.317 205.105 218.21 206.133L216.179 225.856C216.073 226.885 215.152 227.634 214.123 227.528Z" fill="#EFA71F"/>
<g opacity="0.4">
<path d="M214.123 227.528L194.4 225.496C193.37 225.39 192.623 224.47 192.729 223.44L194.761 203.718C194.867 202.688 195.787 201.94 196.817 202.046L216.539 204.078C217.569 204.184 218.317 205.105 218.21 206.133L216.179 225.856C216.073 226.885 215.152 227.634 214.123 227.528Z" fill="black"/>
</g>
<path d="M210.502 227.155L190.779 225.123C189.75 225.017 189.002 224.097 189.107 223.068L191.139 203.345C191.246 202.315 192.165 201.568 193.195 201.674L212.918 203.705C213.947 203.811 214.695 204.732 214.589 205.761L212.557 225.483C212.451 226.513 211.532 227.261 210.502 227.155Z" fill="#263238"/>
<path d="M206.55 216.863C206.36 218.705 204.593 219.694 202.109 219.439C199.638 219.184 198.124 217.857 198.314 216.014C198.422 214.967 199.047 214.241 200.031 213.862C199.351 213.34 199.016 212.615 199.107 211.736C199.283 210.019 200.931 209.101 203.151 209.33C205.399 209.561 206.824 210.795 206.646 212.512C206.555 213.392 206.066 214.033 205.294 214.404C206.195 214.978 206.658 215.815 206.55 216.863ZM204.268 216.558C204.358 215.692 203.701 215.088 202.569 214.971C201.452 214.856 200.7 215.315 200.611 216.181C200.522 217.046 201.164 217.663 202.28 217.778C203.411 217.894 204.179 217.423 204.268 216.558ZM201.344 212.066C201.268 212.806 201.808 213.327 202.729 213.422C203.665 213.519 204.312 213.12 204.387 212.38C204.467 211.612 203.9 211.088 202.979 210.993C202.073 210.899 201.424 211.298 201.344 212.066Z" fill="white"/>
<path d="M248.023 231.02L228.3 228.988C227.271 228.882 226.523 227.962 226.628 226.932L228.66 207.21C228.767 206.18 229.686 205.432 230.716 205.538L250.439 207.571C251.468 207.677 252.216 208.597 252.11 209.626L250.078 229.349C249.972 230.377 249.052 231.126 248.023 231.02Z" fill="#EFA71F"/>
<g opacity="0.4">
<path d="M248.023 231.02L228.3 228.988C227.271 228.882 226.523 227.962 226.628 226.932L228.66 207.21C228.767 206.18 229.686 205.432 230.716 205.538L250.439 207.571C251.468 207.677 252.216 208.597 252.11 209.626L250.078 229.349C249.972 230.377 249.052 231.126 248.023 231.02Z" fill="black"/>
</g>
<path d="M244.401 230.647L224.679 228.615C223.649 228.509 222.901 227.588 223.007 226.56L225.04 206.837C225.146 205.808 226.066 205.06 227.095 205.166L246.818 207.198C247.847 207.304 248.595 208.224 248.489 209.254L246.457 228.976C246.351 230.005 245.431 230.754 244.401 230.647Z" fill="#263238"/>
<path d="M240.306 218.055C239.958 221.433 237.74 223.109 234.78 222.804C233.748 222.698 232.78 222.358 232.141 221.855L233.15 220.28C233.642 220.697 234.257 220.889 234.928 220.957C236.547 221.124 237.708 220.27 237.971 218.391C237.341 218.905 236.471 219.126 235.452 219.02C233.566 218.826 232.21 217.473 232.4 215.63C232.605 213.634 234.369 212.545 236.435 212.758C239.144 213.039 240.632 214.9 240.306 218.055ZM237.956 216.091C238.042 215.254 237.477 214.574 236.401 214.464C235.438 214.365 234.71 214.853 234.618 215.747C234.526 216.641 235.124 217.282 236.129 217.385C237.12 217.487 237.867 216.943 237.956 216.091Z" fill="white"/>
<path d="M281.922 234.512L262.2 232.481C261.17 232.375 260.422 231.454 260.527 230.425L262.56 210.703C262.666 209.673 263.586 208.925 264.615 209.031L284.338 211.063C285.367 211.17 286.115 212.089 286.009 213.119L283.977 232.842C283.872 233.87 282.951 234.618 281.922 234.512Z" fill="#EFA71F"/>
<g opacity="0.4">
<path d="M281.922 234.512L262.2 232.481C261.17 232.375 260.422 231.454 260.527 230.425L262.56 210.703C262.666 209.673 263.586 208.925 264.615 209.031L284.338 211.063C285.367 211.17 286.115 212.089 286.009 213.119L283.977 232.842C283.872 233.87 282.951 234.618 281.922 234.512Z" fill="black"/>
</g>
<path d="M278.301 234.139L258.578 232.107C257.548 232.001 256.801 231.081 256.906 230.052L258.938 210.329C259.044 209.299 259.964 208.552 260.994 208.658L280.716 210.69C281.746 210.796 282.494 211.716 282.388 212.746L280.355 232.468C280.25 233.497 279.33 234.246 278.301 234.139Z" fill="#263238"/>
<path d="M264.448 220.424L264.355 221.319L274.826 222.397L274.918 221.502L264.448 220.424Z" fill="white"/>
<path d="M244.481 265.391L224.759 263.359C223.729 263.253 222.981 262.333 223.087 261.303L225.12 241.581C225.226 240.551 226.147 239.803 227.175 239.909L246.898 241.942C247.927 242.048 248.675 242.969 248.569 243.997L246.537 263.72C246.432 264.749 245.511 265.496 244.481 265.391Z" fill="#EFA71F"/>
<g opacity="0.4">
<path d="M244.481 265.391L224.759 263.359C223.729 263.253 222.981 262.333 223.087 261.303L225.12 241.581C225.226 240.551 226.147 239.803 227.175 239.909L246.898 241.942C247.927 242.048 248.675 242.969 248.569 243.997L246.537 263.72C246.432 264.749 245.511 265.496 244.481 265.391Z" fill="black"/>
</g>
<path d="M240.861 265.018L221.138 262.985C220.109 262.879 219.361 261.959 219.467 260.93L221.499 241.207C221.605 240.178 222.525 239.43 223.555 239.535L243.277 241.567C244.307 241.673 245.055 242.593 244.949 243.623L242.917 263.346C242.81 264.375 241.89 265.124 240.861 265.018Z" fill="#263238"/>
<path d="M278.382 268.883L258.659 266.851C257.629 266.745 256.882 265.825 256.988 264.795L259.02 245.073C259.126 244.043 260.047 243.295 261.076 243.401L280.798 245.434C281.828 245.54 282.576 246.46 282.469 247.489L280.437 267.212C280.331 268.24 279.41 268.989 278.382 268.883Z" fill="#EFA71F"/>
<g opacity="0.4">
<path d="M278.382 268.883L258.659 266.851C257.629 266.745 256.882 265.825 256.988 264.795L259.02 245.073C259.126 244.043 260.047 243.295 261.076 243.401L280.798 245.434C281.828 245.54 282.576 246.46 282.469 247.489L280.437 267.212C280.331 268.24 279.41 268.989 278.382 268.883Z" fill="black"/>
</g>
<path d="M274.76 268.51L255.037 266.478C254.008 266.372 253.26 265.451 253.366 264.423L255.398 244.7C255.505 243.671 256.424 242.923 257.454 243.029L277.177 245.061C278.206 245.167 278.954 246.087 278.848 247.117L276.816 266.839C276.709 267.868 275.79 268.616 274.76 268.51Z" fill="#455A64"/>
<path d="M261.047 253.512L260.955 254.406L271.426 255.484L271.518 254.59L261.047 253.512Z" fill="white"/>
<path d="M260.637 257.498L260.545 258.393L271.015 259.47L271.107 258.576L260.637 257.498Z" fill="white"/>
<path d="M205.779 261.705L153.652 256.334C152.415 256.207 151.517 255.101 151.644 253.866L153.66 234.297C153.787 233.06 154.893 232.162 156.128 232.289L208.256 237.659C209.492 237.787 210.391 238.892 210.263 240.128L208.247 259.697C208.121 260.933 207.015 261.832 205.779 261.705Z" fill="#263238"/>
<path d="M178.851 246.31C179.183 243.085 181.159 241.439 183.559 241.687C185.976 241.935 187.56 243.948 187.228 247.172C186.896 250.397 184.935 252.044 182.519 251.795C180.119 251.547 178.519 249.534 178.851 246.31ZM184.953 246.938C185.181 244.718 184.495 243.716 183.363 243.599C182.247 243.485 181.371 244.326 181.142 246.545C180.913 248.764 181.6 249.767 182.716 249.881C183.847 249.999 184.724 249.158 184.953 246.938Z" fill="white"/>
<path d="M232.374 246.997L231.14 257.451L232.033 257.557L233.267 247.102L232.374 246.997Z" fill="white"/>
<path d="M226.999 251.292L226.907 252.187L237.379 253.265L237.471 252.37L226.999 251.292Z" fill="white"/>
<path d="M222.119 86.6124L220.613 101.224L219.924 101.153L221.363 87.1884L217.689 86.8104L217.756 86.1633L222.119 86.6124Z" fill="#263238"/>
<path d="M234.122 101.961L234.055 102.608L224.161 101.589L224.213 101.088L231.125 95.4298C233.105 93.8197 233.59 92.7937 233.713 91.6039C233.914 89.6626 232.685 88.2694 230.139 88.0075C228.198 87.8068 226.72 88.2253 225.574 89.3089L225.142 88.8013C226.357 87.6601 228.077 87.1408 230.226 87.3622C233.024 87.6502 234.649 89.2738 234.406 91.6318C234.265 93.0097 233.702 94.1752 231.584 95.8978L225.293 101.051L234.122 101.961Z" fill="#263238"/>
<path d="M245.702 99.7155C245.453 102.137 243.563 103.672 240.35 103.342C238.158 103.116 236.303 102.081 235.487 100.794L235.914 100.331C236.66 101.484 238.308 102.477 240.396 102.692C243.193 102.98 244.796 101.752 245.013 99.6444C245.232 97.515 243.953 96.012 240.863 95.6943L240.05 95.6106L240.102 95.1093L245.264 89.6499L237.206 88.8201L237.272 88.173L246.248 89.0973L246.196 89.5986L241.013 95.0769C244.434 95.4297 245.953 97.2729 245.702 99.7155Z" fill="#263238"/>
<path d="M260.078 101.028L256.905 100.701L256.471 104.917L255.782 104.846L256.216 100.63L247.824 99.7659L247.876 99.2646L256.974 90.2034L257.788 90.2871L248.808 99.234L256.28 100.003L256.663 96.2883L257.352 96.3594L256.97 100.075L260.142 100.402L260.078 101.028Z" fill="#263238"/>
<path d="M263.13 104.971C263.102 105.242 263.021 105.402 262.925 105.729L261.885 108.449L261.342 108.393L262.287 105.579C261.938 105.48 261.715 105.183 261.752 104.828C261.79 104.452 262.114 104.17 262.511 104.21C262.93 104.254 263.165 104.637 263.13 104.971Z" fill="#263238"/>
<path d="M277.61 102.834L274.437 102.507L274.003 106.724L273.314 106.653L273.748 102.436L265.357 101.571L265.409 101.07L274.506 92.0088L275.32 92.0925L266.34 101.039L273.812 101.809L274.195 98.0937L274.884 98.1648L274.502 101.88L277.674 102.207L277.61 102.834Z" fill="#263238"/>
<path d="M288.455 104.036C288.21 106.415 286.371 108.082 283.052 107.74C280.902 107.519 279.025 106.481 278.209 105.195L278.657 104.735C279.383 105.886 281.052 106.88 283.118 107.094C285.978 107.388 287.531 106.029 287.745 103.963C287.978 101.708 286.779 100.234 282.604 99.8046L279.765 99.5121L281.247 92.7036L288.782 93.4803L288.716 94.1274L281.765 93.411L280.562 98.9406L282.816 99.1728C287.284 99.6327 288.721 101.447 288.455 104.036Z" fill="#263238"/>
<path d="M128.811 403.353L123.089 424.51L141.686 426.208L145.595 406.066L128.811 403.353Z" fill="#EFA71F"/>
<path d="M142.226 424.484C142.22 424.553 141.179 424.528 139.503 424.392C137.827 424.258 135.518 424.002 132.978 423.675C130.53 423.347 128.315 423.05 126.478 422.802C124.817 422.57 123.789 422.411 123.796 422.338C123.802 422.268 124.844 422.298 126.518 422.438C128.194 422.576 130.502 422.834 133.043 423.16C135.491 423.486 137.705 423.781 139.542 424.027C141.205 424.257 142.233 424.41 142.226 424.484Z" fill="#263238"/>
<g opacity="0.6">
<path d="M123.089 424.51L141.686 426.208L141.987 424.657L123.627 422.323L123.108 424.301" fill="white"/>
</g>
<path d="M132.328 423.569C132.211 423.54 133.002 419.91 134.096 415.463C135.19 411.014 136.172 407.431 136.289 407.46C136.406 407.489 135.615 411.117 134.52 415.566C133.427 420.015 132.445 423.598 132.328 423.569Z" fill="#263238"/>
<path d="M141.198 424.346C141.085 424.342 141.791 422.828 141.241 420.413C140.957 419.236 140.339 417.866 139.206 416.732C138.089 415.589 136.416 414.794 134.577 414.606C132.736 414.428 130.942 414.873 129.596 415.738C128.234 416.591 127.297 417.757 126.7 418.814C125.517 420.983 125.632 422.615 125.527 422.588C125.511 422.588 125.502 422.492 125.5 422.307C125.49 422.123 125.506 421.851 125.543 421.502C125.621 420.806 125.855 419.798 126.428 418.668C127.011 417.555 127.959 416.316 129.38 415.398C130.788 414.466 132.682 413.983 134.62 414.171C136.555 414.368 138.324 415.223 139.492 416.449C140.674 417.666 141.286 419.115 141.542 420.347C141.787 421.593 141.701 422.633 141.548 423.317C141.468 423.66 141.393 423.922 141.32 424.092C141.253 424.265 141.212 424.352 141.198 424.346Z" fill="#263238"/>
<path d="M205.529 400.944L204.425 417.605C204.425 417.605 221.009 423.109 221.104 426.208L188.703 426.442L189.357 400.411L205.529 400.944Z" fill="#EFA71F"/>
<g opacity="0.6">
<path d="M194.454 415.899C193.822 416.051 193.368 416.743 193.494 417.38C193.62 418.018 194.319 418.487 194.954 418.345C195.588 418.204 196.159 417.39 195.962 416.771C195.765 416.152 194.914 415.647 194.332 415.936" fill="white"/>
</g>
<g opacity="0.6">
<path d="M188.703 426.443L188.871 423.821L220.064 424.682C220.064 424.682 221.104 425.131 221.27 426.443H188.703Z" fill="white"/>
</g>
<path d="M204.955 417.457C204.945 417.615 204.152 417.663 203.359 418.147C202.552 418.612 202.13 419.284 201.987 419.217C201.842 419.182 202.107 418.244 203.078 417.674C204.043 417.095 204.994 417.313 204.955 417.457Z" fill="#263238"/>
<path d="M208.309 418.964C208.34 419.118 207.647 419.367 207.09 420.019C206.513 420.655 206.356 421.375 206.199 421.363C206.05 421.384 205.968 420.454 206.677 419.656C207.378 418.851 208.31 418.813 208.309 418.964Z" fill="#263238"/>
<path d="M210.115 423.087C209.97 423.117 209.774 422.32 210.207 421.466C210.633 420.61 211.388 420.29 211.451 420.424C211.537 420.557 211.043 421.007 210.698 421.713C210.338 422.411 210.272 423.077 210.115 423.087Z" fill="#263238"/>
<path d="M204.785 413.632C204.715 413.774 203.996 413.534 203.1 413.567C202.204 413.582 201.499 413.861 201.421 413.724C201.333 413.607 202.029 413.041 203.085 413.017C204.14 412.984 204.867 413.509 204.785 413.632Z" fill="#263238"/>
<g opacity="0.3">
<path d="M205.306 404.243L205.114 407.213L189.203 406.587L189.263 403.907L205.306 404.243Z" fill="black"/>
</g>
<path d="M204.946 410.266C204.946 410.332 204.318 410.41 203.324 410.208C202.83 410.108 202.25 409.927 201.643 409.636C201.341 409.49 201.032 409.317 200.727 409.114C200.58 409.013 200.407 408.911 200.249 408.718C200.079 408.548 199.992 408.125 200.202 407.875C200.376 407.631 200.672 407.533 200.906 407.534C201.145 407.534 201.337 407.588 201.512 407.637C201.87 407.735 202.204 407.866 202.51 408.013C203.12 408.313 203.612 408.685 203.976 409.04C204.706 409.758 204.945 410.357 204.889 410.386C204.817 410.436 204.466 409.929 203.719 409.332C203.346 409.035 202.868 408.724 202.297 408.473C202.01 408.349 201.702 408.24 201.374 408.158C201.034 408.057 200.742 408.047 200.65 408.196C200.616 408.254 200.611 408.276 200.679 408.379C200.75 408.473 200.887 408.569 201.031 408.668C201.312 408.864 201.595 409.035 201.874 409.184C202.43 409.481 202.964 409.689 203.423 409.832C204.342 410.118 204.952 410.18 204.946 410.266Z" fill="#263238"/>
<path d="M204.733 410.486C204.676 410.509 204.379 409.933 204.352 408.907C204.34 408.398 204.412 407.785 204.627 407.138C204.736 406.816 204.881 406.488 205.069 406.166C205.269 405.852 205.513 405.431 206.129 405.379C206.449 405.376 206.708 405.635 206.792 405.851C206.893 406.074 206.908 406.263 206.941 406.451C206.989 406.831 206.97 407.201 206.908 407.543C206.786 408.229 206.486 408.794 206.165 409.198C205.506 410.018 204.841 410.187 204.829 410.133C204.779 410.052 205.339 409.763 205.848 408.972C206.099 408.581 206.327 408.064 206.407 407.463C206.447 407.165 206.453 406.846 206.405 406.526C206.365 406.18 206.244 405.898 206.114 405.93C205.953 405.923 205.672 406.174 205.531 406.444C205.357 406.729 205.215 407.021 205.103 407.31C204.882 407.889 204.777 408.447 204.739 408.92C204.669 409.868 204.82 410.465 204.733 410.486Z" fill="#263238"/>
<path d="M135.275 141.428C135.275 141.428 131.765 160.6 128.942 172.201C126.751 181.209 121.075 198.095 131.344 203.001C141.613 207.907 155.424 188.113 155.424 188.113L161.284 142.993C157.201 143.757 152.581 148.487 147.658 155.445L148.551 138.33L135.275 141.428Z" fill="#455A64"/>
<path d="M276.596 169.747L271.193 172.323L266.222 164.524L269.128 158.502C269.404 157.943 269.699 157.316 270.009 156.596C270.37 155.757 270.583 154.859 270.65 153.948C270.731 152.843 270.779 151.372 270.562 150.559C270.294 149.554 271.357 148.731 272.081 149.317C272.804 149.904 273.609 152.654 273.074 155.971C272.537 159.288 276.4 155.768 277.83 154.512C279.26 153.255 283.862 149.578 284.584 149.721C285.644 149.931 285.615 151.135 284.158 152.357C282.684 153.593 278.583 157.554 279.263 158.293C279.263 158.293 279.275 158.294 279.295 158.297C281.021 158.477 282.439 159.755 282.82 161.448C283.188 163.083 283.485 165.338 282.566 166.082C280.835 167.486 276.596 169.747 276.596 169.747Z" fill="#FFBE9D"/>
<path d="M171.886 97.0065L171.742 143.907L191.864 144.867L192.445 133.459C192.445 133.459 199.592 134.878 201.436 128.241C202.614 124.001 202.32 91.2339 202.32 91.2339L171.886 97.0065Z" fill="#FFBE9D"/>
<path d="M206.864 95.8599C205.509 98.6625 199.055 103.791 199.055 103.791L196.14 111.604C193.607 109.621 190.207 109.734 189.563 114.185C189.098 117.401 193.097 118.051 193.097 118.051C190.769 122.012 189.191 125.216 185.801 128.984C182.133 133.061 180.079 133.472 176.1 133.538H171.714C171.714 133.538 162.738 126.038 164.512 106.283C166.286 86.5278 184.046 92.2914 188.285 87.3558C195.188 79.3179 211.388 86.5044 206.864 95.8599Z" fill="#263238"/>
<path d="M165.509 122.801C165.509 122.801 165.703 122.794 166.071 122.801C166.437 122.783 166.981 122.768 167.664 122.618C169.023 122.348 170.95 121.551 172.818 119.888C174.704 118.243 176.368 115.737 178.043 112.896C178.895 111.479 179.787 109.984 180.865 108.534C181.944 107.092 183.216 105.678 184.814 104.599C186.408 103.51 188.203 102.869 189.944 102.413C191.693 101.958 193.41 101.678 195.031 101.363C198.267 100.767 201.174 99.8641 203.156 98.326C205.142 96.8059 206.133 94.9168 206.446 93.574C206.622 92.8981 206.622 92.3518 206.638 91.9864C206.619 91.6201 206.618 91.4257 206.618 91.4257C206.618 91.4257 206.644 91.6174 206.676 91.9855C206.672 92.3527 206.684 92.9053 206.517 93.5911C206.223 94.9537 205.239 96.8788 203.237 98.4313C201.239 100.004 198.305 100.926 195.064 101.533C193.441 101.853 191.727 102.137 189.99 102.59C188.26 103.046 186.487 103.681 184.919 104.754C183.346 105.817 182.085 107.213 181.012 108.644C179.94 110.082 179.047 111.571 178.192 112.985C176.507 115.822 174.823 118.338 172.906 119.987C171.011 121.652 169.054 122.438 167.679 122.688C166.99 122.828 166.44 122.831 166.072 122.837C165.702 122.819 165.509 122.801 165.509 122.801Z" fill="#455A64"/>
<path d="M164.473 106.733C164.473 106.733 164.791 106.61 165.405 106.404C166.019 106.208 166.933 105.893 168.161 105.749C169.364 105.612 170.998 105.666 172.478 106.682C173.196 107.18 173.846 107.976 174.018 108.982C174.192 109.957 173.975 111.142 173.131 111.921C172.715 112.307 172.142 112.525 171.554 112.555C170.96 112.583 170.366 112.389 169.835 112.094C168.779 111.485 167.928 110.433 167.535 109.182C167.114 107.944 167.042 106.541 167.36 105.185C167.673 103.829 168.422 102.524 169.529 101.551C170.622 100.57 172.05 99.8919 173.588 99.7344C175.13 99.5697 176.693 99.9081 178.213 100.333C179.738 100.76 181.272 101.253 182.889 101.454C184.501 101.67 186.164 101.679 187.82 101.466C189.471 101.238 191.099 100.848 192.564 100.154C194.009 99.4707 195.324 98.3403 195.744 96.822C196.162 95.3334 195.766 93.6387 194.688 92.6028C193.613 91.548 191.902 91.4076 190.624 92.0016C189.98 92.2941 189.427 92.7864 189.123 93.4065C188.8 94.0194 188.719 94.7277 188.801 95.3946C188.978 96.7383 189.78 97.9335 190.849 98.6166C191.924 99.315 193.181 99.5787 194.366 99.6057C195.559 99.6372 196.7 99.4203 197.742 99.099C199.838 98.4537 201.51 97.2801 202.736 96.057C203.98 94.8348 204.785 93.5406 205.317 92.439C205.864 91.3365 206.087 90.4014 206.261 89.7813C206.384 89.1468 206.457 88.8138 206.457 88.8138C206.457 88.8138 206.409 89.1504 206.298 89.7894C206.135 90.4149 205.923 91.3572 205.383 92.4705C204.858 93.5829 204.057 94.8915 202.81 96.1308C201.581 97.371 199.899 98.5644 197.781 99.2259C196.728 99.5553 195.574 99.7785 194.362 99.7506C193.159 99.7272 191.873 99.4635 190.764 98.7471C189.657 98.0415 188.825 96.8121 188.637 95.4153C188.551 94.7214 188.634 93.9771 188.973 93.3291C189.293 92.673 189.878 92.1519 190.552 91.8441C191.887 91.2222 193.672 91.3626 194.812 92.4732C195.945 93.5622 196.355 95.319 195.921 96.8715C195.482 98.4636 194.116 99.6255 192.646 100.322C191.152 101.029 189.513 101.422 187.844 101.652C186.172 101.868 184.492 101.858 182.864 101.64C181.229 101.435 179.681 100.937 178.163 100.511C176.649 100.086 175.11 99.7542 173.606 99.9135C172.109 100.065 170.712 100.724 169.643 101.681C167.434 103.592 166.855 106.73 167.682 109.134C168.062 110.355 168.886 111.376 169.907 111.97C170.418 112.256 170.987 112.442 171.549 112.417C172.105 112.39 172.649 112.186 173.042 111.823C173.844 111.091 174.066 109.947 173.901 109.004C173.74 108.034 173.118 107.261 172.418 106.768C170.976 105.766 169.365 105.697 168.17 105.822C166.949 105.953 166.035 106.256 165.416 106.44C164.799 106.633 164.473 106.733 164.473 106.733Z" fill="#455A64"/>
<path d="M151.21 234.407L124.423 410.333L146.67 413.158L178.06 265.595L185.964 414.149L210.076 413.727L206.079 234.819L151.21 234.407Z" fill="#263238"/>
<path d="M185.538 414.607L185.514 414.173L177.791 269.019L147.024 413.655L123.909 410.721L150.823 233.953L206.518 234.373L210.535 414.169L185.538 414.607ZM178.33 262.17L186.391 413.69L209.616 413.285L205.639 235.265L151.597 234.859L124.939 409.945L146.317 412.659L178.33 262.17Z" fill="#263238"/>
<path d="M202.911 413.446C202.782 413.446 202.677 378.196 202.677 334.724C202.677 291.237 202.783 255.995 202.911 255.995C203.041 255.995 203.145 291.236 203.145 334.724C203.145 378.196 203.04 413.446 202.911 413.446Z" fill="#455A64"/>
<path d="M141.776 412.805C141.768 412.803 141.787 412.673 141.83 412.422C141.88 412.15 141.947 411.781 142.034 411.308C142.227 410.306 142.505 408.871 142.861 407.032C143.61 403.301 144.687 397.941 146.015 391.329C148.716 378.076 152.543 359.789 156.935 339.627C161.33 319.458 165.46 301.234 168.517 288.059C170.06 281.494 171.311 276.173 172.182 272.469C172.624 270.65 172.968 269.228 173.209 268.237C173.327 267.772 173.419 267.407 173.487 267.139C173.552 266.892 173.589 266.766 173.597 266.768C173.606 266.77 173.584 266.899 173.534 267.15C173.477 267.421 173.399 267.788 173.3 268.258C173.08 269.254 172.764 270.682 172.359 272.51C171.523 276.223 170.321 281.554 168.84 288.134C165.866 301.326 161.789 319.56 157.393 339.727C153.001 359.887 149.124 378.162 146.34 391.396C144.95 397.996 143.825 403.345 143.04 407.069C142.647 408.9 142.34 410.33 142.127 411.327C142.022 411.796 141.939 412.162 141.878 412.432C141.818 412.68 141.784 412.807 141.776 412.805Z" fill="#455A64"/>
<path d="M185.964 265.439C185.966 265.471 185.603 265.517 184.947 265.574C184.19 265.627 183.262 265.693 182.167 265.77C179.82 265.927 176.575 266.088 173.01 266.437C169.445 266.792 166.23 267.269 163.897 267.575C162.808 267.714 161.885 267.831 161.132 267.927C160.478 268.001 160.114 268.026 160.109 267.994C160.104 267.961 160.459 267.875 161.105 267.746C161.75 267.617 162.688 267.447 163.848 267.248C166.168 266.858 169.381 266.328 172.964 265.971C176.546 265.621 179.8 265.512 182.152 265.44C183.328 265.408 184.28 265.391 184.939 265.392C185.598 265.391 185.963 265.406 185.964 265.439Z" fill="#455A64"/>
<path d="M206.546 254.014C206.55 254.043 206.307 254.116 205.853 254.189C205.401 254.263 204.735 254.315 203.912 254.275C202.278 254.21 199.963 253.657 197.894 252.171C195.825 250.682 194.564 248.665 193.98 247.136C193.68 246.369 193.518 245.721 193.443 245.269C193.368 244.816 193.36 244.562 193.388 244.558C193.471 244.54 193.625 245.544 194.286 247.008C194.931 248.461 196.187 250.366 198.168 251.79C200.15 253.213 202.354 253.796 203.938 253.945C205.535 254.104 206.536 253.931 206.546 254.014Z" fill="#455A64"/>
<path d="M146.63 237.858L208.256 237.659L204.885 196.989C204.512 187.683 204.568 186.573 204.338 177.981C204.338 177.981 213.087 188.559 219.966 195.977C224.123 200.46 230.714 201.712 236.241 199.098L272.247 173.979L265.505 156.731L232.784 176.76C231.286 175.829 218.545 157.658 209.741 148.784C204.107 143.105 196.511 139.837 188.515 139.604C182.463 139.427 175.159 139.707 168.638 140.401C158.721 141.456 150.962 149.42 150.13 159.358C149.493 166.963 150.005 175.791 150.005 190.796L146.63 237.858Z" fill="#455A64"/>
<path d="M149.527 163.47C149.527 163.47 149.537 163.634 149.537 163.945C149.535 164.309 149.531 164.759 149.529 165.307C149.512 166.489 149.513 168.2 149.525 170.313C149.549 174.542 149.72 180.38 149.901 186.83C150.084 193.282 150.118 199.13 149.956 203.358C149.882 205.472 149.789 207.181 149.69 208.36C149.645 208.905 149.609 209.354 149.578 209.717C149.55 210.028 149.527 210.19 149.527 210.19C149.527 210.19 149.525 210.026 149.54 209.714C149.561 209.351 149.586 208.902 149.617 208.355C149.693 207.176 149.767 205.466 149.824 203.354C149.952 199.129 149.897 193.287 149.714 186.836C149.532 180.387 149.382 174.545 149.393 170.314C149.397 168.199 149.416 166.487 149.456 165.306C149.473 164.759 149.487 164.309 149.499 163.944C149.511 163.633 149.527 163.47 149.527 163.47Z" fill="#263238"/>
<path d="M231.435 182.581C231.41 182.577 231.461 182.254 231.565 181.734C231.668 181.214 231.825 180.499 232.008 179.711C232.192 178.923 232.369 178.213 232.506 177.701C232.643 177.189 232.74 176.876 232.765 176.883C232.79 176.891 232.738 177.216 232.635 177.735C232.531 178.254 232.375 178.968 232.192 179.754C232.008 180.539 231.832 181.248 231.695 181.76C231.558 182.272 231.46 182.587 231.435 182.581Z" fill="#263238"/>
<path d="M234.716 183.086C234.665 183.098 234.291 181.646 233.88 179.845C233.469 178.043 233.177 176.574 233.228 176.562C233.278 176.55 233.653 178.001 234.063 179.803C234.474 181.605 234.767 183.074 234.716 183.086Z" fill="#263238"/>
<path d="M205.858 179.507C205.858 179.507 205.737 179.405 205.52 179.198C205.267 178.952 204.956 178.65 204.58 178.285C203.768 177.486 202.595 176.329 201.198 174.847C199.807 173.361 198.184 171.549 196.601 169.364C195.025 167.182 193.488 164.608 192.421 161.676C191.339 158.752 190.877 155.754 191.043 153.054C191.166 150.362 191.678 147.932 192.593 146.094C193.489 144.244 194.714 143.05 195.62 142.371C196.082 142.035 196.45 141.789 196.717 141.649C196.977 141.499 197.117 141.429 197.117 141.429C197.136 141.459 196.561 141.731 195.664 142.429C194.778 143.122 193.582 144.316 192.712 146.152C191.822 147.976 191.328 150.384 191.215 153.062C191.061 155.741 191.523 158.707 192.596 161.611C193.656 164.524 195.178 167.084 196.741 169.262C198.31 171.444 199.918 173.26 201.294 174.756C202.676 176.247 203.835 177.419 204.63 178.233C204.997 178.608 205.299 178.917 205.546 179.17C205.755 179.386 205.858 179.507 205.858 179.507Z" fill="#263238"/>
<path d="M165.798 162.772C165.696 162.852 164.75 161.827 163.683 160.483C162.617 159.137 161.834 157.982 161.936 157.901C162.038 157.821 162.984 158.846 164.051 160.192C165.118 161.537 165.9 162.692 165.798 162.772Z" fill="#FAFAFA"/>
<path d="M179.805 178.668C179.897 178.76 178.589 180.213 176.885 181.912C175.181 183.612 173.726 184.916 173.634 184.824C173.543 184.732 174.85 183.281 176.554 181.58C178.258 179.88 179.713 178.576 179.805 178.668Z" fill="#FAFAFA"/>
<path d="M193.359 201.479C193.226 201.52 192.732 200.129 191.818 198.579C190.914 197.021 189.944 195.909 190.044 195.814C190.125 195.725 191.283 196.727 192.222 198.342C193.171 199.952 193.477 201.452 193.359 201.479Z" fill="#FAFAFA"/>
<path d="M158.221 198.896C158.112 198.943 157.226 196.986 156.776 194.391C156.315 191.797 156.481 189.655 156.6 189.663C156.74 189.664 156.785 191.769 157.238 194.31C157.676 196.853 158.351 198.848 158.221 198.896Z" fill="#FAFAFA"/>
<path d="M176.88 208.941C176.771 208.989 176.05 207.336 175.861 205.143C175.658 202.952 176.073 201.197 176.189 201.224C176.328 201.244 176.13 202.979 176.327 205.101C176.51 207.224 177.013 208.897 176.88 208.941Z" fill="#FAFAFA"/>
<path d="M169.501 223.537C169.432 223.646 167.537 222.585 165.268 221.167C162.998 219.749 161.214 218.509 161.284 218.399C161.352 218.29 163.247 219.351 165.516 220.769C167.785 222.188 169.569 223.428 169.501 223.537Z" fill="#FAFAFA"/>
<path d="M198.515 219.219C198.572 219.345 196.484 220.382 194.063 221.916C191.636 223.44 189.801 224.879 189.713 224.772C189.632 224.682 191.354 223.065 193.813 221.519C196.267 219.966 198.469 219.108 198.515 219.219Z" fill="#FAFAFA"/>
<path d="M162.022 235.716C161.996 235.843 159.963 235.545 157.482 235.05C155 234.554 153.008 234.05 153.033 233.923C153.059 233.796 155.091 234.095 157.574 234.59C160.055 235.085 162.047 235.59 162.022 235.716Z" fill="#FAFAFA"/>
<path d="M181.473 232.549C181.382 232.63 180.268 231.463 179.331 229.724C178.386 227.989 178.017 226.418 178.134 226.386C178.265 226.344 178.822 227.812 179.743 229.501C180.655 231.194 181.58 232.464 181.473 232.549Z" fill="#FAFAFA"/>
<path d="M203.363 234.074C203.462 234.157 202.835 235.071 201.962 236.117C201.089 237.162 200.3 237.942 200.201 237.859C200.102 237.776 200.729 236.862 201.602 235.816C202.476 234.771 203.264 233.99 203.363 234.074Z" fill="#FAFAFA"/>
<path d="M163.325 172.205C163.397 172.313 162.593 172.976 161.53 173.686C160.467 174.396 159.547 174.884 159.475 174.776C159.403 174.669 160.206 174.006 161.269 173.296C162.333 172.587 163.254 172.098 163.325 172.205Z" fill="#FAFAFA"/>
<path d="M178.514 155.239C178.395 155.28 177.594 153.229 176.894 150.61C176.189 147.991 175.857 145.814 175.982 145.789C176.112 145.763 176.647 147.884 177.348 150.488C178.042 153.091 178.64 155.197 178.514 155.239Z" fill="#FAFAFA"/>
<path d="M193.1 170.686C193.045 170.812 191.731 170.307 190.043 169.99C188.357 169.662 186.95 169.646 186.944 169.508C186.932 169.387 188.38 169.189 190.131 169.529C191.884 169.861 193.156 170.579 193.1 170.686Z" fill="#FAFAFA"/>
<path d="M203.126 157.564C203.147 157.683 201.595 157.975 199.692 157.676C197.787 157.389 196.394 156.643 196.45 156.537C196.503 156.409 197.929 156.938 199.764 157.213C201.595 157.502 203.114 157.425 203.126 157.564Z" fill="#FAFAFA"/>
<path d="M213.385 172.201C213.263 172.202 213.188 169.959 213.634 167.238C214.07 164.515 214.849 162.411 214.964 162.45C215.096 162.49 214.526 164.628 214.097 167.313C213.656 169.996 213.522 172.204 213.385 172.201Z" fill="#FAFAFA"/>
<path d="M225.437 189.437C225.345 189.527 223.911 188.199 222.236 186.471C220.561 184.743 219.279 183.269 219.371 183.179C219.464 183.089 220.897 184.416 222.573 186.144C224.248 187.873 225.53 189.347 225.437 189.437Z" fill="#FAFAFA"/>
<path d="M235.469 188.114C235.578 188.184 234.853 189.5 233.852 191.055C232.85 192.609 231.949 193.812 231.841 193.742C231.732 193.672 232.456 192.355 233.458 190.801C234.46 189.247 235.36 188.043 235.469 188.114Z" fill="#FAFAFA"/>
<path d="M247.1 182.444C246.984 182.5 246.115 180.95 245.159 178.98C244.203 177.011 243.523 175.369 243.64 175.312C243.756 175.255 244.625 176.806 245.581 178.775C246.537 180.744 247.217 182.387 247.1 182.444Z" fill="#FAFAFA"/>
<path d="M262.945 175.889C262.922 176.017 261.071 175.794 258.81 175.392C256.549 174.99 254.735 174.561 254.758 174.434C254.78 174.307 256.631 174.529 258.892 174.931C261.153 175.333 262.967 175.761 262.945 175.889Z" fill="#FAFAFA"/>
<path d="M137.12 192.741C137.003 192.686 137.75 190.85 138.791 188.641C139.831 186.431 140.77 184.685 140.887 184.74C141.004 184.795 140.256 186.631 139.216 188.841C138.175 191.049 137.237 192.796 137.12 192.741Z" fill="#FAFAFA"/>
<path d="M145.517 177.927C145.421 178.014 144.201 176.812 142.791 175.245C141.382 173.677 140.317 172.336 140.414 172.249C140.51 172.163 141.73 173.363 143.14 174.932C144.549 176.5 145.614 177.841 145.517 177.927Z" fill="#FAFAFA"/>
<path d="M144.822 201.72C144.905 201.82 144.281 202.474 143.429 203.182C142.577 203.891 141.82 204.384 141.737 204.284C141.655 204.184 142.278 203.53 143.131 202.821C143.981 202.114 144.739 201.621 144.822 201.72Z" fill="#FAFAFA"/>
<path d="M147.658 162.186C147.758 162.267 147.38 162.907 146.813 163.617C146.246 164.326 145.705 164.835 145.603 164.754C145.502 164.673 145.88 164.033 146.447 163.324C147.014 162.615 147.556 162.105 147.658 162.186Z" fill="#FAFAFA"/>
<g opacity="0.3">
<path d="M194.694 166.279C198.5 178.239 201.439 190.794 205.245 202.754L204.338 177.98C200.809 174.724 197.6 170.814 194.694 166.279Z" fill="black"/>
</g>
<path d="M132.767 181.929C132.761 181.926 132.801 181.824 132.883 181.634C132.989 181.393 133.11 181.12 133.25 180.805C133.569 180.086 134.051 179.053 134.661 177.785C135.88 175.248 137.65 171.781 139.766 168.042C141.887 164.303 143.951 161.003 145.501 158.653C146.275 157.477 146.914 156.533 147.367 155.89C147.566 155.608 147.738 155.364 147.89 155.149C148.011 154.981 148.077 154.894 148.082 154.898C148.088 154.902 148.032 154.995 147.92 155.17C147.777 155.39 147.614 155.641 147.427 155.929C146.949 156.666 146.34 157.603 145.613 158.724C144.093 161.091 142.048 164.398 139.93 168.133C137.816 171.868 136.031 175.322 134.781 177.843C134.195 179.043 133.703 180.047 133.317 180.836C133.166 181.146 133.034 181.414 132.919 181.651C132.825 181.835 132.773 181.93 132.767 181.929Z" fill="#263238"/>
<path d="M138.838 170.474C138.847 170.503 138.459 170.629 137.856 170.888C137.253 171.145 136.442 171.555 135.621 172.125C134.801 172.697 134.135 173.315 133.683 173.791C133.231 174.266 132.978 174.587 132.953 174.569C132.943 174.56 132.996 174.473 133.101 174.32C133.204 174.166 133.369 173.954 133.585 173.702C134.016 173.198 134.68 172.553 135.514 171.972C136.349 171.392 137.184 170.995 137.806 170.766C138.118 170.651 138.374 170.57 138.554 170.527C138.734 170.48 138.835 170.461 138.838 170.474Z" fill="#263238"/>
<path d="M139.685 152.012C139.791 152.087 138.565 153.96 136.949 156.195C135.333 158.43 133.938 160.18 133.833 160.104C133.727 160.028 134.953 158.155 136.57 155.92C138.185 153.687 139.581 151.936 139.685 152.012Z" fill="#FAFAFA"/>
<path d="M146.184 137.372C147.046 137.646 147.968 137.045 148.47 136.292C148.973 135.539 149.206 134.638 149.653 133.851C150.99 131.497 154.032 130.474 155.255 128.059C155.425 127.723 155.531 127.254 155.238 127.016C154.967 126.796 154.566 126.945 154.253 127.102C151.581 128.44 148.908 129.778 146.236 131.117" fill="#FFBE9D"/>
<path d="M146.237 131.116C146.221 131.084 146.515 130.9 147.06 130.593C147.604 130.286 148.4 129.857 149.387 129.336C150.419 128.802 151.591 128.194 152.869 127.532C153.2 127.364 153.536 127.192 153.879 127.017C154.212 126.878 154.584 126.549 155.186 126.704C155.482 126.796 155.677 127.128 155.675 127.397C155.686 127.668 155.612 127.898 155.515 128.113C155.309 128.51 155.079 128.88 154.792 129.22C153.649 130.586 152.212 131.414 151.157 132.401C150.622 132.886 150.169 133.398 149.849 133.942C149.529 134.484 149.318 135.06 149.069 135.571C148.615 136.625 147.811 137.303 147.169 137.451C146.515 137.617 146.165 137.384 146.184 137.374C146.191 137.323 146.542 137.469 147.108 137.262C147.675 137.061 148.342 136.447 148.739 135.42C148.96 134.919 149.15 134.331 149.48 133.731C149.81 133.131 150.286 132.57 150.835 132.055C151.919 131.013 153.342 130.163 154.395 128.896C154.66 128.586 154.874 128.237 155.052 127.898C155.215 127.563 155.209 127.217 155.013 127.174C154.807 127.094 154.438 127.278 154.096 127.454C153.751 127.624 153.411 127.79 153.079 127.953C151.782 128.58 150.594 129.155 149.548 129.659C148.54 130.138 147.72 130.518 147.148 130.771C146.577 131.023 146.253 131.147 146.237 131.116Z" fill="#EB996E"/>
<path d="M397.442 378.347H340.477V386.174H397.442V378.347Z" fill="#263238"/>
<path d="M397.54 386.272H340.38V378.249H397.54V386.272ZM340.574 386.077H397.345V378.444H340.574V386.077Z" fill="#263238"/>
<path d="M345.758 383.569L353.958 424.021H384.297L392.224 386.175L345.758 383.569Z" fill="#263238"/>
<path d="M345.758 420.195L350.132 426.207H387.009L392.224 420.195H345.758Z" fill="#455A64"/>
<path d="M366.82 384.751C366.709 384.751 366.565 366.011 366.5 342.898C366.435 319.778 366.473 301.041 366.585 301.041C366.697 301.041 366.841 319.777 366.906 342.897C366.97 366.009 366.933 384.75 366.82 384.751Z" fill="#263238"/>
<path d="M379.51 337.853C379.523 337.859 379.47 338.009 379.357 338.288C379.224 338.606 379.056 339.007 378.849 339.502C378.735 339.769 378.611 340.06 378.477 340.375C378.359 340.705 378.233 341.059 378.097 341.438C377.959 341.822 377.813 342.229 377.658 342.659C377.506 343.092 377.386 343.563 377.237 344.05C376.615 345.992 376.12 348.375 375.644 351.025C375.229 353.688 374.918 356.638 374.762 359.747C374.485 365.971 374.837 371.614 375.212 375.68C375.395 377.714 375.58 379.357 375.715 380.492C375.773 381.024 375.821 381.458 375.859 381.801C375.888 382.1 375.896 382.259 375.881 382.261C375.868 382.263 375.832 382.109 375.778 381.812C375.72 381.471 375.647 381.042 375.558 380.514C375.375 379.384 375.146 377.743 374.926 375.709C374.476 371.642 374.078 365.981 374.356 359.728C374.513 356.605 374.837 353.64 375.275 350.964C375.774 348.301 376.302 345.91 376.962 343.966C377.122 343.479 377.251 343.008 377.414 342.576C377.58 342.148 377.737 341.742 377.885 341.359C378.032 340.983 378.169 340.63 378.297 340.303C378.437 339.984 378.581 339.699 378.703 339.439C378.939 338.958 379.13 338.566 379.282 338.254C379.42 337.984 379.498 337.846 379.51 337.853Z" fill="#263238"/>
<path d="M378.054 322.696C378.067 322.701 378.005 322.914 377.873 323.314C377.726 323.748 377.528 324.328 377.28 325.057C377.148 325.437 377.003 325.857 376.844 326.312C376.703 326.78 376.55 327.285 376.386 327.826C376.053 328.91 375.667 330.142 375.323 331.529C375.141 332.221 374.951 332.943 374.752 333.696C374.581 334.456 374.403 335.247 374.218 336.065C373.82 337.696 373.533 339.468 373.166 341.32C372.539 345.042 371.985 349.157 371.604 353.497C371.244 357.84 371.087 361.991 371.032 365.767C371.02 369.544 371.069 372.946 371.224 375.799C371.274 377.226 371.366 378.516 371.439 379.648C371.505 380.781 371.576 381.756 371.648 382.552C371.706 383.32 371.753 383.931 371.787 384.387C371.815 384.808 371.822 385.029 371.809 385.031C371.795 385.033 371.76 384.814 371.706 384.396C371.652 383.941 371.581 383.332 371.491 382.567C371.395 381.772 371.3 380.798 371.213 379.665C371.118 378.533 371.006 377.243 370.938 375.813C370.746 372.957 370.668 369.549 370.659 365.764C370.693 361.979 370.84 357.817 371.2 353.461C371.582 349.109 372.148 344.983 372.798 341.253C373.177 339.398 373.477 337.623 373.891 335.99C374.083 335.171 374.269 334.38 374.449 333.618C374.656 332.866 374.856 332.143 375.047 331.452C375.409 330.067 375.816 328.837 376.17 327.756C376.346 327.217 376.51 326.714 376.662 326.249C376.832 325.796 376.989 325.381 377.132 325.003C377.41 324.283 377.632 323.711 377.797 323.284C377.952 322.894 378.041 322.691 378.054 322.696Z" fill="#263238"/>
<path d="M363.218 388.065C363.21 388.065 363.2 387.992 363.185 387.847C363.171 387.679 363.154 387.466 363.131 387.202C363.091 386.606 363.035 385.775 362.964 384.721C362.827 382.535 362.633 379.424 362.392 375.592C361.898 367.887 361.183 357.24 359.886 345.532C359.223 339.679 358.455 334.12 357.656 329.079C357.231 326.563 356.846 324.168 356.409 321.942C356.009 319.708 355.577 317.639 355.179 315.751C354.804 313.857 354.387 312.161 354.051 310.665C353.721 309.168 353.402 307.886 353.135 306.84C352.884 305.814 352.686 305.006 352.544 304.426C352.485 304.168 352.437 303.96 352.4 303.795C352.369 303.652 352.357 303.578 352.364 303.576C352.371 303.574 352.396 303.645 352.439 303.784C352.487 303.946 352.547 304.15 352.622 304.405C352.782 304.982 353.004 305.784 353.288 306.802C353.579 307.842 353.921 309.119 354.272 310.613C354.629 312.106 355.066 313.798 355.459 315.69C355.874 317.577 356.324 319.646 356.738 321.88C357.19 324.107 357.589 326.502 358.024 329.019C358.844 334.063 359.625 339.627 360.288 345.487C361.586 357.207 362.256 367.864 362.678 375.576C362.887 379.433 363.032 382.555 363.12 384.713C363.159 385.769 363.19 386.6 363.212 387.199C363.218 387.464 363.222 387.677 363.226 387.846C363.227 387.991 363.225 388.065 363.218 388.065Z" fill="#263238"/>
<path d="M366.356 310.05C366.108 307.395 363.425 305.392 360.759 305.364C358.092 305.337 355.607 306.936 353.976 309.045C352.346 311.155 351.446 313.731 350.71 316.294C348.915 322.549 347.933 329.12 348.701 335.583C349.468 342.045 352.09 348.407 356.728 352.973C357.482 353.715 358.458 354.458 359.492 354.236C360.059 354.116 360.522 353.722 360.951 353.334C370.06 345.106 375.321 332.781 374.96 320.511C374.888 318.054 374.565 315.496 373.204 313.449C371.845 311.402 368.672 309.227 366.356 310.05Z" fill="#EFA71F"/>
<path d="M346.446 288.785C345.194 291.052 343.942 293.319 342.69 295.586C342.603 295.744 342.487 295.923 342.306 295.937C342.109 295.953 341.961 295.767 341.853 295.601C338.544 290.522 335.235 285.443 331.924 280.364L334.212 279.068L346.446 288.785Z" fill="#EFA71F"/>
<g opacity="0.2">
<path d="M346.446 288.785C345.194 291.052 343.942 293.319 342.69 295.586C342.603 295.744 342.487 295.923 342.306 295.937C342.109 295.953 341.961 295.767 341.853 295.601C338.544 290.522 335.235 285.443 331.924 280.364L334.212 279.068L346.446 288.785Z" fill="black"/>
</g>
<path d="M366.585 301.04C355.296 294.378 344.007 287.716 332.717 281.055C332.372 280.85 331.997 280.61 331.893 280.223C331.758 279.722 332.134 279.238 332.495 278.866C337.153 274.061 343.919 271.274 350.594 271.755C357.269 272.236 363.688 276.091 366.957 281.931C370.226 287.772 370.334 295.496 366.585 301.04Z" fill="#EFA71F"/>
<path d="M337.598 274.675C337.597 274.661 337.75 274.643 338.042 274.621C338.333 274.606 338.765 274.553 339.322 274.559C340.434 274.532 342.052 274.605 344.02 274.933C345.988 275.256 348.299 275.89 350.713 276.966C353.126 278.037 355.622 279.589 357.897 281.627C360.152 283.687 361.945 286.017 363.252 288.312C364.564 290.607 365.423 292.844 365.942 294.769C366.464 296.695 366.698 298.298 366.781 299.407C366.843 299.961 366.818 300.103 366.833 300.395C366.839 300.687 366.585 301.133 366.572 301.134C366.536 301.135 366.759 300.522 366.624 299.424C366.493 298.326 366.217 296.743 365.665 294.847C364.594 291.075 362.109 285.99 357.624 281.928C353.137 277.872 347.829 275.905 343.969 275.215C342.028 274.855 340.426 274.739 339.32 274.718C338.215 274.693 337.6 274.711 337.598 274.675Z" fill="#263238"/>
<path d="M362.001 287.247C362.02 287.298 361.368 287.599 360.289 288.025C359.21 288.451 357.702 288.994 356.016 289.53C354.328 290.065 352.783 290.492 351.656 290.766C350.529 291.042 349.823 291.171 349.808 291.118C349.794 291.063 350.474 290.835 351.579 290.49C352.827 290.1 354.283 289.645 355.892 289.143C357.496 288.625 358.948 288.156 360.192 287.755C361.293 287.399 361.981 287.193 362.001 287.247Z" fill="#263238"/>
<path d="M356.668 272.92C356.777 272.911 357.017 274.599 357.069 276.699C357.124 278.798 356.969 280.497 356.86 280.492C356.746 280.488 356.718 278.794 356.663 276.709C356.611 274.624 356.554 272.93 356.668 272.92Z" fill="#263238"/>
<path d="M332.421 280.676C332.405 280.624 333.343 280.284 334.882 279.81C336.421 279.336 338.564 278.735 340.952 278.159C343.342 277.584 345.523 277.143 347.109 276.864C348.695 276.585 349.684 276.461 349.694 276.515C349.705 276.572 348.735 276.796 347.166 277.146C345.597 277.496 343.431 277.98 341.048 278.554C338.665 279.128 336.516 279.683 334.961 280.086C333.404 280.489 332.438 280.732 332.421 280.676Z" fill="#263238"/>
<path d="M352.299 304.289C349.386 302.08 346.306 301.645 342.653 301.79C339 301.935 335.445 303.047 332.096 304.514C326.386 307.015 321.017 310.702 317.605 315.92C314.193 321.138 313.006 328.045 315.561 333.732C315.815 334.299 316.147 334.892 316.717 335.136C317.318 335.393 318.007 335.192 318.629 334.989C325.124 332.87 331.665 330.731 337.638 327.413C343.61 324.094 349.046 319.482 352.251 313.448C353.02 312 353.663 310.449 353.789 308.814C353.914 307.181 353.463 305.444 352.299 304.289Z" fill="#EFA71F"/>
<path d="M352.357 303.604C352.361 303.618 352.2 303.682 351.89 303.794C351.539 303.915 351.087 304.07 350.529 304.262C350.229 304.362 349.9 304.472 349.544 304.59C349.186 304.719 348.806 304.879 348.393 305.039C347.571 305.372 346.617 305.703 345.613 306.191C345.104 306.422 344.572 306.664 344.02 306.916C343.467 307.171 342.916 307.485 342.332 307.782C341.155 308.361 339.963 309.099 338.695 309.848C336.205 311.422 333.57 313.318 331.005 315.552C328.461 317.812 326.246 320.185 324.366 322.455C323.462 323.617 322.577 324.705 321.853 325.799C321.484 326.34 321.103 326.847 320.78 327.362C320.459 327.879 320.152 328.375 319.857 328.85C319.245 329.784 318.795 330.689 318.361 331.461C318.149 331.851 317.942 332.208 317.769 332.545C317.606 332.884 317.455 333.195 317.318 333.481C317.056 334.011 316.845 334.438 316.68 334.771C316.53 335.064 316.445 335.216 316.433 335.21C316.42 335.205 316.48 335.042 316.606 334.738C316.752 334.396 316.941 333.957 317.175 333.413C317.304 333.122 317.444 332.804 317.597 332.459C317.759 332.114 317.958 331.751 318.16 331.355C318.577 330.569 319.013 329.651 319.612 328.701C319.9 328.22 320.203 327.716 320.517 327.192C320.836 326.669 321.212 326.155 321.578 325.606C322.294 324.498 323.175 323.395 324.077 322.218C325.953 319.92 328.177 317.522 330.738 315.246C333.321 312.996 335.983 311.096 338.501 309.529C339.783 308.784 340.988 308.051 342.179 307.482C342.77 307.19 343.327 306.881 343.887 306.632C344.447 306.387 344.984 306.151 345.499 305.926C346.516 305.453 347.483 305.138 348.315 304.824C348.734 304.674 349.12 304.524 349.483 304.406C349.844 304.299 350.177 304.2 350.482 304.11C351.051 303.947 351.511 303.816 351.869 303.714C352.184 303.629 352.353 303.591 352.357 303.604Z" fill="#263238"/>
<path d="M329.601 315.925C329.632 316.033 326.46 317.055 322.515 318.208C318.569 319.362 315.347 320.21 315.315 320.102C315.284 319.994 318.455 318.973 322.401 317.819C326.345 316.666 329.569 315.818 329.601 315.925Z" fill="#263238"/>
<path d="M329.309 331.561C329.254 331.562 329.19 330.718 329.153 329.353C329.116 327.989 329.11 326.101 329.168 324.019C329.226 321.935 329.338 320.052 329.451 318.691C329.565 317.33 329.675 316.492 329.73 316.496C329.788 316.499 329.778 317.344 329.738 318.707C329.692 320.203 329.635 322.02 329.573 324.03C329.522 326.039 329.477 327.856 329.44 329.352C329.404 330.717 329.366 331.561 329.309 331.561Z" fill="#263238"/>
<path d="M342.703 324.738C342.591 324.746 342.235 320.912 341.907 316.176C341.58 311.439 341.405 307.593 341.517 307.585C341.628 307.577 341.985 311.41 342.312 316.147C342.64 320.883 342.815 324.73 342.703 324.738Z" fill="#263238"/>
<path d="M326.03 307.212C326.033 307.156 326.901 307.134 328.302 307.144C329.702 307.154 331.636 307.194 333.77 307.265C335.904 307.335 337.836 307.423 339.234 307.506C340.632 307.588 341.497 307.668 341.496 307.724C341.495 307.78 340.628 307.803 339.228 307.793C337.828 307.783 335.893 307.741 333.756 307.671C331.62 307.6 329.687 307.514 328.289 307.431C326.891 307.347 326.028 307.268 326.03 307.212Z" fill="#263238"/>
<path d="M358.181 353.863C358.167 353.863 358.15 353.707 358.132 353.409C358.117 353.068 358.097 352.637 358.073 352.106C358.022 350.975 358.01 349.335 358.054 347.31C358.091 345.284 358.229 342.875 358.472 340.205C358.736 337.539 359.117 334.615 359.664 331.569C360.226 328.524 360.899 325.651 361.592 323.059C362.305 320.471 363.026 318.163 363.705 316.249C364.379 314.334 364.968 312.799 365.414 311.755C365.624 311.265 365.795 310.867 365.93 310.552C366.052 310.279 366.123 310.138 366.135 310.144C366.148 310.149 366.104 310.299 366.006 310.582C365.89 310.903 365.743 311.31 365.562 311.81C365.161 312.871 364.614 314.417 363.977 316.338C363.334 318.258 362.643 320.567 361.953 323.151C361.283 325.74 360.623 328.605 360.063 331.639C359.519 334.674 359.127 337.585 358.844 340.241C358.58 342.899 358.413 345.3 358.34 347.319C358.26 349.338 358.228 350.974 358.231 352.104C358.224 352.634 358.219 353.066 358.214 353.407C358.206 353.705 358.195 353.863 358.181 353.863Z" fill="#263238"/>
<path d="M359.968 331.689C360.005 331.728 359.493 332.298 358.617 333.172C357.74 334.046 356.496 335.218 355.077 336.463C353.657 337.708 352.331 338.788 351.35 339.542C350.369 340.297 349.737 340.73 349.703 340.687C349.667 340.642 350.236 340.13 351.168 339.32C352.209 338.416 353.444 337.343 354.81 336.158C356.163 334.96 357.388 333.876 358.42 332.962C359.345 332.143 359.927 331.647 359.968 331.689Z" fill="#263238"/>
<path d="M370.688 340.323C370.639 340.354 370.102 339.583 369.248 338.33C368.322 336.979 367.173 335.301 365.901 333.445C364.604 331.608 363.43 329.946 362.485 328.609C361.607 327.374 361.071 326.602 361.117 326.567C361.16 326.533 361.776 327.243 362.715 328.437C363.655 329.63 364.911 331.311 366.235 333.213C367.558 335.116 368.698 336.878 369.49 338.173C370.283 339.47 370.733 340.294 370.688 340.323Z" fill="#263238"/>
<path d="M365.072 313.166C365.132 313.26 361.571 315.658 357.119 318.52C352.665 321.383 349.006 323.627 348.946 323.533C348.886 323.438 352.445 321.042 356.899 318.179C361.352 315.316 365.011 313.071 365.072 313.166Z" fill="#263238"/>
<path d="M375.113 324.004C375.034 324.084 372.623 321.855 369.726 319.027C366.829 316.197 364.545 313.839 364.623 313.759C364.702 313.679 367.113 315.907 370.01 318.737C372.906 321.565 375.191 323.923 375.113 324.004Z" fill="#263238"/>
<path d="M377.638 323.786L380.695 323.533C382.864 323.353 384.971 322.711 386.869 321.643C387.806 321.115 388.749 320.598 389.746 320.197C393.525 318.68 397.742 318.952 401.809 318.748C408.448 318.415 415.017 316.735 421.001 313.84C421.347 313.672 421.653 313.418 421.837 313.081C422.465 311.937 421.299 310.918 420.295 310.3C415.145 307.127 409.902 303.913 404.062 302.338C398.221 300.763 391.592 301.029 386.608 304.458C380.758 308.485 378.626 316.754 377.638 323.786Z" fill="#EFA71F"/>
<path d="M421.906 312.707C421.898 312.719 421.72 312.636 421.387 312.466C421.021 312.274 420.539 312.022 419.938 311.707C418.682 311.046 416.873 310.071 414.587 308.975C412.299 307.89 409.528 306.666 406.303 305.782C403.092 304.89 399.387 304.423 395.566 304.912C391.762 305.413 388.258 306.894 385.779 309.115C383.283 311.329 381.758 314.002 380.682 316.274C379.608 318.565 378.946 320.514 378.464 321.847C378.238 322.486 378.058 322.999 377.92 323.389C377.793 323.741 377.719 323.924 377.706 323.919C377.692 323.915 377.74 323.724 377.842 323.364C377.961 322.968 378.118 322.447 378.314 321.797C378.751 320.446 379.372 318.478 380.421 316.153C381.473 313.849 382.99 311.117 385.53 308.834C388.057 306.543 391.641 305.017 395.513 304.509C399.398 304.01 403.164 304.499 406.402 305.42C409.656 306.334 412.432 307.594 414.712 308.715C416.99 309.848 418.78 310.864 420.014 311.567C420.6 311.909 421.069 312.184 421.427 312.393C421.747 312.587 421.912 312.694 421.906 312.707Z" fill="#263238"/>
<path d="M414.563 316.651C414.5 316.743 410.503 314.157 405.634 310.874C400.765 307.59 396.868 304.854 396.931 304.761C396.994 304.668 400.991 307.254 405.861 310.538C410.729 313.821 414.626 316.558 414.563 316.651Z" fill="#263238"/>
<path d="M410.299 304.551C410.319 304.64 409.025 304.942 407.389 305.075C405.752 305.212 404.419 305.127 404.42 305.036C404.42 304.94 405.738 304.872 407.354 304.736C408.97 304.605 410.279 304.456 410.299 304.551Z" fill="#263238"/>
<path d="M392.797 302.27C392.893 302.314 392.306 303.232 391.486 304.319C390.665 305.406 389.92 306.251 389.824 306.207C389.728 306.163 390.315 305.246 391.136 304.158C391.957 303.071 392.701 302.225 392.797 302.27Z" fill="#263238"/>
<path d="M396.38 319.006C396.352 319.052 395.611 318.664 394.456 317.963C393.301 317.262 391.74 316.235 390.073 315.024C388.405 313.813 386.934 312.668 385.878 311.829C384.822 310.989 384.184 310.451 384.217 310.405C384.25 310.36 384.95 310.818 386.05 311.6C387.249 312.471 388.703 313.527 390.31 314.696C391.973 315.903 393.5 316.962 394.611 317.722C395.723 318.482 396.41 318.955 396.38 319.006Z" fill="#263238"/>
<path d="M382.139 336.774C379.223 336.003 375.747 338.84 375.147 341.795C374.546 344.75 375.655 347.772 376.952 350.495C379.824 356.521 383.789 362.11 389.01 366.271C394.231 370.432 400.77 373.092 407.446 373.058C406.213 367.332 407.773 361.351 407.085 355.535C406.485 350.458 404.118 345.608 400.486 342.012C396.853 338.415 391.98 336.097 386.897 335.548C385.035 335.347 382.882 335.055 382.139 336.774Z" fill="#EFA71F"/>
<path d="M407.445 373.058C407.439 373.071 407.297 373.004 407.03 372.865C406.768 372.721 406.387 372.489 405.94 372.132C405.024 371.437 403.976 370.098 403.06 368.282C402.595 367.379 402.076 366.399 401.568 365.314C401.076 364.225 400.551 363.064 400 361.846C399.443 360.631 398.831 359.37 398.072 358.14C397.316 356.908 396.416 355.703 395.419 354.532C393.422 352.186 391.28 350.158 389.424 348.22C387.557 346.289 385.987 344.43 384.853 342.736C383.707 341.049 383.013 339.537 382.619 338.47C382.431 337.932 382.296 337.512 382.229 337.219C382.155 336.928 382.124 336.775 382.137 336.772C382.175 336.761 382.341 337.368 382.766 338.413C383.202 339.452 383.926 340.924 385.089 342.573C386.242 344.229 387.819 346.052 389.692 347.96C391.557 349.877 393.71 351.9 395.728 354.269C396.735 355.452 397.646 356.675 398.41 357.932C399.179 359.187 399.79 360.466 400.339 361.691C400.878 362.914 401.391 364.079 401.872 365.172C402.362 366.252 402.868 367.242 403.314 368.15C404.193 369.971 405.173 371.29 406.039 372.011C406.894 372.747 407.47 373.019 407.445 373.058Z" fill="#263238"/>
<path d="M392.368 368.301C392.314 368.29 392.406 367.538 392.635 366.338C392.863 365.137 393.238 363.489 393.743 361.693C394.249 359.896 394.79 358.295 395.222 357.151C395.654 356.007 395.968 355.319 396.019 355.338C396.074 355.358 395.855 356.081 395.494 357.245C395.133 358.409 394.638 360.015 394.133 361.803C393.63 363.591 393.214 365.22 392.915 366.401C392.616 367.581 392.425 368.312 392.368 368.301Z" fill="#263238"/>
<path d="M406.893 354.246C406.875 354.302 406.094 354.103 404.839 353.774C403.582 353.445 401.847 352.997 399.918 352.561C397.987 352.128 396.227 351.789 394.951 351.547C393.674 351.306 392.884 351.151 392.892 351.093C392.899 351.04 393.704 351.094 394.996 351.264C396.287 351.434 398.065 351.729 400.006 352.165C401.946 352.603 403.679 353.099 404.918 353.498C406.159 353.9 406.909 354.196 406.893 354.246Z" fill="#263238"/>
<path d="M381.548 358.33C381.495 358.32 381.607 357.45 381.863 356.058C382.119 354.667 382.527 352.752 383.072 350.662C383.619 348.571 384.198 346.702 384.655 345.361C385.112 344.021 385.438 343.209 385.49 343.226C385.545 343.244 385.314 344.088 384.929 345.447C384.544 346.806 384.01 348.681 383.466 350.764C382.923 352.847 382.472 354.743 382.144 356.117C381.817 357.492 381.604 358.341 381.548 358.33Z" fill="#263238"/>
<path d="M400.204 341.999C400.192 342.111 396.552 341.815 392.075 341.341C387.596 340.866 383.976 340.391 383.988 340.28C383.999 340.168 387.639 340.463 392.117 340.938C396.595 341.412 400.216 341.887 400.204 341.999Z" fill="#263238"/>
<path d="M397.537 386.141C397.537 386.254 384.742 386.345 368.961 386.345C353.175 386.345 340.383 386.254 340.383 386.141C340.383 386.03 353.175 385.939 368.961 385.939C384.742 385.939 397.537 386.03 397.537 386.141Z" fill="#455A64"/>
<path d="M388.635 402.608C388.635 402.72 380.014 402.811 369.382 402.811C358.745 402.811 350.126 402.72 350.126 402.608C350.126 402.496 358.745 402.405 369.382 402.405C380.013 402.404 388.635 402.495 388.635 402.608Z" fill="#455A64"/>
<path d="M388.3 404.961C388.3 405.074 379.83 405.164 369.382 405.164C358.932 405.164 350.463 405.073 350.463 404.961C350.463 404.85 358.932 404.759 369.382 404.759C379.83 404.759 388.3 404.85 388.3 404.961Z" fill="#455A64"/>
<path d="M388.971 400.666C388.971 400.779 380.054 400.87 369.056 400.87C358.054 400.87 349.139 400.779 349.139 400.666C349.139 400.555 358.054 400.464 369.056 400.464C380.054 400.464 388.971 400.555 388.971 400.666Z" fill="#455A64"/>
<path d="M385.158 53.8875C385.157 54.0171 379.116 54.09 371.667 54.0504C364.215 54.0108 358.176 53.874 358.177 53.7444C358.178 53.6148 364.217 53.5419 371.669 53.5815C379.118 53.6211 385.158 53.7579 385.158 53.8875Z" fill="#263238"/>
<path d="M371.804 67.3056C371.674 67.3065 371.508 61.2675 371.433 53.8182C371.357 46.3662 371.401 40.3263 371.531 40.3245C371.66 40.3236 371.826 46.3608 371.902 53.8128C371.976 61.263 371.932 67.3047 371.804 67.3056Z" fill="#263238"/>
<path d="M399.387 255.317C399.328 255.432 395.62 253.655 391.106 251.349C386.59 249.043 382.979 247.08 383.037 246.964C383.096 246.848 386.804 248.624 391.319 250.932C395.833 253.238 399.445 255.201 399.387 255.317Z" fill="#263238"/>
<path d="M387.162 259.378C387.046 259.322 388.765 255.587 391.001 251.037C393.239 246.487 395.146 242.844 395.262 242.902C395.378 242.959 393.659 246.693 391.423 251.244C389.186 255.793 387.278 259.436 387.162 259.378Z" fill="#263238"/>
<path d="M76.3173 191.944C76.365 192.065 72.0585 193.894 66.6981 196.031C61.3368 198.168 56.952 199.803 56.9043 199.682C56.8566 199.562 61.1631 197.733 66.5244 195.595C71.8848 193.459 76.2696 191.824 76.3173 191.944Z" fill="#263238"/>
<path d="M66.384 186.095C66.3453 186.112 66.2301 185.831 65.9052 185.419C65.5848 185.014 64.9953 184.478 64.0989 184.248C63.225 184.008 62.0217 184.166 61.1298 184.982C60.2334 185.762 59.7807 187.228 60.3072 188.516C60.8103 189.814 62.1486 190.566 63.3357 190.516C64.5444 190.494 65.5272 189.781 65.9952 189.005C66.4875 188.222 66.546 187.428 66.5001 186.914C66.4542 186.392 66.3444 186.109 66.384 186.095C66.4029 186.085 66.5739 186.345 66.6819 186.89C66.7863 187.424 66.7836 188.29 66.2796 189.177C65.8017 190.055 64.7244 190.898 63.3492 190.949C62.001 191.033 60.4503 190.184 59.8716 188.69C59.265 187.209 59.8059 185.526 60.8427 184.66C61.875 183.751 63.2376 183.622 64.188 183.93C65.1636 184.227 65.7612 184.854 66.0528 185.314C66.3498 185.782 66.4047 186.089 66.384 186.095Z" fill="#263238"/>
<path d="M73.1322 203.023C73.0926 203.04 72.9783 202.759 72.6534 202.347C72.333 201.943 71.7435 201.406 70.8471 201.176C69.9732 200.936 68.7699 201.094 67.878 201.91C66.9816 202.69 66.5289 204.156 67.0554 205.444C67.5594 206.742 68.8968 207.494 70.0839 207.444C71.2926 207.422 72.2754 206.709 72.7434 205.934C73.2357 205.151 73.2942 204.356 73.2483 203.842C73.2015 203.32 73.0917 203.037 73.1322 203.023C73.1511 203.013 73.3221 203.274 73.4301 203.819C73.5345 204.352 73.5318 205.218 73.0278 206.105C72.5499 206.982 71.4726 207.825 70.0974 207.876C68.7492 207.96 67.1985 207.111 66.6198 205.618C66.0132 204.136 66.5541 202.453 67.5909 201.587C68.6232 200.678 69.9858 200.549 70.9362 200.857C71.9118 201.154 72.5094 201.781 72.801 202.24C73.0971 202.711 73.152 203.017 73.1322 203.023Z" fill="#263238"/>
<path d="M126.64 98.3898C126.64 98.3898 126.742 98.631 126.913 99.0999C127.088 99.585 127.336 100.278 127.66 101.179C128.308 103.02 129.255 105.708 130.474 109.166L130.532 109.332L130.357 109.309C127.168 108.875 123.254 108.343 118.765 107.733L118.876 107.703C115.338 110.483 110.608 112.886 105.007 113.757C103.613 113.983 102.171 114.113 100.696 114.127C99.9594 114.147 99.216 114.071 98.4636 114.046C98.0874 114.027 97.7103 114.009 97.3305 113.99C96.9525 113.957 96.5763 113.883 96.1965 113.831C93.1464 113.476 90.0576 112.523 87.1029 111.091C84.1473 109.66 81.3222 107.703 78.849 105.246C76.3929 102.776 74.3085 99.8055 72.7884 96.4872C69.7293 89.8686 69.0921 81.7623 71.5716 74.3211C73.7145 67.6764 78.282 62.1585 83.7225 58.5459C86.445 56.7108 89.4663 55.4733 92.4975 54.6462L93.6396 54.3537L94.2084 54.2088L94.7871 54.1206C95.5575 54.0036 96.3243 53.8875 97.0866 53.7714C97.8543 53.7075 98.6211 53.6877 99.3816 53.6445C100.142 53.577 100.898 53.6229 101.65 53.6679C102.399 53.7282 103.153 53.6967 103.884 53.8326C104.619 53.9451 105.349 54.0576 106.073 54.1692C106.797 54.2862 107.491 54.5157 108.195 54.6822L109.242 54.9531C109.583 55.0638 109.916 55.1961 110.251 55.3167C112.971 56.1942 115.393 57.5964 117.608 59.0769C121.963 62.1855 125.248 66.123 127.242 70.2072C129.288 74.2734 130.193 78.3666 130.405 81.9558C130.685 85.5585 130.188 88.6707 129.58 91.1232C128.956 93.5829 128.173 95.4009 127.599 96.6015C127.307 97.2009 127.072 97.6518 126.904 97.9425C126.738 98.2368 126.64 98.3898 126.64 98.3898C126.64 98.3898 126.706 98.2341 126.859 97.9272C127.018 97.6194 127.238 97.164 127.516 96.5601C128.059 95.3505 128.812 93.5298 129.405 91.0782C129.981 88.6338 130.448 85.5414 130.144 81.9711C129.91 78.4143 128.991 74.3679 126.949 70.3557C124.958 66.3264 121.695 62.4492 117.388 59.3937C115.195 57.9393 112.803 56.5614 110.118 55.7037C109.786 55.5858 109.458 55.4562 109.121 55.3473L108.089 55.0836C107.395 54.9216 106.709 54.6957 105.996 54.5823C105.281 54.4743 104.561 54.3654 103.837 54.2556C103.116 54.1224 102.372 54.1566 101.633 54.0981C100.893 54.0549 100.147 54.0108 99.3969 54.0792C98.6481 54.1233 97.8912 54.144 97.1352 54.2079C96.3846 54.3231 95.6295 54.4392 94.8699 54.5553L94.3002 54.6426L93.7404 54.7866L92.6154 55.0764C89.6301 55.8954 86.6556 57.1167 83.9772 58.9275C78.6231 62.4915 74.1276 67.9248 72.0198 74.4669C69.579 81.792 70.2018 89.775 73.2069 96.2946C74.7 99.5643 76.7484 102.493 79.1649 104.932C81.5985 107.357 84.3786 109.291 87.2901 110.709C90.1998 112.127 93.2436 113.075 96.2523 113.434C96.6267 113.486 96.9975 113.561 97.371 113.595C97.7454 113.615 98.118 113.634 98.4897 113.653C99.2322 113.679 99.9657 113.757 100.694 113.74C102.15 113.731 103.576 113.608 104.953 113.39C110.488 112.55 115.175 110.198 118.695 107.465L118.745 107.427L118.807 107.436C123.292 108.077 127.202 108.636 130.387 109.093L130.27 109.235C129.091 105.746 128.175 103.036 127.547 101.18C127.247 100.276 127.017 99.5814 126.856 99.0945C126.703 98.6283 126.64 98.3898 126.64 98.3898Z" fill="#263238"/>
<path d="M101.847 76.878C102.251 77.0724 102.529 77.4855 102.53 77.9634L102.529 83.9574C102.529 84.3345 102.352 84.69 102.052 84.9168C101.751 85.1445 101.362 85.2183 100.999 85.1157C100.048 84.8475 98.9775 85.0104 98.0649 85.5657C97.2243 86.076 96.6411 86.8545 96.4656 87.7041C96.2892 88.5501 96.5124 89.5041 97.0776 90.3231C97.6824 91.1988 98.6049 91.8117 99.5508 91.962C101.482 92.2689 103.641 90.873 104.265 88.9128C104.467 88.2792 105.143 87.93 105.777 88.1316C106.42 88.3386 106.761 89.0109 106.559 89.6436C105.578 92.7243 102.264 94.8312 99.1719 94.3398C97.569 94.0851 96.0813 93.1194 95.0967 91.6911C94.1598 90.3339 93.7998 88.7031 94.1085 87.2154C94.4199 85.7151 95.4063 84.3642 96.8157 83.5092C97.8345 82.8909 98.9856 82.5759 100.122 82.5849L100.121 77.9652C100.121 77.3001 100.66 76.7619 101.326 76.7619C101.513 76.7601 101.689 76.8024 101.847 76.878Z" fill="#EFA71F"/>
<path d="M100.189 74.358C100.175 73.8144 100.605 73.3626 101.148 73.3482C101.692 73.3347 102.144 73.764 102.157 74.3076C102.171 74.8512 101.741 75.303 101.198 75.3174C100.655 75.3309 100.203 74.9016 100.189 74.358Z" fill="#EFA71F"/>
</svg>
