<svg width="450" height="450" viewBox="0 0 450 450" fill="none" xmlns="http://www.w3.org/2000/svg">
<path d="M72.0406 167.89C72.1882 169.004 71.4052 170.026 70.291 170.174C69.1777 170.321 68.1544 169.538 68.0068 168.424C67.8592 167.31 68.6422 166.288 69.7564 166.14C70.8706 165.992 71.893 166.775 72.0406 167.89Z" fill="#EBEBEB"/>
<path d="M61.6455 103.479C61.7931 104.593 61.0101 105.616 59.8959 105.763C58.7826 105.911 57.7593 105.128 57.6117 104.014C57.4641 102.9 58.2471 101.877 59.3613 101.73C60.4746 101.582 61.4979 102.365 61.6455 103.479Z" fill="#EBEBEB"/>
<path d="M128.31 57.4713C128.458 58.5855 127.675 59.6079 126.561 59.7555C125.447 59.9031 124.424 59.1201 124.277 58.0059C124.129 56.8926 124.912 55.8693 126.025 55.7217C127.14 55.5741 128.163 56.3571 128.31 57.4713Z" fill="#EBEBEB"/>
<path d="M184.334 160.781C184.481 161.896 183.698 162.918 182.584 163.066C181.47 163.213 180.447 162.43 180.3 161.316C180.152 160.202 180.935 159.179 182.048 159.032C183.164 158.884 184.186 159.667 184.334 160.781Z" fill="#EBEBEB"/>
<path d="M86.3424 81.2791C86.49 82.3933 85.707 83.4157 84.5928 83.5633C83.4786 83.7109 82.4562 82.9279 82.3086 81.8137C82.161 80.6995 82.944 79.6771 84.0582 79.5295C85.1715 79.3819 86.1948 80.1649 86.3424 81.2791Z" fill="#EBEBEB"/>
<path d="M86.8294 92.7C86.9032 93.2562 86.5126 93.7665 85.9564 93.8403C85.4002 93.9141 84.889 93.5226 84.8161 92.9673C84.7423 92.4111 85.1338 91.8999 85.6891 91.827C86.2453 91.7523 86.7556 92.1438 86.8294 92.7Z" fill="#EBEBEB"/>
<path d="M286 120.815C286.074 121.371 285.683 121.882 285.126 121.956C284.57 122.03 284.06 121.639 283.986 121.082C283.912 120.526 284.304 120.016 284.86 119.942C285.416 119.868 285.927 120.26 286 120.815Z" fill="#EBEBEB"/>
<path d="M155.486 107.981C155.56 108.537 155.168 109.048 154.612 109.122C154.056 109.196 153.545 108.805 153.472 108.248C153.398 107.692 153.788 107.182 154.345 107.108C154.902 107.034 155.412 107.425 155.486 107.981Z" fill="#EBEBEB"/>
<path d="M334.45 55.5705C334.524 56.1267 334.132 56.637 333.576 56.7108C333.02 56.7846 332.509 56.3931 332.436 55.8369C332.362 55.2807 332.753 54.7695 333.31 54.6966C333.866 54.6237 334.376 55.0143 334.45 55.5705Z" fill="#EBEBEB"/>
<path d="M251.804 63.9945C251.878 64.5507 251.487 65.061 250.931 65.1348C250.375 65.2086 249.864 64.8171 249.791 64.2609C249.717 63.7047 250.108 63.1944 250.664 63.1206C251.219 63.0477 251.73 63.4383 251.804 63.9945Z" fill="#EBEBEB"/>
<path d="M154.47 188.299C154.544 188.855 154.152 189.365 153.596 189.439C153.04 189.513 152.529 189.121 152.456 188.565C152.382 188.009 152.773 187.499 153.329 187.425C153.886 187.351 154.396 187.743 154.47 188.299Z" fill="#EBEBEB"/>
<path d="M195.336 50.3523C195.41 50.9085 195.018 51.4197 194.462 51.4926C193.906 51.5664 193.396 51.1749 193.322 50.6187C193.248 50.0625 193.639 49.5522 194.196 49.4784C194.751 49.4046 195.262 49.7961 195.336 50.3523Z" fill="#EBEBEB"/>
<path d="M235.716 234.167C235.79 234.723 235.399 235.233 234.843 235.307C234.287 235.381 233.777 234.989 233.703 234.433C233.629 233.877 234.02 233.366 234.576 233.293C235.132 233.219 235.643 233.61 235.716 234.167Z" fill="#EBEBEB"/>
<path d="M142.528 111.938C142.676 113.053 141.893 114.075 140.779 114.223C139.665 114.37 138.642 113.587 138.495 112.473C138.347 111.359 139.13 110.336 140.244 110.189C141.358 110.041 142.381 110.825 142.528 111.938Z" fill="#EBEBEB"/>
<path d="M182.299 88.4547C182.446 89.5689 181.663 90.5913 180.549 90.7389C179.435 90.8865 178.412 90.1035 178.265 88.9893C178.117 87.876 178.9 86.8527 180.014 86.7051C181.129 86.5575 182.151 87.3405 182.299 88.4547Z" fill="#EBEBEB"/>
<path d="M262.41 55.4365C262.558 56.5498 261.775 57.5731 260.661 57.7207C259.547 57.8683 258.524 57.0853 258.377 55.9711C258.229 54.8569 259.012 53.8345 260.125 53.6869C261.24 53.5402 262.263 54.3232 262.41 55.4365Z" fill="#EBEBEB"/>
<path d="M381.976 120.482L384.856 119.52C384.856 119.52 382.892 118.507 382.895 115.358C382.898 112.208 385.59 110.966 384.426 108.115L381.218 108.974C381.218 108.974 382.48 111.406 381.362 113.801C380.515 115.619 379.746 117.768 381.976 120.482Z" fill="#EBEBEB"/>
<path d="M272.777 106.618L275.657 105.656C275.657 105.656 273.694 104.643 273.696 101.494C273.699 98.3448 276.391 97.1028 275.227 94.2516L272.019 95.1102C272.019 95.1102 273.281 97.542 272.164 99.9369C271.316 101.754 270.547 103.903 272.777 106.618Z" fill="#EBEBEB"/>
<path d="M187.166 63.1621L184.324 62.0938C184.324 62.0938 185.209 64.1188 183.222 66.5614C181.234 69.004 178.362 68.2714 177.467 71.218L180.499 72.5743C180.499 72.5743 181.052 69.8905 183.43 68.7358C185.234 67.8592 187.186 66.6757 187.166 63.1621Z" fill="#EBEBEB"/>
<path d="M209.586 160.059L206.744 158.99C206.744 158.99 207.629 161.015 205.642 163.458C203.654 165.901 200.782 165.168 199.887 168.115L202.919 169.471C202.919 169.471 203.472 166.787 205.85 165.632C207.653 164.756 209.606 163.572 209.586 160.059Z" fill="#EBEBEB"/>
<path d="M153.567 215.591L150.725 214.522C150.725 214.522 151.61 216.547 149.623 218.99C147.635 221.432 144.763 220.7 143.869 223.646L146.901 225.003C146.901 225.003 147.453 222.319 149.831 221.164C151.635 220.288 153.587 219.104 153.567 215.591Z" fill="#EBEBEB"/>
<path d="M365.807 205.947L362.965 204.879C362.965 204.879 363.85 206.904 361.863 209.346C359.875 211.789 357.003 211.056 356.108 214.003L359.141 215.359C359.141 215.359 359.693 212.675 362.071 211.521C363.875 210.644 365.827 209.461 365.807 205.947Z" fill="#EBEBEB"/>
<path d="M128.087 90.4212L128.5 87.4134C128.5 87.4134 126.722 88.7256 123.899 87.327C121.077 85.9284 121.156 82.9656 118.085 82.746L117.433 86.0031C117.433 86.0031 120.173 85.9482 121.825 88.011C123.08 89.5761 124.665 91.2177 128.087 90.4212Z" fill="#EBEBEB"/>
<path d="M250.614 151.903L251.027 148.895C251.027 148.895 249.249 150.207 246.426 148.809C243.604 147.411 243.683 144.447 240.611 144.228L239.96 147.485C239.96 147.485 242.699 147.43 244.352 149.493C245.606 151.058 247.191 152.7 250.614 151.903Z" fill="#EBEBEB"/>
<path d="M234.296 248.317L234.709 245.309C234.709 245.309 232.931 246.622 230.108 245.223C227.286 243.825 227.365 240.862 224.294 240.642L223.642 243.899C223.642 243.899 226.382 243.844 228.034 245.907C229.289 247.472 230.874 249.114 234.296 248.317Z" fill="#EBEBEB"/>
<path d="M340.908 90.4212L341.321 87.4134C341.321 87.4134 339.543 88.7256 336.721 87.327C333.898 85.9293 333.977 82.9656 330.906 82.746L330.254 86.0031C330.254 86.0031 332.994 85.9482 334.646 88.011C335.9 89.5761 337.486 91.2177 340.908 90.4212Z" fill="#EBEBEB"/>
<path d="M167.1 267.24L167.675 270.221C167.675 270.221 168.938 268.408 172.06 268.825C175.182 269.243 176.059 272.074 179.038 271.297L178.61 268.003C178.61 268.003 176.033 268.934 173.805 267.511C172.114 266.432 170.086 265.387 167.1 267.24Z" fill="#EBEBEB"/>
<path d="M89.271 124.221L94.1193 122.846C94.1193 122.846 96.4278 128.904 91.6245 130.616C91.6245 130.616 93.2607 127.389 89.271 124.221Z" fill="#EBEBEB"/>
<path d="M90.0657 137.014L85.9023 134.302C85.9023 134.302 86.5152 130.347 91.6245 130.615C91.6245 130.615 87.7437 133.453 90.0657 137.014Z" fill="#EBEBEB"/>
<path d="M170.026 197.705L166.826 195.966C166.826 195.966 164.237 199.87 167.352 201.84C167.352 201.84 166.711 199.306 170.026 197.705Z" fill="#EBEBEB"/>
<path d="M167.435 206.6L170.801 205.348C170.801 205.348 170.996 202.462 167.351 201.84C167.351 201.84 169.637 204.457 167.435 206.6Z" fill="#EBEBEB"/>
<path d="M69.247 76.4245L66.0466 74.6857C66.0466 74.6857 63.4573 78.5899 66.5731 80.56C66.5731 80.56 65.9314 78.0256 69.247 76.4245Z" fill="#EBEBEB"/>
<path d="M66.6568 85.3183L70.0228 84.0664C70.0228 84.0664 70.2181 81.181 66.5731 80.5591C66.5731 80.5591 68.8582 83.1754 66.6568 85.3183Z" fill="#EBEBEB"/>
<path d="M276.201 200.21L273.001 198.472C273.001 198.472 270.411 202.376 273.526 204.346C273.526 204.346 272.885 201.812 276.201 200.21Z" fill="#EBEBEB"/>
<path d="M273.611 209.104L276.977 207.852C276.977 207.852 277.172 204.967 273.527 204.345C273.527 204.345 275.812 206.962 273.611 209.104Z" fill="#EBEBEB"/>
<path d="M356.841 96.0759C356.693 94.9617 357.476 93.9393 358.591 93.7917C359.705 93.6441 360.727 94.4271 360.875 95.5413C361.022 96.6555 360.239 97.6779 359.126 97.8255C358.011 97.9722 356.989 97.1892 356.841 96.0759Z" fill="#EBEBEB"/>
<path d="M290.175 207.824C290.028 206.71 290.811 205.688 291.925 205.54C293.039 205.393 294.062 206.176 294.209 207.289C294.357 208.403 293.574 209.425 292.46 209.573C291.346 209.722 290.323 208.939 290.175 207.824Z" fill="#EBEBEB"/>
<path d="M387.896 151.546C387.749 150.432 388.532 149.41 389.646 149.262C390.76 149.115 391.783 149.898 391.93 151.011C392.078 152.125 391.295 153.148 390.182 153.295C389.066 153.443 388.044 152.66 387.896 151.546Z" fill="#EBEBEB"/>
<path d="M380.553 218.88C380.48 218.324 380.87 217.813 381.427 217.74C381.983 217.666 382.494 218.057 382.568 218.614C382.641 219.17 382.25 219.681 381.694 219.755C381.137 219.827 380.627 219.436 380.553 218.88Z" fill="#EBEBEB"/>
<path d="M294.628 111.304C294.481 110.19 295.264 109.167 296.378 109.02C297.492 108.872 298.515 109.655 298.662 110.769C298.81 111.884 298.027 112.906 296.913 113.053C295.798 113.201 294.776 112.418 294.628 111.304Z" fill="#EBEBEB"/>
<path d="M243.186 167.884C243.039 166.77 243.822 165.748 244.936 165.6C246.05 165.452 247.073 166.235 247.22 167.35C247.368 168.464 246.585 169.486 245.471 169.634C244.357 169.781 243.334 168.998 243.186 167.884Z" fill="#EBEBEB"/>
<path d="M304.629 130.989L304.216 133.997C304.216 133.997 305.995 132.684 308.817 134.083C311.64 135.481 311.56 138.444 314.632 138.664L315.284 135.407C315.284 135.407 312.544 135.462 310.892 133.399C309.637 131.833 308.051 130.191 304.629 130.989Z" fill="#EBEBEB"/>
<path d="M363.11 76.9221L358.262 78.2964C358.262 78.2964 355.954 72.2385 360.757 70.5267C360.757 70.5267 359.121 73.7541 363.11 76.9221Z" fill="#EBEBEB"/>
<path d="M362.317 64.1287L366.48 66.8413C366.48 66.8413 365.867 70.7959 360.758 70.5277C360.758 70.5277 364.638 67.69 362.317 64.1287Z" fill="#EBEBEB"/>
<path d="M299.7 247.094L294.852 248.468C294.852 248.468 292.543 242.41 297.347 240.699C297.347 240.699 295.71 243.925 299.7 247.094Z" fill="#EBEBEB"/>
<path d="M298.905 234.3L303.069 237.012C303.069 237.012 302.456 240.967 297.347 240.699C297.347 240.699 301.227 237.862 298.905 234.3Z" fill="#EBEBEB"/>
<path d="M220.993 232.079L216.145 233.453C216.145 233.453 213.836 227.395 218.641 225.683C218.641 225.683 217.004 228.91 220.993 232.079Z" fill="#EBEBEB"/>
<path d="M220.199 219.284L224.362 221.997C224.362 221.997 223.749 225.951 218.64 225.683C218.64 225.683 222.521 222.845 220.199 219.284Z" fill="#EBEBEB"/>
<path d="M388.196 169.142L391.397 170.88C391.397 170.88 393.986 166.976 390.87 165.006C390.87 165.006 391.512 167.541 388.196 169.142Z" fill="#EBEBEB"/>
<path d="M390.787 160.248L387.421 161.5C387.421 161.5 387.226 164.385 390.871 165.007C390.871 165.007 388.585 162.391 390.787 160.248Z" fill="#EBEBEB"/>
<path d="M275.262 74.1051L278.463 75.8439C278.463 75.8439 281.052 71.9397 277.937 69.9696C277.937 69.9696 278.577 72.504 275.262 74.1051Z" fill="#EBEBEB"/>
<path d="M277.852 65.2104L274.486 66.4623C274.486 66.4623 274.291 69.3478 277.936 69.9697C277.936 69.9697 275.65 67.3533 277.852 65.2104Z" fill="#EBEBEB"/>
<path d="M292.312 222.166L292.844 225.769C292.844 225.769 297.52 225.494 297.224 221.82C297.224 221.82 295.583 223.855 292.312 222.166Z" fill="#EBEBEB"/>
<path d="M300.979 218.895L297.957 216.956C297.957 216.956 295.532 218.533 297.224 221.82C297.224 221.82 297.943 218.422 300.979 218.895Z" fill="#EBEBEB"/>
<path d="M225 411.595C328.081 411.595 411.644 401.642 411.644 389.364C411.644 377.087 328.081 367.133 225 367.133C121.919 367.133 38.3562 377.087 38.3562 389.364C38.3562 401.642 121.919 411.595 225 411.595Z" fill="#7C776E" fill-opacity="0.1"/>
<path d="M276.961 265.077H173.039V340.233H276.961V265.077Z" fill="#455A64"/>
<path d="M276.961 272.978L173.039 277.023V265.077H276.961V272.978Z" fill="#37474F"/>
<path d="M281.741 255.38H168.26V265.077H281.741V255.38Z" fill="#455A64"/>
<path d="M236.879 298.587C237.888 292.023 233.385 285.885 226.822 284.877C220.259 283.868 214.121 288.371 213.112 294.934C212.103 301.497 216.606 307.635 223.169 308.644C229.733 309.653 235.871 305.15 236.879 298.587Z" fill="#37474F"/>
<path d="M226.655 290.766V303.535C226.655 304.205 226.092 304.725 225.444 304.725C224.772 304.725 224.253 304.205 224.253 303.535V292.887L223.387 293.385C223.193 293.515 222.976 293.558 222.782 293.558C222.37 293.558 221.981 293.342 221.764 292.952C221.397 292.41 221.591 291.653 222.154 291.328L224.816 289.749C224.837 289.727 224.88 289.727 224.903 289.705C224.946 289.705 224.968 289.661 225.011 289.64C225.054 289.64 225.098 289.619 225.141 289.619C225.162 289.598 225.206 289.598 225.228 289.598C225.272 289.576 225.337 289.576 225.38 289.576C225.401 289.576 225.423 289.576 225.445 289.576H225.465C225.53 289.576 225.573 289.576 225.618 289.576C225.638 289.598 225.682 289.598 225.704 289.598C225.769 289.598 225.791 289.619 225.834 289.641C225.855 289.641 225.899 289.641 225.92 289.662C225.985 289.706 226.007 289.727 226.05 289.727C226.072 289.749 226.094 289.77 226.138 289.792C226.158 289.813 226.202 289.835 226.224 289.857C226.267 289.877 226.289 289.921 226.311 289.943C226.332 289.965 226.355 289.986 226.376 290.03C226.397 290.051 226.44 290.095 226.463 290.117L226.484 290.16C226.484 290.182 226.505 290.204 226.505 290.225C226.527 290.268 226.548 290.29 226.548 290.333C226.57 290.377 226.57 290.42 226.592 290.442C226.592 290.485 226.613 290.528 226.613 290.55C226.613 290.614 226.613 290.658 226.657 290.701C226.655 290.723 226.655 290.744 226.655 290.766Z" fill="#455A64"/>
<path d="M173.039 283.198H90.5868V340.233H173.039V283.198Z" fill="#37474F"/>
<path d="M173.039 288.935L90.5868 291.873V283.198H173.039V288.935Z" fill="#263238"/>
<path d="M173.039 276.158H86.7933V283.198H173.039V276.158Z" fill="#37474F"/>
<path d="M131.813 323.511C138.453 323.511 143.836 318.128 143.836 311.488C143.836 304.848 138.453 299.465 131.813 299.465C125.173 299.465 119.79 304.848 119.79 311.488C119.79 318.128 125.173 323.511 131.813 323.511Z" fill="#455A64"/>
<path d="M135.99 318.252C135.99 318.923 135.471 319.442 134.8 319.442H127.139C127.139 319.442 127.139 319.442 127.117 319.442H127.095C126.771 319.442 126.425 319.312 126.209 319.053C125.754 318.554 125.798 317.819 126.273 317.364L132.68 311.564C133.307 311.001 133.589 310.266 133.589 309.486C133.589 308.793 133.35 308.145 132.874 307.603C132.312 306.975 131.554 306.694 130.796 306.694C130.126 306.694 129.454 306.932 128.913 307.407L128.242 308.014C127.744 308.469 127.009 308.425 126.554 307.928C126.122 307.429 126.143 306.694 126.641 306.239L127.311 305.633C128.286 304.724 129.563 304.291 130.796 304.291C132.203 304.291 133.631 304.876 134.648 306.001C135.558 306.975 135.99 308.252 135.99 309.485C135.99 310.892 135.406 312.32 134.281 313.338L130.19 317.038H134.8C135.471 317.041 135.99 317.581 135.99 318.252Z" fill="#37474F"/>
<path d="M276.961 340.233H359.413V296.771H276.961V340.233Z" fill="#37474F"/>
<path d="M276.961 302.508L359.413 305.446V296.771H276.961V302.508Z" fill="#263238"/>
<path d="M276.961 296.771H363.206V289.731H276.961V296.771Z" fill="#37474F"/>
<path d="M318.147 332.531C324.788 332.531 330.17 327.148 330.17 320.508C330.17 313.868 324.788 308.485 318.147 308.485C311.507 308.485 306.124 313.868 306.124 320.508C306.124 327.148 311.507 332.531 318.147 332.531Z" fill="#455A64"/>
<path d="M320.529 319.264C321.589 320.303 322.108 321.688 322.108 323.052C322.108 324.416 321.589 325.801 320.529 326.861C319.49 327.9 318.105 328.441 316.72 328.441C315.356 328.441 313.971 327.9 312.932 326.861C312.456 326.385 312.456 325.606 312.932 325.13C313.408 324.653 314.187 324.653 314.664 325.13C315.226 325.692 315.962 325.974 316.72 325.974C317.477 325.974 318.213 325.692 318.798 325.13C319.381 324.545 319.663 323.809 319.663 323.051C319.663 322.294 319.381 321.558 318.798 320.995C318.235 320.412 317.499 320.151 316.742 320.129C316.395 320.151 316.071 320 315.854 319.739C315.834 319.739 315.834 319.739 315.834 319.719C315.336 319.243 315.336 318.485 315.79 317.987L317.997 315.735H314.491C313.82 315.735 313.278 315.194 313.278 314.502C313.278 313.832 313.82 313.29 314.491 313.29H320.876C321.569 313.29 322.109 313.832 322.109 314.502C322.109 314.718 322.044 314.914 321.958 315.086C321.893 315.194 321.827 315.302 321.741 315.389L319.015 318.203C319.576 318.464 320.095 318.81 320.529 319.264Z" fill="#37474F"/>
<path d="M31.1085 340.233L79.5816 340.015L128.055 339.935L225 339.784L321.945 339.934L370.418 340.013L418.891 340.233L370.418 340.454L321.945 340.533L225 340.682L128.055 340.531L79.5816 340.452L31.1085 340.233Z" fill="#263238"/>
<path d="M76.5441 270.281C75.7206 273.778 74.8521 277.22 74.6829 280.809C74.7783 280.985 74.7594 281.636 74.6541 281.459C74.6334 282.037 73.7532 281.931 73.7523 281.362C73.7613 280.989 73.7703 280.617 73.7883 280.256C71.7318 277.702 68.7447 276.084 66.33 273.865C64.3779 272.068 62.9811 269.927 62.2422 267.359C60.2397 260.457 62.1171 253.145 59.7078 246.261C57.6324 240.325 53.9073 235.166 50.7555 229.787C47.43 224.1 44.9748 218.124 44.7291 211.463C44.5329 206.363 45.1413 199.566 49.0266 195.745C53.1441 191.69 58.248 194.729 61.4034 198.344C70.5447 208.835 74.7747 222.094 76.4847 235.651C77.4279 243.154 78.4062 250.702 78.1803 258.276C78.0525 262.347 77.4675 266.327 76.5441 270.281Z" fill="#E83153"/>
<path d="M74.7225 283.564C75.1959 276.473 75.1662 269.37 74.4714 262.308C74.4831 262.282 74.5056 262.265 74.5065 262.23C74.6217 256.485 75.078 250.762 74.853 245.01C74.6082 238.76 73.692 232.635 72.3231 226.538C72.3069 226.468 72.198 226.484 72.2115 226.556C73.3383 232.502 73.9935 238.572 74.2104 244.62C74.3274 247.866 74.304 251.115 74.133 254.358C74.0772 255.414 73.9791 256.477 73.9089 257.54C73.9089 257.538 73.908 257.534 73.908 257.53C71.5905 241.361 65.6226 226.021 56.8134 212.293C56.6937 212.107 56.3625 212.305 56.4795 212.497C62.8236 222.855 67.5009 234.233 70.3935 246.039C65.997 237.895 59.3577 231.197 54.432 223.371C54.405 223.329 54.3348 223.372 54.3573 223.417C58.7826 232.129 66.0933 239 70.7544 247.584C71.5626 251.082 72.225 254.614 72.7173 258.167C73.3941 263.046 73.7109 267.954 73.7775 272.869C71.1 267.863 68.3208 263.076 66.1302 257.783C66.0717 257.642 65.8701 257.739 65.9169 257.879C67.7808 263.378 70.2855 269.301 73.7919 273.99C73.8108 277.469 73.7082 280.951 73.503 284.428C72.9558 293.708 71.3709 302.864 70.6383 312.114C70.6167 312.392 71.0082 312.425 71.0622 312.16C72.9891 302.825 74.0889 293.071 74.7225 283.564Z" fill="#263238"/>
<path d="M64.8684 211.997C64.8405 211.929 64.7415 211.975 64.7658 212.043C66.4605 216.73 67.4181 221.478 68.643 226.283C68.6988 226.503 69.0165 226.456 68.9931 226.227C68.4936 221.352 66.7539 216.49 64.8684 211.997Z" fill="#263238"/>
<path d="M107.91 231.641C106.812 234.394 105.448 237.059 104.011 239.65C100.959 245.193 97.7751 250.272 97.1991 256.726C96.9417 259.608 96.8499 262.503 95.9724 265.28C95.2137 267.683 93.9816 269.901 92.5632 271.976C89.2548 276.794 85.1202 280.947 82.0548 285.947C78.8652 291.144 76.5126 296.861 75.0726 302.783C74.997 303.107 74.4849 303.02 74.5614 302.697C74.5731 302.671 74.5767 302.65 74.5812 302.623C74.5695 302.607 74.5515 302.59 74.5506 302.555C74.0655 288.716 75.1698 274.769 79.3908 261.511C81.2376 255.714 83.5137 249.949 86.0967 244.439C88.3575 239.632 91.1763 235.011 95.1462 231.419C97.7211 229.099 103.308 224.702 106.975 227.029C108.734 228.147 108.603 229.914 107.91 231.641Z" fill="#E83153"/>
<path d="M94.0014 263.013C91.6281 267.071 88.8138 270.847 85.959 274.574C84.6189 276.323 83.2599 278.058 81.9234 279.809C81.2916 280.637 80.5833 281.461 80.0028 282.35C80.3682 280.895 80.7246 279.437 81.0963 277.984C82.881 270.992 84.5982 263.939 87.2577 257.216C89.8569 250.645 93.3147 244.472 96.8661 238.379C96.9597 238.219 96.7005 238.103 96.6069 238.258C93.6828 243.067 90.7146 247.87 88.2567 252.94C86.8833 255.772 85.7277 258.685 84.7125 261.651C85.9086 255.294 87.3405 249.191 89.4312 243.038C89.4501 242.983 89.3718 242.943 89.3475 242.999C86.7978 249.034 84.9618 255.82 84.4506 262.36C84.4497 262.373 84.456 262.382 84.4605 262.391C83.8611 264.189 83.3094 266.003 82.7946 267.831C80.6148 275.573 78.7005 283.397 76.9257 291.247C76.9563 286.063 77.2821 280.973 78.2613 275.858C78.2838 275.741 78.1074 275.713 78.0804 275.828C76.7943 281.095 76.2129 286.638 76.7439 292.05C76.0734 295.035 75.42 298.024 74.7828 301.014C73.422 307.393 71.7507 313.886 70.956 320.363C70.9353 320.531 71.1684 320.566 71.2116 320.406C72.1611 316.915 72.7335 313.295 73.5102 309.76C74.2887 306.214 75.0915 302.674 75.9168 299.138C77.1183 293.99 78.3774 288.855 79.6599 283.725C80.5167 281.844 82.1745 280.175 83.4156 278.597C84.7782 276.866 86.1408 275.135 87.4665 273.376C89.9352 270.1 92.2005 266.696 94.1256 263.072C94.1652 262.993 94.0446 262.94 94.0014 263.013Z" fill="#263238"/>
<path d="M94.5918 257.095C91.5903 260.947 88.866 265.212 86.7222 269.6C86.6943 269.657 86.7816 269.717 86.8176 269.661C89.4663 265.51 92.0709 261.328 94.7142 257.173C94.7583 257.102 94.6422 257.03 94.5918 257.095Z" fill="#263238"/>
<path d="M35.6823 244.761C37.476 247.85 39.5226 251.559 38.7522 255.268C38.2644 257.615 36.5454 259.521 36.2358 261.916C35.541 267.203 40.8087 270.696 44.6211 273.193C54.1233 279.428 67.1562 284.987 68.8833 297.718C68.949 298.169 69.7284 298.057 69.6717 297.615C69.6717 297.587 69.6627 297.558 69.6528 297.53C69.6717 297.502 69.6996 297.492 69.6996 297.455C70.9299 291.005 70.9011 284.432 69.5214 278.01C68.1039 271.447 65.2401 265.55 61.8597 259.785C56.1411 250.029 50.085 240.039 41.4378 232.565C39.0438 230.499 34.1424 226.78 32.2362 231.448C30.3858 235.983 33.4845 240.997 35.6823 244.761Z" fill="#E83153"/>
<path d="M44.379 265.446C50.679 272.266 60.6951 276.09 66.1185 283.73C62.9046 272.021 57.5865 261.491 49.41 252.345C49.2003 252.11 49.5279 251.776 49.7574 251.997C55.7433 257.751 60.1758 264.476 63.4104 271.772C61.956 266.563 59.9211 261.635 57.5316 256.736C57.4416 256.551 57.7044 256.392 57.8106 256.573C60.8562 261.765 62.8803 267.595 64.1475 273.474C71.2926 290.773 71.955 311.062 70.4574 329.295C70.4358 329.554 70.0389 329.562 70.0461 329.295C70.4565 314.925 70.2243 300.305 66.7809 286.273C66.7089 285.98 66.6288 285.692 66.555 285.399C60.6555 277.175 50.6826 273.363 44.2692 265.554C44.2089 265.48 44.3106 265.372 44.379 265.446Z" fill="#263238"/>
<path d="M42.9184 259.588C46.2259 262.622 49.4812 265.726 52.7941 268.758C52.8274 268.789 52.7833 268.847 52.7455 268.821C49.1401 266.382 45.478 263.157 42.7213 259.785C42.6097 259.648 42.7843 259.465 42.9184 259.588Z" fill="#263238"/>
<path d="M42.3963 246.442C45.3996 251.257 48.5496 255.772 52.2909 260.053C52.3404 260.11 52.263 260.189 52.2081 260.136C48.1914 256.268 44.6247 251.589 42.219 246.546C42.1623 246.428 42.3252 246.328 42.3963 246.442Z" fill="#263238"/>
<path d="M57.2869 342.155H86.2561L82.3519 303.18H61.7482L57.2869 342.155Z" fill="#455A64"/>
<path d="M61.021 309.515H82.9891L82.3537 303.179H61.7464L61.021 309.515Z" fill="#263238"/>
<path d="M58.1936 305.084H85.3484V298.861H58.1936V305.084Z" fill="#455A64"/>
<path d="M335.148 330.997C335.148 330.997 335.142 364.469 335.143 364.493C335.175 370.895 335.09 376.507 334.775 379.406C334.776 379.421 334.776 379.436 334.769 379.453C334.651 380.547 334.5 381.245 334.307 381.433C334.292 381.449 334.284 381.465 334.269 381.473C332.371 382.774 281.222 384.524 279.419 383.985C277.607 383.453 279.01 378.261 280.941 376.609C282.887 374.957 302.162 365.529 302.162 365.529L302.486 332.07L335.148 330.997Z" fill="#AD6359"/>
<path d="M335.144 357.62C335.144 357.62 335.142 364.469 335.143 364.493C335.175 370.894 335.09 376.507 334.775 379.406C334.776 379.421 334.776 379.436 334.769 379.453C334.588 380.533 334.423 381.248 334.307 381.433C334.292 381.449 334.284 381.465 334.269 381.473C332.371 382.774 281.222 384.524 279.419 383.985C277.607 383.453 279.01 378.261 280.941 376.609C282.887 374.957 302.162 365.529 302.162 365.529L302.067 358.555L335.144 357.62Z" fill="white"/>
<path d="M279.418 383.986C281.225 384.527 332.368 382.776 334.272 381.472C335.003 380.989 335.183 373.522 335.14 364.494C335.139 364.399 335.138 364.305 335.137 364.211L302.128 364.972L302.16 365.531C302.16 365.531 282.884 374.957 280.94 376.612C279.013 378.26 277.61 383.453 279.418 383.986Z" fill="#E83153"/>
<path d="M279.928 381.983C288.542 381.477 323.333 380.245 331.887 380.399C331.956 380.4 331.958 380.448 331.889 380.453C323.362 381.142 288.562 382.091 279.932 382.125C279.751 382.125 279.746 381.993 279.928 381.983Z" fill="#263238"/>
<path d="M299.391 365.725C302.762 364.976 306.93 365.354 309.605 367.682C309.708 367.772 309.578 367.918 309.468 367.888C306.085 366.947 302.936 366.376 299.42 366.152C299.172 366.137 299.149 365.779 299.391 365.725Z" fill="#263238"/>
<path d="M296.993 367.285C300.364 366.535 304.531 366.914 307.206 369.242C307.31 369.332 307.18 369.478 307.069 369.447C303.686 368.507 300.537 367.937 297.022 367.712C296.773 367.697 296.752 367.339 296.993 367.285Z" fill="#263238"/>
<path d="M294.594 368.844C297.965 368.095 302.133 368.474 304.808 370.802C304.911 370.892 304.781 371.038 304.671 371.007C301.288 370.067 298.139 369.496 294.623 369.272C294.375 369.257 294.353 368.897 294.594 368.844Z" fill="#263238"/>
<path d="M336.8 306.931L336.792 307.303L336.053 365.903L300.252 365.189L307.605 186.537H337.841L336.8 306.931Z" fill="#455A64"/>
<path d="M301.748 359.216C307.338 359.168 305.733 359.103 311.323 359.116C314.058 359.124 332.034 359.185 334.584 359.638C334.641 359.648 334.639 359.744 334.582 359.753C332.022 360.145 314.05 359.771 311.315 359.71C305.726 359.589 307.332 359.563 301.745 359.378C301.641 359.376 301.643 359.217 301.748 359.216Z" fill="#263238"/>
<path d="M329.979 339.346C330.048 333.992 330.138 328.638 330.24 323.284C330.443 312.576 330.635 301.869 330.833 291.162C331.227 269.857 331.543 248.551 331.863 227.246C332.044 215.229 332.039 203.205 332.348 191.192C332.348 191.16 332.395 191.162 332.396 191.192C332.595 201.9 332.474 212.616 332.456 223.325C332.437 234.035 332.393 244.745 332.289 255.455C332.081 276.764 331.785 298.071 331.281 319.374C331.139 325.382 330.993 331.392 330.787 337.398C330.581 343.403 330.444 349.421 330.022 355.415C330.016 355.509 329.878 355.505 329.876 355.412C329.779 350.06 329.909 344.699 329.979 339.346Z" fill="#263238"/>
<path d="M337.842 186.898L337.05 278.121L312.807 186.54H337.835L337.842 186.898Z" fill="#263238"/>
<path d="M389.925 314.252C389.925 314.252 407.195 342.322 407.207 342.343C410.012 348.097 412.368 353.192 413.341 355.941C413.349 355.955 413.356 355.968 413.357 355.986C413.725 357.023 413.893 357.718 413.799 357.971C413.792 357.991 413.792 358.009 413.782 358.023C412.636 360.018 367.306 383.775 365.447 384.071C363.584 384.378 362.597 379.091 363.62 376.765C364.658 374.432 377.937 357.578 377.937 357.578L360.959 329.383L389.925 314.252Z" fill="#AD6359"/>
<path d="M413.794 357.974C413.794 357.99 413.794 358.007 413.786 358.024C412.636 360.019 367.307 383.775 365.444 384.073C363.582 384.379 362.597 379.09 363.614 376.764C364.658 374.43 377.934 357.577 377.934 357.577L374.905 352.544C382.314 348.596 395.781 341.659 404.141 337.363C405.962 340.319 407.204 342.338 407.204 342.347C410.01 348.099 412.369 353.19 413.338 355.938C413.346 355.955 413.354 355.972 413.354 355.988C413.728 357.022 413.894 357.718 413.794 357.974Z" fill="white"/>
<path d="M365.446 384.072C367.309 383.776 412.635 360.022 413.784 358.02C414.234 357.268 411.158 350.461 407.204 342.344C407.162 342.259 407.12 342.175 407.078 342.091L377.664 357.09L377.936 357.581C377.936 357.581 364.654 374.433 363.621 376.767C362.598 379.088 363.586 384.376 365.446 384.072Z" fill="#E83153"/>
<path d="M365.037 382.047C372.579 377.854 403.395 361.659 411.17 358.088C411.233 358.059 411.255 358.1 411.195 358.136C403.81 362.454 372.864 378.4 365.103 382.172C364.939 382.251 364.879 382.135 365.037 382.047Z" fill="#263238"/>
<path d="M375.525 358.957C378.238 356.82 382.156 355.354 385.577 356.292C385.71 356.328 385.656 356.516 385.543 356.537C382.087 357.156 379.002 358.008 375.737 359.331C375.506 359.423 375.331 359.11 375.525 358.957Z" fill="#263238"/>
<path d="M374.04 361.402C376.753 359.265 380.672 357.8 384.092 358.737C384.225 358.773 384.171 358.962 384.058 358.982C380.601 359.602 377.517 360.454 374.252 361.776C374.021 361.869 373.846 361.555 374.04 361.402Z" fill="#263238"/>
<path d="M372.556 363.848C375.269 361.71 379.188 360.245 382.608 361.183C382.741 361.219 382.687 361.407 382.574 361.428C379.117 362.048 376.033 362.899 372.768 364.221C372.536 364.314 372.362 364 372.556 363.848Z" fill="#263238"/>
<path d="M310.698 186.508C310.698 186.508 310.698 186.516 310.706 186.539C310.839 187.161 312.953 196.97 315.144 205.396C316.737 211.552 318.378 216.962 319.318 217.522C320.383 218.152 325.575 220.452 327.317 221.175C327.317 221.175 338.994 279.468 345.158 297.544C350.846 314.224 374.387 358.808 374.387 358.808L408.539 341.552C408.539 341.552 381.867 296.304 379.063 288.185C374.716 275.599 358.428 214.147 358.428 214.147C358.428 214.147 358.552 194.908 352.073 186.508H310.698Z" fill="#455A64"/>
<path d="M374.89 352.149C379.77 349.423 378.33 350.137 383.241 347.465C385.644 346.157 401.441 337.581 403.897 336.755C403.951 336.737 403.996 336.821 403.95 336.856C401.892 338.429 385.947 346.73 383.52 347.99C378.559 350.566 379.956 349.772 374.966 352.293C374.873 352.341 374.798 352.201 374.89 352.149Z" fill="#263238"/>
<path d="M349.665 208.796C348.73 208.555 347.73 208.48 346.776 208.328C346.006 208.206 345.238 208.071 344.476 207.903C343.042 207.587 341.591 207.108 340.418 206.195C339.097 205.166 338.425 203.606 337.786 202.107C337.407 201.217 337.016 200.332 336.619 199.449C336.426 199.021 336.233 198.594 336.034 198.169C335.802 197.672 335.483 197.153 335.313 196.633C335.289 196.557 335.166 196.598 335.197 196.668C335.347 197.015 335.411 197.411 335.522 197.774C335.652 198.203 335.774 198.635 335.907 199.063C336.145 199.827 336.375 200.594 336.628 201.353C337.081 202.718 337.484 204.148 338.254 205.376C339.665 207.62 342.186 208.525 344.706 208.843C345.428 208.934 346.156 208.985 346.884 209.027C347.784 209.078 348.74 209.158 349.637 209.048C349.774 209.03 349.813 208.833 349.665 208.796Z" fill="#263238"/>
<path d="M316.554 216.146C320.261 217.421 323.838 219.232 327.258 221.131C327.392 221.206 327.304 221.414 327.158 221.351C323.553 219.803 319.875 218.321 316.36 216.576C316.085 216.439 316.271 216.048 316.554 216.146Z" fill="#263238"/>
<path d="M315.469 191.449C315.479 191.325 315.698 191.297 315.697 191.431C315.668 195.711 315.941 199.478 316.302 203.478C316.469 205.336 317.963 215.6 321.184 214.852C321.723 214.727 321.999 214.196 322.083 213.383C322.185 212.405 321.817 211.207 321.656 210.235C321.298 208.086 321.011 205.931 320.827 203.76C320.482 199.708 320.465 195.656 320.958 191.618C320.974 191.486 321.166 191.496 321.166 191.63C321.162 197.239 321.308 202.837 322.147 208.391C322.55 211.061 323.895 215.08 321.102 215.491C318.258 215.909 316.419 209.176 316.071 207.335C315.102 202.197 315.063 196.648 315.469 191.449Z" fill="#263238"/>
<path d="M321.099 215.128C321.389 215.817 321.623 216.535 321.823 217.256C321.978 217.815 322.188 218.42 322.124 219.004C322.111 219.118 321.962 219.128 321.9 219.052C321.522 218.573 321.363 217.918 321.153 217.35C320.908 216.692 320.649 216.039 320.423 215.374C320.272 214.933 320.919 214.702 321.099 215.128Z" fill="#263238"/>
<path d="M399.319 335.887C394.458 326.735 389.447 317.667 384.417 308.606C381.938 304.141 379.35 299.725 376.983 295.198C374.645 290.726 373.059 286.027 371.579 281.218C368.573 271.443 365.723 261.62 363.035 251.753C360.347 241.886 357.835 231.971 355.46 222.024C354.866 219.536 354.217 217.049 353.738 214.537C353.24 211.926 353.39 209.487 353.75 206.87C354.079 204.48 354.172 202.127 353.804 199.733C353.442 197.366 352.85 195.04 352.136 192.758C351.759 191.556 351.35 190.364 350.938 189.174C350.892 189.041 350.686 189.101 350.727 189.238C352.199 194.055 353.705 198.927 353.389 204.029C353.237 206.483 352.588 208.891 352.63 211.359C352.672 213.815 353.318 216.222 353.869 218.601C356.19 228.611 358.695 238.576 361.351 248.502C364.007 258.427 366.825 268.31 369.806 278.142C371.255 282.923 372.61 287.78 374.666 292.345C376.727 296.918 379.337 301.237 381.791 305.604C386.864 314.628 391.981 323.63 397.211 332.565C397.873 333.698 398.543 334.826 399.21 335.956C399.253 336.028 399.359 335.96 399.319 335.887Z" fill="#263238"/>
<path d="M175.533 152.897C172.769 153.815 158.739 137.4 160.975 135.416C161.465 134.98 163.944 131.623 164.474 130.911C166.375 128.357 167.501 124.664 168.744 118.913C169.796 114.083 170.806 106.79 173.424 107.259C177.243 107.932 177.075 117.306 176.651 122.681C179.311 121.448 181.715 120.636 183.29 120.677C188.519 120.812 197.651 140.39 193.415 143.607C189.33 146.708 178.336 151.967 175.533 152.897Z" fill="#AD6359"/>
<path d="M329.359 140.7C326.505 146.957 309.124 169.068 298.498 169.61C287.669 170.163 265.292 153.078 262.512 152.046C254.889 149.215 269.988 126.461 273.912 129.2C280.471 133.778 297.436 149.915 300.552 148.618C307.1 145.893 312.249 141.9 321.759 136.327C328.392 132.438 332.509 133.79 329.359 140.7Z" fill="#AD6359"/>
<path d="M270.584 154.409C273.424 153.762 279.474 135.069 277.467 132.854C277.088 132.44 274.749 130.19 273.913 129.2C273.092 128.227 269.296 123.663 267.303 118.126C265.62 113.478 263.653 106.384 261.121 107.195C257.424 108.368 258.832 117.637 259.964 122.909C257.164 122.038 254.673 121.552 253.118 121.802C247.954 122.629 244.733 142.986 249.357 145.613C253.816 148.145 267.745 155.057 270.584 154.409Z" fill="#AD6359"/>
<path d="M200.095 153.215C202.19 153.215 203.67 153.119 203.828 153.108L203.546 148.97C203.451 148.976 193.946 149.593 189.063 147.614C185.174 146.039 180.884 135.103 178.983 125.439C177.78 119.324 178.437 117.394 178.935 116.788C179.044 116.655 179.333 116.304 180.43 116.304H184.22C185.315 119.607 187.075 122.928 189.718 122.928H197.365V118.78H190.028C189.4 118.151 188.36 115.835 187.755 113.673L187.332 112.157L180.431 112.156C178.403 112.156 176.822 112.829 175.732 114.153C173.948 116.322 173.696 120.05 174.913 126.24C175.883 131.172 177.522 136.616 179.298 140.803C181.789 146.678 184.55 150.263 187.506 151.46C191.145 152.933 196.517 153.215 200.095 153.215Z" fill="#E83153"/>
<path opacity="0.2" d="M191.292 118.782H197.367V122.931H192.227L191.292 118.782Z" fill="black"/>
<path opacity="0.2" d="M203.829 153.108C203.667 153.117 202.191 153.216 200.094 153.216C199.743 153.216 199.383 153.216 199.005 153.198L198.078 149.04C201.093 149.13 203.496 148.977 203.55 148.968L203.829 153.108Z" fill="black"/>
<path d="M239.855 153.215C237.76 153.215 236.281 153.119 236.123 153.108L236.405 148.97C236.499 148.976 246.004 149.593 250.888 147.614C254.777 146.039 259.067 135.103 260.968 125.439C262.171 119.324 261.514 117.394 261.015 116.788C260.906 116.655 260.618 116.304 259.52 116.304H255.731C254.635 119.607 252.876 122.928 250.233 122.928H242.587V118.78H249.925C250.553 118.151 251.592 115.835 252.197 113.673L252.62 112.157L259.521 112.156C261.55 112.156 263.13 112.829 264.22 114.153C266.004 116.322 266.257 120.05 265.039 126.24C264.069 131.172 262.43 136.616 260.654 140.803C258.163 146.678 255.402 150.263 252.446 151.46C248.806 152.933 243.434 153.215 239.855 153.215Z" fill="#E83153"/>
<path opacity="0.2" d="M248.659 118.782H242.584V122.931H247.723L248.659 118.782Z" fill="black"/>
<path opacity="0.2" d="M236.122 153.108C236.284 153.117 237.76 153.216 239.857 153.216C240.208 153.216 240.568 153.216 240.946 153.198L241.873 149.04C238.858 149.13 236.455 148.977 236.401 148.968L236.122 153.108Z" fill="black"/>
<path d="M198.345 194.586V196.915H241.606V194.586H237.898L235.139 190.625L222.549 185.616V161.049H217.4V185.616L204.811 190.625L202.053 194.586H198.345Z" fill="#E83153"/>
<path d="M215.982 164.326H223.971V161.739H215.982V164.326Z" fill="#E83153"/>
<path opacity="0.2" d="M215.981 163.382L223.971 163.032V161.739H215.981V163.382Z" fill="black"/>
<path d="M193.523 109.407C193.523 109.407 195.542 142.874 200.82 152.123C206.097 161.372 217.35 162.161 219.978 162.161C222.601 162.161 233.859 161.372 239.131 152.123C244.409 142.875 246.428 109.407 246.428 109.407H193.523Z" fill="#E83153"/>
<path opacity="0.3" d="M215.955 161.784C211.41 161.019 204.588 158.733 200.817 152.127C195.543 142.875 193.518 109.404 193.518 109.404H198.495C199.179 116.433 200.519 143.281 204.336 151.092C207.671 157.919 215.424 161.586 215.955 161.784Z" fill="white"/>
<path opacity="0.2" d="M237.897 194.589H202.05L203.04 193.167L236.034 191.916L237.897 194.589Z" fill="black"/>
<path opacity="0.1" d="M219.975 119.974L222.818 125.735L229.176 126.659L224.575 131.143L225.662 137.475L219.975 134.485L214.289 137.475L215.375 131.143L210.775 126.659L217.132 125.735L219.975 119.974Z" fill="black"/>
<path d="M261.873 124.69C263.061 127.134 259.5 127.134 259.5 127.134C259.5 127.134 264.625 128.369 264.875 131.363C265.109 134.249 260.807 134.098 260.499 134.091C260.77 134.159 265.45 135.417 265.391 138.451C265.327 141.604 261.035 140.711 260.758 140.652C260.994 140.796 264.074 142.754 263.505 145.049C262.526 148.993 254.51 144.203 251.357 145.139C251.357 145.139 251.573 146.12 251.567 146.286C251.567 146.286 244.86 144.591 243.584 142.106C242.514 140.022 245.061 138.872 245.061 138.872C245.061 138.872 242.415 137.728 242.386 135.338C242.375 134.111 244.328 133 244.328 133C244.328 133 242.248 131.996 242.354 129.867C242.433 128.169 244.38 127.319 244.38 127.319C244.38 127.319 242.83 125.429 243.475 123.719C244.769 120.272 259.325 119.457 261.873 124.69Z" fill="#AD6359"/>
<path d="M244.667 127.139C244.619 127.145 244.6 127.079 244.648 127.064C249.37 125.627 254.998 125.497 259.692 127.113C259.846 127.166 259.827 127.439 259.647 127.414C254.49 126.673 249.854 126.428 244.667 127.139Z" fill="#263238"/>
<path d="M244.253 132.975C244.196 132.983 244.183 132.89 244.241 132.872C249.115 131.419 255.458 131.446 260.649 133.946C260.827 134.033 260.901 134.287 260.689 134.204C257.11 132.804 248.919 132.311 244.253 132.975Z" fill="#263238"/>
<path d="M261.06 140.952C255.989 138.747 250.721 138.389 245.258 138.8C245.187 138.805 245.187 138.704 245.245 138.684C247.863 137.755 251.372 137.856 254.096 138.166C256.705 138.463 259 139.255 261.137 140.775C261.22 140.833 261.168 140.998 261.06 140.952Z" fill="#263238"/>
<path d="M259.575 127.081C259.76 127.145 259.464 127.345 259.647 127.414C260.415 127.707 264.889 129.867 264.626 131.62C264.412 133.024 262.377 133.71 261.492 133.667L259.267 133.559L261.321 134.435C262.217 134.816 263.109 135.347 263.828 135.995C264.547 136.642 265.092 137.477 265.074 138.353C265.073 139.269 264.572 140.019 263.7 140.252C262.848 140.518 261.797 140.441 260.876 140.226L258.305 139.628L260.529 141.028C261.132 141.408 261.728 141.89 262.218 142.418C262.703 142.948 263.107 143.564 263.196 144.204C263.287 144.832 263.034 145.515 262.523 145.84C261.99 146.19 261.22 146.253 260.485 146.24C258.986 146.197 257.476 145.832 255.961 145.544C255.203 145.393 254.442 145.241 253.673 145.126C252.911 145.025 252.107 144.912 251.356 145.139C252.121 144.992 252.887 145.189 253.634 145.337C254.383 145.508 255.126 145.716 255.87 145.924C257.359 146.34 258.863 146.741 260.455 146.877C261.244 146.917 262.103 146.932 262.914 146.474C263.747 145.995 264.121 144.988 263.999 144.099C263.878 143.191 263.38 142.46 262.844 141.85C262.29 141.239 261.683 140.73 260.987 140.275L260.639 141.077C261.725 141.339 262.822 141.462 263.975 141.142C264.541 140.981 265.111 140.62 265.468 140.088C265.828 139.555 265.965 138.952 265.966 138.353C265.961 137.108 265.204 136.076 264.39 135.367C263.552 134.64 262.623 134.11 261.606 133.693L261.434 134.461C262.561 134.477 264.92 133.958 265.525 131.821C265.897 128.919 260.571 127.307 259.575 127.081Z" fill="#263238"/>
<path d="M259.5 127.134C260.078 127.005 260.629 126.825 261.068 126.566C261.509 126.31 261.754 125.906 261.752 125.485C261.759 125.062 261.496 124.584 261.19 124.138C260.866 123.696 260.504 123.249 260.111 122.801C260.673 123.007 261.195 123.322 261.639 123.748C262.072 124.171 262.489 124.73 262.513 125.486C262.498 125.861 262.381 126.216 262.16 126.509C261.931 126.793 261.631 126.991 261.322 127.1C260.707 127.328 260.074 127.296 259.5 127.134Z" fill="#263238"/>
<path d="M176.297 123.878C175.245 126.526 178.968 126.249 178.968 126.249C178.968 126.249 173.705 127.938 173.677 131.087C173.657 134.122 178.142 133.63 178.464 133.599C178.186 133.691 173.39 135.368 173.688 138.536C174 141.827 178.417 140.561 178.702 140.478C178.467 140.648 175.398 142.934 176.171 145.289C177.502 149.335 185.509 143.706 188.879 144.44C188.879 144.44 188.729 145.481 188.748 145.655C188.748 145.655 195.628 143.364 196.769 140.666C197.726 138.404 194.974 137.399 194.974 137.399C194.974 137.399 197.651 135.998 197.496 133.497C197.413 132.214 195.286 131.204 195.286 131.204C195.286 131.204 197.382 129.992 197.105 127.776C196.89 126.006 194.79 125.269 194.79 125.269C194.79 125.269 196.263 123.172 195.456 121.436C193.835 117.932 178.555 118.211 176.297 123.878Z" fill="#AD6359"/>
<path d="M194.475 125.104C194.525 125.106 194.54 125.036 194.489 125.024C189.441 123.89 183.548 124.189 178.766 126.243C178.61 126.311 178.651 126.595 178.837 126.554C184.17 125.379 188.997 124.763 194.475 125.104Z" fill="#263238"/>
<path d="M195.359 131.173C195.419 131.178 195.426 131.079 195.364 131.065C190.157 129.924 183.528 130.444 178.295 133.461C178.115 133.565 178.058 133.837 178.273 133.734C181.905 131.991 190.431 130.84 195.359 131.173Z" fill="#263238"/>
<path d="M178.409 140.816C183.539 138.118 189.017 137.335 194.76 137.34C194.835 137.34 194.828 137.235 194.765 137.218C191.957 136.449 188.295 136.828 185.471 137.362C182.767 137.875 180.429 138.882 178.313 140.636C178.232 140.704 178.3 140.873 178.409 140.816Z" fill="#263238"/>
<path d="M178.885 126.2C178.697 126.281 179.023 126.467 178.836 126.554C178.056 126.92 173.546 129.524 173.957 131.336C174.29 132.787 176.471 133.347 177.393 133.233L179.711 132.948L177.632 134.023C176.725 134.492 175.833 135.114 175.132 135.849C174.431 136.58 173.926 137.495 174.012 138.41C174.083 139.368 174.666 140.114 175.595 140.29C176.507 140.502 177.6 140.339 178.546 140.044L181.187 139.218L178.97 140.855C178.37 141.299 177.783 141.849 177.313 142.439C176.846 143.031 176.472 143.707 176.428 144.382C176.382 145.044 176.699 145.739 177.259 146.039C177.843 146.363 178.653 146.37 179.42 146.3C180.984 146.139 182.534 145.64 184.095 145.221C184.876 145.005 185.66 144.788 186.454 144.608C187.243 144.444 188.075 144.262 188.878 144.441C188.067 144.346 187.281 144.611 186.512 144.824C185.741 145.062 184.982 145.337 184.219 145.612C182.695 146.162 181.154 146.698 179.501 146.964C178.679 147.066 177.782 147.148 176.9 146.733C175.991 146.298 175.522 145.274 175.58 144.335C175.636 143.376 176.1 142.574 176.612 141.894C177.144 141.212 177.739 140.633 178.432 140.104L178.857 140.915C177.743 141.272 176.605 141.486 175.375 141.241C174.771 141.116 174.146 140.783 173.732 140.254C173.315 139.725 173.124 139.105 173.077 138.479C172.986 137.176 173.697 136.039 174.493 135.236C175.314 134.411 176.243 133.785 177.274 133.27L177.513 134.06C176.337 134.164 173.831 133.804 173.032 131.618C172.418 128.612 177.862 126.513 178.885 126.2Z" fill="#263238"/>
<path d="M178.968 126.25C178.353 126.16 177.763 126.015 177.285 125.778C176.804 125.543 176.515 125.142 176.486 124.701C176.446 124.26 176.683 123.74 176.969 123.25C177.273 122.763 177.617 122.267 177.993 121.768C177.421 122.027 176.9 122.397 176.469 122.878C176.05 123.353 175.657 123.971 175.69 124.763C175.736 125.153 175.884 125.516 176.138 125.804C176.4 126.084 176.729 126.267 177.06 126.357C177.721 126.546 178.38 126.464 178.968 126.25Z" fill="#263238"/>
<path d="M313.905 165.12L301.456 147.71C301.456 147.71 312.356 140.122 321.307 135.613C330.259 131.104 336.238 133.232 327.362 146.757C318.484 160.281 313.905 165.12 313.905 165.12Z" fill="#E83153"/>
<path d="M316.157 161.186C310.891 154.861 306.355 147.446 305.468 146.208C305.426 146.149 305.529 146.091 305.568 146.152C306.372 147.41 312.512 155.344 316.267 161.124C316.311 161.192 316.208 161.247 316.157 161.186Z" fill="#263238"/>
<path d="M327.357 146.754C318.483 160.281 313.902 165.123 313.902 165.123L306.819 155.205L331.452 135.099C332.307 137.034 331.281 140.778 327.357 146.754Z" fill="#263238"/>
<path d="M358.213 198.549C358.086 198.682 306.264 197.376 305.8 196.816C305.153 196.027 314.796 145.72 323.796 134.584C326.047 131.8 333.269 131.434 336.603 134.138C353.125 147.537 358.666 198.067 358.213 198.549Z" fill="#E83153"/>
<path opacity="0.1" d="M346.815 149.328L317.259 148.41C317.394 148.023 317.529 147.645 317.664 147.276L346.293 148.158C346.473 148.545 346.644 148.932 346.815 149.328ZM347.769 151.605L316.503 150.642C316.386 151.02 316.26 151.398 316.134 151.785L348.228 152.775C348.075 152.379 347.922 151.992 347.769 151.605ZM349.074 155.052L315.441 154.017C315.315 154.395 315.198 154.773 315.09 155.16L349.488 156.222C349.353 155.826 349.218 155.439 349.074 155.052ZM350.253 158.499L314.424 157.401L314.1 158.535L350.622 159.66C350.505 159.273 350.379 158.886 350.253 158.499ZM351.324 161.937L313.47 160.776C313.362 161.154 313.263 161.532 313.155 161.91L351.666 163.098C351.549 162.711 351.441 162.324 351.324 161.937ZM352.305 165.375L312.561 164.151C312.462 164.529 312.363 164.916 312.264 165.294L352.611 166.536C352.512 166.149 352.404 165.762 352.305 165.375ZM353.196 168.813L311.688 167.526C311.598 167.904 311.499 168.291 311.409 168.669L353.484 169.974C353.394 169.587 353.295 169.2 353.196 168.813ZM354.015 172.242L310.86 170.91C310.761 171.288 310.671 171.675 310.59 172.053L354.285 173.403C354.195 173.016 354.114 172.629 354.015 172.242ZM354.78 175.671L310.059 174.285C309.969 174.672 309.879 175.059 309.789 175.437L355.023 176.832C354.942 176.445 354.861 176.058 354.78 175.671ZM355.473 179.091L309.285 177.669C309.204 178.056 309.123 178.434 309.033 178.812L355.698 180.252C355.626 179.874 355.554 179.487 355.473 179.091ZM356.121 182.52L308.556 181.053C308.466 181.44 308.385 181.818 308.304 182.196L356.319 183.681C356.256 183.303 356.193 182.916 356.121 182.52ZM356.706 185.949L307.845 184.437C307.764 184.824 307.692 185.211 307.611 185.58L356.895 187.101C356.832 186.723 356.769 186.336 356.706 185.949ZM357.237 189.378L307.17 187.83C307.098 188.217 307.026 188.595 306.954 188.964L357.399 190.521C357.345 190.152 357.291 189.765 357.237 189.378ZM357.705 192.798L306.54 191.214C306.477 191.619 306.405 191.997 306.351 192.357L357.849 193.941C357.804 193.581 357.759 193.194 357.705 192.798ZM358.092 196.209L305.982 194.607C305.928 195.048 305.874 195.435 305.838 195.75L358.191 197.361C358.164 197.037 358.137 196.65 358.092 196.209Z" fill="black"/>
<path d="M329.76 131.209C325.649 131.371 323.734 132.538 322.454 136.148C321.175 139.757 322.819 143.63 325.796 144.178C328.772 144.727 333.632 142.37 336.672 137.731C339.713 133.092 334.821 131.01 329.76 131.209Z" fill="#455A64"/>
<path d="M326.366 141.25C328.561 141.68 333.773 138.24 336.087 135.029C336.245 134.807 336.191 132.273 336.273 129.189C336.33 127.318 336.437 125.236 336.673 123.343L324.444 124.753C324.444 124.753 325.118 128.866 324.688 132.162C324.649 132.438 324.59 132.691 324.51 132.929C324.501 132.964 324.485 133.007 324.476 133.056C324.052 134.501 322.93 140.576 326.366 141.25Z" fill="#AD6359"/>
<path d="M324.51 132.93C324.501 132.966 324.483 133.002 324.474 133.056C324.843 133.155 325.239 133.227 325.689 133.272C332.457 133.956 335.13 125.937 335.787 123.444L324.438 124.749C324.438 124.749 325.113 128.862 324.69 132.165C324.645 132.435 324.591 132.687 324.51 132.93Z" fill="#263238"/>
<path d="M338.878 107.327C340.161 111.572 337.891 123.819 334.867 126.544C330.483 130.493 323.321 130.854 319.97 125.588C316.721 120.483 319.964 104.575 323.339 102.101C328.312 98.4555 336.983 101.057 338.878 107.327Z" fill="#AD6359"/>
<path d="M327.602 114.13C327.614 114.1 327.659 114.181 327.651 114.215C327.466 115.034 327.391 116.003 328.084 116.42C328.106 116.433 328.095 116.474 328.068 116.465C327.183 116.161 327.295 114.876 327.602 114.13Z" fill="#263238"/>
<path d="M328.504 113.413C329.848 113.568 329.439 116.246 328.193 116.102C326.967 115.96 327.377 113.282 328.504 113.413Z" fill="#263238"/>
<path d="M322.724 113.21C322.723 113.178 322.653 113.239 322.649 113.273C322.548 114.107 322.293 115.043 321.501 115.205C321.476 115.209 321.472 115.251 321.501 115.252C322.435 115.263 322.762 114.016 322.724 113.21Z" fill="#263238"/>
<path d="M322.116 112.231C320.797 111.926 320.283 114.585 321.504 114.868C322.707 115.146 323.221 112.486 322.116 112.231Z" fill="#263238"/>
<path d="M329.748 112.35C329.397 112.202 329.1 112.008 328.767 111.826C328.393 111.621 328.074 111.496 327.869 111.101C327.759 110.888 327.869 110.555 328.065 110.429C328.522 110.135 329.042 110.273 329.503 110.501C330.002 110.75 330.324 111.068 330.555 111.575C330.777 112.067 330.21 112.544 329.748 112.35Z" fill="#263238"/>
<path d="M321.343 111.045C321.724 111.041 322.074 110.975 322.449 110.931C322.873 110.884 323.216 110.888 323.555 110.601C323.738 110.446 323.762 110.097 323.628 109.905C323.318 109.461 322.784 109.391 322.271 109.427C321.715 109.468 321.296 109.641 320.891 110.022C320.499 110.393 320.842 111.049 321.343 111.045Z" fill="#263238"/>
<path d="M327.191 121.945C326.962 122.109 326.723 122.346 326.418 122.325C326.126 122.306 325.807 122.124 325.559 121.981C325.535 121.966 325.503 121.99 325.517 122.017C325.683 122.368 326.106 122.638 326.5 122.629C326.885 122.62 327.121 122.324 327.265 121.995C327.284 121.949 327.224 121.921 327.191 121.945Z" fill="#263238"/>
<path d="M326.699 119.329C326.125 119.978 325.382 120.267 324.622 120.297C324.283 120.313 323.934 120.271 323.599 120.188C323.532 120.176 323.466 120.158 323.408 120.136C323.348 120.119 323.295 120.103 323.231 120.08C323.136 120.051 323.095 119.963 323.093 119.868L323.094 119.862C323.099 119.831 323.103 119.807 323.114 119.778C323.114 119.778 323.114 119.778 323.115 119.772L323.128 119.699C323.208 119.058 323.419 118.096 323.419 118.096C323.168 118.177 321.896 118.53 321.966 118.2C322.554 115.464 323.207 112.42 324.37 109.822C324.404 109.734 324.54 109.777 324.518 109.866C324.058 112.518 323.133 115.071 322.628 117.728C323.03 117.642 323.69 117.47 324.023 117.527C324.11 117.568 323.583 119.379 323.571 119.669C323.571 119.669 323.568 119.682 323.572 119.701C324.624 120.002 325.481 119.803 326.633 119.241C326.702 119.204 326.759 119.271 326.699 119.329Z" fill="#263238"/>
<path d="M324.025 119.921C324.025 119.921 324.474 120.772 325.208 121.166C325.478 121.313 325.779 121.4 326.115 121.363C326.804 121.29 326.913 120.686 326.871 120.146C326.838 119.704 326.696 119.305 326.696 119.305C326.696 119.305 325.59 120.063 324.025 119.921Z" fill="#263238"/>
<path d="M325.207 121.167C325.477 121.314 325.778 121.401 326.114 121.364C326.803 121.291 326.912 120.686 326.87 120.147C326.149 120.111 325.373 120.486 325.207 121.167Z" fill="#FF9BBC"/>
<path d="M338.342 116.645C338.342 116.645 341.904 109.301 341.137 105.318C340.79 103.518 338.2 102.524 338.2 102.524C338.2 102.524 338.734 100.246 336.518 98.5168C334.183 96.6943 329.022 97.633 329.022 97.633C329.022 97.633 325.196 93.0736 320.604 95.4514C316.013 97.8292 319.625 102.947 319.625 102.947C319.625 102.947 318.105 105.595 322.563 107.139C326.904 108.642 335.243 105.989 335.243 105.989C335.243 105.989 334.962 110.415 336.196 114.792C336.654 116.415 338.342 116.645 338.342 116.645Z" fill="#263238"/>
<path d="M328.205 97.7734C329.216 97.2181 330.359 96.9526 331.504 96.8473C332.52 96.7546 333.58 96.7834 334.571 97.0381C336.344 97.4944 337.989 98.6167 338.453 100.475C338.686 101.409 338.53 102.358 338.033 103.179C338.013 103.212 337.963 103.174 337.984 103.141C338.961 101.672 338.182 99.6022 336.936 98.5645C335.525 97.3909 333.509 97.084 331.728 97.174C330.537 97.2343 329.383 97.5322 328.245 97.8724C328.178 97.894 328.144 97.8067 328.205 97.7734Z" fill="#263238"/>
<path d="M317.406 98.0721C317.678 96.6996 318.743 95.7339 319.991 95.2038C321.413 94.599 323.037 94.5369 324.522 94.9401C326.036 95.3514 327.38 96.219 328.471 97.3341C328.496 97.3584 328.452 97.4016 328.428 97.3773C326.436 95.4225 323.515 94.4757 320.797 95.3208C319.581 95.6988 318.399 96.4539 317.936 97.6923C317.509 98.8308 317.752 100.205 318.373 101.226C319.14 102.487 320.425 103.375 321.727 104.015C321.756 104.029 321.737 104.076 321.706 104.063C320.453 103.532 319.26 102.821 318.406 101.739C317.599 100.717 317.148 99.3717 317.406 98.0721Z" fill="#263238"/>
<path d="M321.552 107.462C323.515 108.1 325.61 108.174 327.649 107.942C329.783 107.7 331.853 107.183 333.883 106.489C335.062 106.086 336.225 105.638 337.379 105.17C337.416 105.155 337.436 105.209 337.402 105.227C335.389 106.273 333.32 107.222 331.125 107.825C329.081 108.385 326.995 108.6 324.885 108.348C323.735 108.212 322.611 107.924 321.532 107.504C321.505 107.493 321.524 107.453 321.552 107.462Z" fill="#263238"/>
<path d="M336.234 117.306C336.234 117.306 339.093 113.407 340.869 114.436C342.644 115.465 340.431 121.16 338.303 121.898C336.175 122.636 335.453 120.679 335.453 120.679L336.234 117.306Z" fill="#AD6359"/>
<path d="M340.194 116.052C340.228 116.05 340.233 116.097 340.204 116.109C338.711 116.675 337.901 118.03 337.323 119.44C337.776 118.903 338.381 118.616 339.103 119.156C339.141 119.185 339.102 119.245 339.061 119.235C338.458 119.091 338.018 119.186 337.597 119.662C337.299 120 337.091 120.43 336.875 120.821C336.803 120.952 336.565 120.876 336.619 120.725C336.623 120.714 336.628 120.703 336.632 120.691C336.638 118.804 338.164 116.196 340.194 116.052Z" fill="#263238"/>
<path d="M339.038 152.005C336.839 157.306 324.004 185.158 315.869 189.311C303.773 195.489 284.651 197.462 277.63 197.587C274.571 197.642 271.693 174.509 274.919 173.968C281.831 172.811 303.593 171.228 305.805 170.183C308.017 169.138 321.311 153.594 328.652 145.799C338.501 135.343 344.379 139.128 339.038 152.005Z" fill="#AD6359"/>
<path d="M277.593 197.637C267.547 198.472 252.067 190.462 250.219 188.803C248.64 187.394 247.84 186.653 247.84 186.653C244.959 184.181 244.918 181.93 244.918 181.93C244.918 181.93 240.745 180.053 241.461 177.342C242.255 174.3 247.96 177.532 252.185 177.39C261.863 177.066 275.531 173.898 278.313 173.527L277.593 197.637Z" fill="#AD6359"/>
<path d="M262.566 184.179C259.716 184.217 256.917 184.33 254.076 183.982C250.96 183.601 248.025 182.712 245.013 181.88C244.92 181.854 244.874 181.982 244.962 182.022C250.174 184.39 256.93 185.28 262.579 184.425C262.716 184.405 262.709 184.177 262.566 184.179Z" fill="#263238"/>
<path d="M263.61 189.992C260.834 189.876 255.958 189.64 247.872 186.565C247.846 186.556 247.82 186.597 247.847 186.612C252.832 189.307 257.975 190.507 263.589 190.271C263.764 190.264 263.795 190 263.61 189.992Z" fill="#263238"/>
<path d="M263.822 176.261C265.065 175.72 264.789 175.063 262.456 174.454C260.097 173.831 250.372 173.41 250.81 170.022C251.245 166.621 264.999 167.443 268.805 168.756C272.615 170.06 278.506 173.619 278.506 173.619C275.8 173.997 269.123 175.45 263.822 176.261Z" fill="#AD6359"/>
<path d="M330.333 173.725L314.211 159.649C314.211 159.649 323.07 149.756 330.744 143.306C338.416 136.858 344.725 137.551 339.201 152.756C333.676 167.962 330.333 173.725 330.333 173.725Z" fill="#E83153"/>
<path d="M331.62 169.377C325.038 164.436 318.917 158.264 317.769 157.263C317.715 157.216 317.802 157.136 317.854 157.186C318.926 158.225 326.729 164.531 331.713 169.293C331.771 169.348 331.683 169.425 331.62 169.377Z" fill="#263238"/>
<path d="M328.904 172.477C329.221 172.626 330.234 173.628 330.318 173.711C331.687 170.771 332.889 167.803 334.099 164.795C334.71 163.274 335.315 161.751 335.923 160.23C336.539 158.689 337.089 157.082 337.846 155.605C337.866 155.565 337.931 155.586 337.921 155.631C337.606 157.029 337.11 158.405 336.633 159.764C336.667 159.71 336.698 159.654 336.733 159.601C337.138 158.995 337.534 158.389 337.898 157.757C337.941 157.682 338.055 157.739 338.018 157.817C337.7 158.479 337.378 159.151 337.008 159.786C336.832 160.088 336.635 160.376 336.428 160.656C336.367 160.739 336.299 160.815 336.233 160.893C335.752 162.267 335.253 163.633 334.713 164.985C334.106 166.506 333.453 168.011 332.767 169.499C332.07 171.009 330.552 174.013 330.426 174.019C330.281 174.025 329.086 172.85 328.881 172.567C328.848 172.523 328.858 172.455 328.904 172.477Z" fill="#263238"/>
<path d="M314.073 159.657C315.806 157.629 317.614 155.489 319.499 153.594C320.157 152.933 320.838 152.297 321.515 151.658C322.105 150.817 322.791 150.041 323.446 149.249C323.502 149.181 323.597 149.271 323.546 149.339C323.195 149.796 322.853 150.265 322.499 150.723C323.441 149.859 324.399 149.01 325.37 148.177C325.401 148.15 325.451 148.191 325.419 148.222C323.53 150.086 321.678 151.988 319.837 153.899C317.995 155.811 316.078 157.671 314.292 159.633C314.287 159.638 315.304 160.541 315.264 160.567C315.219 160.597 314.059 159.674 314.073 159.657Z" fill="#263238"/>
<path d="M167.535 382.744C165.786 383.308 115.916 382.782 114.026 381.56C113.307 381.1 112.961 373.832 112.791 365.038C112.754 363.139 112.728 361.178 112.711 359.186C112.594 346.255 112.772 332.531 112.772 332.531L146.133 332.787L145.155 359.435L144.945 365.285C144.945 365.285 163.948 374.027 165.877 375.59C167.795 377.153 169.284 382.18 167.535 382.744Z" fill="#AD6359"/>
<path d="M167.534 382.743C165.788 383.31 115.919 382.779 114.029 381.564C113.309 381.096 112.958 373.833 112.796 365.04C112.751 363.141 112.724 361.179 112.715 359.19C112.697 357.138 112.688 355.068 112.679 353.034H145.394L145.16 359.433L144.944 365.283C144.944 365.283 163.952 374.031 165.878 375.588C167.795 377.154 169.28 382.176 167.534 382.743Z" fill="#EBEBEB"/>
<path d="M167.686 382.817C165.928 383.385 115.779 382.855 113.878 381.626C113 381.059 112.667 370.389 112.556 359.128L145.181 359.378L144.969 365.261C144.969 365.261 164.079 374.052 166.018 375.623C167.948 377.195 169.445 382.25 167.686 382.817Z" fill="#E83153"/>
<path d="M166.989 380.804C158.584 380.508 124.659 380.111 116.329 380.458C116.261 380.461 116.26 380.507 116.329 380.511C124.653 380.985 158.58 381.108 166.989 380.942C167.165 380.938 167.166 380.81 166.989 380.804Z" fill="#263238"/>
<path d="M146.174 363.406C142.872 362.753 138.821 363.218 136.269 365.549C136.17 365.639 136.3 365.778 136.408 365.746C139.683 364.751 142.737 364.123 146.157 363.823C146.398 363.802 146.411 363.452 146.174 363.406Z" fill="#263238"/>
<path d="M148.548 364.87C145.246 364.217 141.195 364.683 138.642 367.013C138.543 367.103 138.673 367.242 138.781 367.21C142.056 366.215 145.111 365.587 148.531 365.288C148.771 365.267 148.783 364.917 148.548 364.87Z" fill="#263238"/>
<path d="M150.92 366.334C147.619 365.682 143.567 366.147 141.015 368.477C140.916 368.567 141.045 368.707 141.153 368.674C144.428 367.68 147.483 367.052 150.903 366.752C151.143 366.73 151.157 366.381 150.92 366.334Z" fill="#263238"/>
<path d="M153.293 367.799C149.99 367.146 145.94 367.611 143.387 369.941C143.288 370.031 143.418 370.171 143.526 370.139C146.801 369.144 149.855 368.516 153.275 368.217C153.516 368.195 153.529 367.845 153.293 367.799Z" fill="#263238"/>
<path d="M152.365 355.82C151.085 354.016 148.656 354.795 147.262 355.941C145.006 357.797 143.018 360.711 142.087 363.465C142.065 363.533 142.11 363.575 142.164 363.585C142.171 363.837 142.394 364.105 142.679 364.003C145.421 363.02 148.475 362.309 150.834 360.515C152.211 359.468 153.577 357.526 152.365 355.82ZM146.532 361.664C145.194 362.18 143.841 362.627 142.523 363.193C143.536 361.728 144.481 360.228 145.642 358.865C146.195 358.215 146.776 357.558 147.415 356.99C148.408 356.105 152.325 354.24 151.703 357.863C151.361 359.861 148.125 361.049 146.532 361.664Z" fill="#263238"/>
<path d="M133.689 362.513C136.403 363.703 139.538 363.678 142.434 363.99C142.735 364.022 142.888 363.708 142.836 363.462C142.887 363.439 142.921 363.388 142.882 363.327C141.331 360.868 138.714 358.502 136.086 357.228C134.463 356.441 131.918 356.253 131.097 358.308C130.319 360.251 132.104 361.817 133.689 362.513ZM132.22 360.139C130.765 356.763 135.011 357.656 136.183 358.283C136.938 358.686 137.657 359.188 138.347 359.689C139.795 360.741 141.066 361.978 142.394 363.164C140.98 362.924 139.559 362.807 138.138 362.619C136.446 362.395 133.022 362 132.22 360.139Z" fill="#263238"/>
<path d="M102.737 189.75C102.737 189.75 112.466 271.674 112.674 272.779C112.704 272.925 109.91 348.251 109.91 348.251H146.289C146.289 348.251 147.274 283.736 145.923 270.783C144.203 254.261 133.363 189.75 133.363 189.75H102.737Z" fill="#263238"/>
<path d="M112.002 340.774C117.591 340.658 115.985 340.612 121.574 340.558C124.309 340.532 142.285 340.376 144.84 340.799C144.897 340.808 144.897 340.903 144.84 340.912C142.284 341.335 124.309 341.178 121.574 341.152C115.984 341.098 117.59 341.053 112.002 340.936C111.897 340.935 111.897 340.777 112.002 340.774Z" fill="#37474F"/>
<path d="M117.479 266.069C116.969 261.439 116.304 256.825 115.698 252.208C114.475 242.908 113.249 233.608 111.995 224.312C110.574 213.773 109.062 203.251 107.566 192.722C107.548 192.595 107.347 192.596 107.363 192.727C108.491 202.126 109.62 211.521 110.782 220.915C111.933 230.22 113.163 239.516 114.377 248.813C115.579 258.028 117.169 267.279 117.126 276.596C117.104 281.282 116.901 285.971 116.771 290.655C116.642 295.345 116.508 300.034 116.383 304.724C116.099 315.338 115.697 325.968 115.802 336.587C115.803 336.725 116.004 336.715 116.013 336.582C116.655 327.119 116.858 317.625 117.169 308.147C117.477 298.771 117.812 289.392 118.013 280.013C118.113 275.346 117.989 270.713 117.479 266.069Z" fill="#37474F"/>
<path d="M79.9902 381.068C78.2262 380.555 37.2321 352.15 36.3528 350.079C36.0153 349.295 39.8043 343.083 44.595 335.707C45.6291 334.114 46.7073 332.476 47.8116 330.819C54.9666 320.046 62.8101 308.784 62.8101 308.784L90.288 327.705L74.5326 349.219L71.0775 353.944C71.0775 353.944 81.909 371.84 82.629 374.215C83.3409 376.585 81.7542 381.582 79.9902 381.068Z" fill="#AD6359"/>
<path d="M79.9902 381.066C78.2271 380.557 37.2366 352.149 36.3528 350.083C36.0189 349.292 39.8016 343.082 44.5986 335.711C45.6264 334.113 46.7046 332.474 47.8125 330.822C48.9483 329.113 50.1021 327.394 51.2352 325.705L78.3207 344.052L74.538 349.219L71.0784 353.941C71.0784 353.941 81.9099 371.844 82.6308 374.214C83.34 376.586 81.7533 381.577 79.9902 381.066Z" fill="#EBEBEB"/>
<path d="M80.0748 381.214C78.3009 380.698 37.0773 352.134 36.1935 350.051C35.7849 349.089 41.4936 340.068 47.7162 330.683L74.5866 349.187L71.1126 353.939C71.1126 353.939 82.0044 371.934 82.728 374.323C83.4444 376.705 81.8487 381.73 80.0748 381.214Z" fill="#E83153"/>
<path d="M80.6265 379.155C73.8333 374.197 45.9684 354.841 38.8773 350.457C38.8197 350.422 38.7936 350.459 38.8476 350.5C45.4725 355.561 73.494 374.69 80.5491 379.268C80.6967 379.366 80.7696 379.26 80.6265 379.155Z" fill="#263238"/>
<path d="M73.1512 353.078C70.7833 350.686 67.168 348.8 63.748 349.297C63.6157 349.316 63.6445 349.504 63.7525 349.538C67.0213 350.551 69.9031 351.744 72.9028 353.414C73.1134 353.532 73.3204 353.249 73.1512 353.078Z" fill="#263238"/>
<path d="M74.2941 355.621C71.9262 353.229 68.3118 351.342 64.8909 351.84C64.7586 351.859 64.7874 352.047 64.8954 352.08C68.1642 353.094 71.046 354.287 74.0457 355.956C74.2563 356.074 74.4633 355.792 74.2941 355.621Z" fill="#263238"/>
<path d="M75.4372 358.164C73.0693 355.772 69.4549 353.886 66.034 354.383C65.9017 354.402 65.9305 354.59 66.0385 354.624C69.3073 355.637 72.1882 356.83 75.1888 358.5C75.4003 358.618 75.6073 358.335 75.4372 358.164Z" fill="#263238"/>
<path d="M76.5802 360.707C74.2123 358.314 70.597 356.428 67.177 356.926C67.0447 356.945 67.0744 357.133 67.1815 357.166C70.4503 358.179 73.3321 359.373 76.3318 361.042C76.5433 361.16 76.7503 360.878 76.5802 360.707Z" fill="#263238"/>
<path d="M82.5309 350.269C82.4823 348.057 80.0334 347.341 78.2379 347.508C75.3291 347.779 72.0486 349.077 69.7338 350.835C69.6771 350.879 69.6906 350.939 69.7302 350.978C69.5943 351.19 69.6285 351.537 69.921 351.613C72.7425 352.338 75.6693 353.462 78.6294 353.298C80.3565 353.202 82.5768 352.362 82.5309 350.269ZM74.4228 351.835C73.026 351.513 71.6544 351.123 70.2468 350.853C71.9073 350.208 73.5318 349.495 75.2562 349.018C76.0788 348.791 76.9284 348.573 77.7762 348.459C79.0947 348.284 83.3832 348.936 80.8371 351.588C79.4331 353.051 76.0869 352.22 74.4228 351.835Z" fill="#263238"/>
<path d="M63.3141 345.336C64.8936 347.844 67.5036 349.581 69.7266 351.463C69.957 351.658 70.2603 351.484 70.3557 351.251C70.4106 351.26 70.4673 351.237 70.47 351.166C70.5645 348.261 69.7257 344.833 68.2641 342.304C67.3614 340.743 65.3598 339.161 63.5274 340.4C61.7931 341.574 62.3916 343.871 63.3141 345.336ZM63.4293 342.546C64.1187 338.936 67.1319 342.055 67.752 343.233C68.1498 343.99 68.4639 344.809 68.7546 345.612C69.3639 347.294 69.7221 349.032 70.1568 350.759C69.1218 349.767 68.0103 348.873 66.9393 347.921C65.6631 346.785 63.0495 344.537 63.4293 342.546Z" fill="#263238"/>
<path d="M133.363 189.75C133.363 189.75 127.702 207.21 121.294 216.015C121.294 216.015 119.622 280.571 117.014 287.986C112.691 300.272 84.6793 342.618 84.6793 342.618L53.8732 321.343C53.8732 321.343 80.4853 282.022 82.1683 277.561C83.287 274.599 86.5423 223.428 86.0743 222.143C80.4259 206.655 88.9417 189.751 88.9417 189.751H133.363V189.75Z" fill="#263238"/>
<path d="M60.4467 314.853C65.1132 317.931 63.8172 316.982 68.4486 320.112C70.7148 321.644 85.5999 331.723 87.4629 333.522C87.5043 333.562 87.4503 333.64 87.3981 333.616C85.0536 332.512 70.3476 322.176 68.1111 320.601C63.5409 317.382 64.8882 318.256 60.354 314.987C60.2685 314.926 60.3585 314.795 60.4467 314.853Z" fill="#37474F"/>
<path d="M89.9712 220.273C89.5131 218.261 89.0046 216.255 88.6995 214.212C88.3908 212.146 88.3197 210.054 88.4394 207.97C88.6824 203.751 89.6148 199.587 90.7182 195.518C90.9945 194.499 91.2852 193.485 91.5858 192.472C91.6407 192.29 91.3554 192.22 91.2987 192.401C90.0603 196.402 88.7976 200.399 88.1649 204.549C87.552 208.573 87.6555 212.572 88.4772 216.557C89.3187 220.636 90.5049 224.615 90.3465 228.824C90.2646 231.005 87.6672 271.566 87.6699 273.67C87.6726 275.736 87.5799 277.817 86.8509 279.773C86.1462 281.662 85.0284 283.375 83.9817 285.087C82.8738 286.9 81.7515 288.704 80.6238 290.506C76.1832 297.601 71.6265 304.644 66.8916 311.548C66.2913 312.423 65.6883 313.296 65.0844 314.169C65.0223 314.259 65.1699 314.337 65.232 314.251C70.2054 307.392 75.0105 300.43 79.5942 293.303C81.8424 289.808 84.1392 286.309 86.184 282.69C87.1497 280.981 87.8895 279.192 88.1451 277.234C88.4016 275.274 91.1493 228.303 90.9846 226.193C90.8298 224.192 90.4149 222.224 89.9712 220.273Z" fill="#37474F"/>
<path d="M104.027 195.673C103.26 198.819 103.373 202.748 101.136 205.332C100.029 206.611 98.4169 207.252 96.7951 207.591C94.9348 207.978 93.0367 208.023 91.1458 207.903C91.063 207.897 91.0594 208.019 91.1305 208.041C94.5064 209.118 99.1927 208.937 101.748 206.155C102.923 204.876 103.443 203.191 103.696 201.507C103.982 199.608 104.146 197.608 104.165 195.688C104.166 195.608 104.045 195.596 104.027 195.673Z" fill="#37474F"/>
<path d="M121.516 216.131C121.491 215.82 121.054 215.843 121.026 216.142C120.892 217.57 120.915 219.007 120.872 220.439C120.83 221.795 120.802 223.152 120.766 224.508C120.691 227.295 120.631 230.082 120.568 232.87C120.439 238.444 120.277 244.016 120.044 249.588C119.812 255.158 119.56 260.728 119.278 266.297C119.137 269.079 118.968 271.86 118.808 274.641C118.653 277.32 118.49 280.005 117.979 282.648C116.935 288.037 114.81 293.35 111.939 298.074C111.871 298.187 112.044 298.27 112.118 298.17C115.132 294.126 117.245 289.659 118.42 284.799C119.68 279.59 119.812 274.191 120.112 268.87C120.748 257.622 121.16 246.371 121.441 235.108C121.521 231.945 121.59 228.781 121.599 225.618C121.603 224.075 121.612 222.531 121.602 220.987C121.592 219.371 121.647 217.743 121.516 216.131Z" fill="#37474F"/>
<path d="M127.203 213.405C123.497 214.621 119.92 216.348 116.5 218.158C116.366 218.229 116.454 218.427 116.6 218.369C120.205 216.892 123.882 215.479 127.398 213.815C127.674 213.684 127.488 213.311 127.203 213.405Z" fill="#37474F"/>
<path d="M128.289 189.851C128.279 189.733 128.06 189.707 128.061 189.834C128.091 193.917 127.817 197.509 127.456 201.324C127.289 203.095 125.795 212.883 122.574 212.17C122.035 212.05 121.759 211.544 121.675 210.768C121.573 209.836 121.941 208.693 122.102 207.766C122.459 205.717 122.747 203.661 122.931 201.591C123.276 197.727 123.293 193.864 122.8 190.012C122.783 189.886 122.592 189.895 122.592 190.022C122.596 195.371 122.45 200.71 121.611 206.008C121.208 208.554 119.863 212.387 122.655 212.779C125.5 213.178 127.338 206.757 127.686 205.001C128.657 200.102 128.695 194.81 128.289 189.851Z" fill="#37474F"/>
<path d="M122.66 212.433C122.369 213.09 122.135 213.775 121.936 214.462C121.781 214.996 121.571 215.573 121.635 216.13C121.648 216.238 121.797 216.249 121.858 216.175C122.236 215.718 122.396 215.093 122.607 214.552C122.852 213.925 123.111 213.301 123.337 212.667C123.486 212.248 122.839 212.028 122.66 212.433Z" fill="#37474F"/>
<path d="M137.684 163.671C137.189 163.668 134.874 163.661 131.488 163.657C130.361 161.47 129.071 157.619 129.81 152.234C129.937 151.343 127.689 156.424 128.341 163.653C121.8 163.638 112.901 163.614 105.129 163.519C105.058 160.482 104.855 157.669 104.855 157.669C104.531 159.848 104.012 161.808 103.439 163.505C102.376 163.5 101.335 163.475 100.336 163.462C100.687 158.758 100.098 150.532 100.098 150.532C99.2457 156.221 97.3026 160.732 95.9184 163.383C90.9855 163.272 87.7418 163.108 87.956 162.879C95.6421 154.519 90.3069 149.449 92.6262 141.97C95.409 133.008 103.23 131.776 103.177 124.989C103.147 119.467 102.722 109.439 109.749 107.482C109.749 107.482 115.581 101.42 124.394 105.072C135.3 109.58 130.495 126.482 131.155 129.961C132.095 134.934 134.403 136.737 136.012 142.422C137.656 148.174 134.959 151.895 134.562 155.757C134.182 159.617 138.922 163.693 137.684 163.671Z" fill="#263238"/>
<path d="M87.7679 161.653C88.8029 160.151 89.7317 158.564 90.2888 156.885C90.8972 155.217 90.6974 153.489 90.404 151.702C90.1115 149.926 89.7542 148.108 89.639 146.227C89.5445 144.355 89.6643 142.392 90.3321 140.56C90.9674 138.724 92.078 137.071 93.4307 135.744C94.769 134.393 96.2909 133.318 97.7606 132.256C99.2168 131.18 100.669 130.119 101.775 128.73C102.904 127.365 103.613 125.663 103.881 123.849C103.906 125.678 103.37 127.555 102.313 129.122C101.268 130.701 99.836 131.955 98.423 133.112C97.0091 134.278 95.5871 135.387 94.3892 136.668C93.1985 137.949 92.2346 139.406 91.6973 141.033C91.1546 142.655 90.9656 144.396 91.0457 146.16C91.1015 147.929 91.3832 149.712 91.5731 151.549C91.6595 152.469 91.7342 153.406 91.6775 154.365C91.6262 155.327 91.358 156.294 90.9809 157.152C90.1871 158.867 89.0675 160.361 87.7679 161.653Z" fill="#263238"/>
<path d="M130.458 111.563C131.26 113.677 131.52 115.953 131.784 118.186C132.006 120.432 132.117 122.683 132.205 124.924L132.358 128.271C132.412 129.39 132.525 130.441 132.779 131.477C133.271 133.557 134.381 135.389 135.638 137.256C136.246 138.201 136.863 139.186 137.36 140.249C137.858 141.309 138.25 142.43 138.5 143.576C138.716 144.736 138.852 145.87 138.894 147.03C138.942 148.189 138.848 149.37 138.613 150.511C138.382 151.656 138.028 152.735 137.73 153.794C137.427 154.851 137.222 155.936 137.129 157.018C136.909 159.16 137.987 161.333 139.688 162.783C137.791 161.59 136.435 159.379 136.431 156.996C136.43 155.837 136.578 154.696 136.809 153.573C137.034 152.452 137.344 151.382 137.495 150.314C137.82 148.197 137.607 145.975 137.15 143.878C136.887 142.84 136.541 141.831 136.071 140.868C135.607 139.902 135.022 138.984 134.409 138.05C133.806 137.112 133.177 136.147 132.646 135.103C132.118 134.061 131.682 132.946 131.429 131.791C131.181 130.637 131.094 129.446 131.077 128.323C131.044 127.189 131.053 126.065 131.063 124.942C131.074 122.698 131.117 120.461 131.068 118.227C131.046 115.994 130.938 113.76 130.458 111.563Z" fill="#263238"/>
<path d="M120.055 146.973C128.895 158.442 141.9 168.764 147.629 168.77C154.263 168.777 166.396 160.29 177.619 152.069C180.074 150.271 163.833 132.429 162.248 133.869C156.819 138.803 146.363 147.875 145.246 148.218C143.967 148.612 133.438 143.6 126.875 139.594C116.527 133.277 113.791 138.846 120.055 146.973Z" fill="#AD6359"/>
<path d="M141.7 168.383L144.378 147.621C144.378 147.621 134.653 142.351 124.17 137.735C113.687 133.119 112.648 138.423 121.331 149.916C130.014 161.408 141.7 168.383 141.7 168.383Z" fill="#E83153"/>
<path d="M127.371 140.282C127.371 141.04 126.758 141.654 126 141.654C125.242 141.654 124.628 141.04 124.628 140.282C124.628 139.524 125.242 138.911 126 138.911C126.758 138.911 127.371 139.525 127.371 140.282ZM115.929 140.283C115.875 140.283 115.821 140.283 115.776 140.301C115.983 141.03 116.307 141.849 116.748 142.749C117.081 142.497 117.297 142.101 117.297 141.651C117.297 140.895 116.685 140.283 115.929 140.283ZM122.297 146.526C121.539 146.526 120.926 147.14 120.926 147.898C120.926 148.656 121.539 149.27 122.297 149.27C123.055 149.27 123.669 148.656 123.669 147.898C123.669 147.14 123.055 146.526 122.297 146.526ZM140.278 150.856C139.521 150.856 138.907 151.47 138.907 152.228C138.907 152.986 139.521 153.599 140.278 153.599C141.036 153.599 141.65 152.986 141.65 152.228C141.65 151.47 141.036 150.856 140.278 150.856ZM130.059 152.807C129.301 152.807 128.687 153.421 128.687 154.179C128.687 154.937 129.301 155.551 130.059 155.551C130.817 155.551 131.43 154.937 131.43 154.179C131.43 153.421 130.817 152.807 130.059 152.807ZM132.742 145.155C131.984 145.155 131.37 145.769 131.37 146.526C131.37 147.284 131.984 147.898 132.742 147.898C133.5 147.898 134.113 147.284 134.113 146.526C134.113 145.769 133.499 145.155 132.742 145.155ZM137.605 159.418C136.848 159.418 136.234 160.032 136.234 160.79C136.234 161.547 136.848 162.161 137.605 162.161C138.363 162.161 138.977 161.547 138.977 160.79C138.977 160.032 138.362 159.418 137.605 159.418Z" fill="white"/>
<path d="M137.605 163.041C138.195 155.563 139.965 147.924 140.176 146.56C140.186 146.495 140.291 146.531 140.277 146.595C139.999 147.914 138.954 156.974 137.717 163.08C137.703 163.151 137.599 163.113 137.605 163.041Z" fill="#263238"/>
<path d="M143.361 155.466L141.696 168.381C141.696 168.381 130.014 161.406 121.329 149.913C118.152 145.71 116.28 142.335 115.695 139.977L143.361 155.466Z" fill="#263238"/>
<path d="M134.608 173.199L135.653 195.206L86.0742 194.309C86.0742 194.309 97.0434 151.579 108.426 140.079C114.119 134.327 120.536 135.003 124.486 139.309C125.486 140.399 136.376 155.404 137.455 161.701C138.395 167.257 134.608 173.199 134.608 173.199Z" fill="#E83153"/>
<path d="M106.839 142.749C106.839 143.505 106.218 144.126 105.462 144.126C105.381 144.126 105.309 144.117 105.228 144.099C105.705 143.388 106.182 142.722 106.668 142.101C106.776 142.29 106.839 142.515 106.839 142.749ZM105.727 156.994C104.969 156.994 104.355 157.608 104.355 158.366C104.355 159.124 104.969 159.737 105.727 159.737C106.484 159.737 107.098 159.124 107.098 158.366C107.098 157.608 106.483 156.994 105.727 156.994ZM110.541 171.539C109.783 171.539 109.169 172.153 109.169 172.911C109.169 173.669 109.783 174.282 110.541 174.282C111.298 174.282 111.912 173.669 111.912 172.911C111.912 172.153 111.298 171.539 110.541 171.539ZM118.045 177.176C117.287 177.176 116.673 177.79 116.673 178.547C116.673 179.305 117.287 179.919 118.045 179.919C118.803 179.919 119.416 179.305 119.416 178.547C119.416 177.79 118.802 177.176 118.045 177.176ZM133.701 181.193C132.943 181.193 132.33 181.807 132.33 182.565C132.33 183.323 132.943 183.937 133.701 183.937C134.459 183.937 135.073 183.323 135.073 182.565C135.073 181.807 134.459 181.193 133.701 181.193ZM112.918 184.028C112.161 184.028 111.547 184.642 111.547 185.4C111.547 186.158 112.161 186.772 112.918 186.772C113.676 186.772 114.29 186.158 114.29 185.4C114.29 184.642 113.676 184.028 112.918 184.028ZM106.686 191.62C105.928 191.62 105.314 192.234 105.314 192.992C105.314 193.749 105.928 194.363 106.686 194.363C107.444 194.363 108.058 193.749 108.058 192.992C108.058 192.234 107.444 191.62 106.686 191.62ZM91.1358 182.565C90.378 182.565 89.7642 183.179 89.7642 183.937C89.7642 184.694 90.378 185.308 91.1358 185.308C91.8936 185.308 92.5074 184.694 92.5074 183.937C92.5074 183.179 91.8936 182.565 91.1358 182.565ZM111.271 149.247C110.514 149.247 109.9 149.861 109.9 150.619C109.9 151.376 110.514 151.99 111.271 151.99C112.029 151.99 112.643 151.376 112.643 150.619C112.643 149.861 112.029 149.247 111.271 149.247ZM124.785 139.671C124.686 139.851 124.632 140.058 124.632 140.283C124.632 141.039 125.244 141.651 126 141.651C126.081 141.651 126.162 141.642 126.243 141.624C125.613 140.751 125.109 140.076 124.785 139.671ZM118.669 154.179C117.911 154.179 117.297 154.793 117.297 155.551C117.297 156.308 117.911 156.922 118.669 156.922C119.426 156.922 120.04 156.308 120.04 155.551C120.04 154.793 119.425 154.179 118.669 154.179ZM114.017 162.3C113.26 162.3 112.646 162.914 112.646 163.671C112.646 164.429 113.26 165.043 114.017 165.043C114.775 165.043 115.389 164.429 115.389 163.671C115.389 162.914 114.774 162.3 114.017 162.3ZM96.7086 173.956C95.9508 173.956 95.337 174.569 95.337 175.327C95.337 176.085 95.9508 176.699 96.7086 176.699C97.4664 176.699 98.0802 176.085 98.0802 175.327C98.0802 174.569 97.4655 173.956 96.7086 173.956ZM99.4509 186.397C98.6931 186.397 98.0793 187.011 98.0793 187.769C98.0793 188.527 98.6931 189.14 99.4509 189.14C100.209 189.14 100.822 188.527 100.822 187.769C100.822 187.011 100.209 186.397 99.4509 186.397ZM92.7171 191.256C91.9593 191.256 91.3455 191.87 91.3455 192.628C91.3455 193.386 91.9593 194 92.7171 194C93.4749 194 94.0887 193.386 94.0887 192.628C94.0887 191.87 93.4749 191.256 92.7171 191.256ZM121.796 168.383C121.038 168.383 120.424 168.997 120.424 169.754C120.424 170.512 121.038 171.126 121.796 171.126C122.554 171.126 123.168 170.512 123.168 169.754C123.168 168.997 122.553 168.383 121.796 168.383ZM128.901 173.956C128.143 173.956 127.529 174.569 127.529 175.327C127.529 176.085 128.143 176.699 128.901 176.699C129.658 176.699 130.272 176.085 130.272 175.327C130.272 174.569 129.658 173.956 128.901 173.956ZM130.458 189.514C129.7 189.514 129.086 190.128 129.086 190.886C129.086 191.643 129.7 192.257 130.458 192.257C131.215 192.257 131.829 191.643 131.829 190.886C131.829 190.129 131.215 189.514 130.458 189.514ZM124.629 183.133C123.871 183.133 123.258 183.747 123.258 184.505C123.258 185.262 123.871 185.876 124.629 185.876C125.387 185.876 126.001 185.262 126.001 184.505C126.001 183.747 125.386 183.133 124.629 183.133ZM119.416 190.707C118.659 190.707 118.045 191.321 118.045 192.079C118.045 192.837 118.659 193.451 119.416 193.451C120.174 193.451 120.788 192.837 120.788 192.079C120.788 191.321 120.173 190.707 119.416 190.707ZM101.286 151.011C101.043 151.497 100.8 151.983 100.566 152.487C101.007 152.271 101.313 151.812 101.313 151.281C101.313 151.191 101.304 151.101 101.286 151.011ZM115.925 140.282C115.168 140.282 114.554 140.896 114.554 141.654C114.554 142.412 115.168 143.025 115.925 143.025C116.683 143.025 117.297 142.412 117.297 141.654C117.297 140.897 116.683 140.282 115.925 140.282ZM122.297 146.526C121.54 146.526 120.926 147.14 120.926 147.898C120.926 148.656 121.54 149.27 122.297 149.27C123.055 149.27 123.669 148.656 123.669 147.898C123.669 147.14 123.055 146.526 122.297 146.526ZM103.46 166.528C102.703 166.528 102.089 167.142 102.089 167.9C102.089 168.657 102.703 169.271 103.46 169.271C104.218 169.271 104.832 168.657 104.832 167.9C104.832 167.143 104.218 166.528 103.46 166.528ZM104.093 178.88C103.335 178.88 102.721 179.494 102.721 180.252C102.721 181.01 103.335 181.624 104.093 181.624C104.851 181.624 105.465 181.01 105.465 180.252C105.465 179.494 104.85 178.88 104.093 178.88ZM130.059 152.807C129.301 152.807 128.687 153.421 128.687 154.179C128.687 154.937 129.301 155.551 130.059 155.551C130.817 155.551 131.431 154.937 131.431 154.179C131.431 153.421 130.817 152.807 130.059 152.807ZM126.001 160.929C125.243 160.929 124.629 161.543 124.629 162.301C124.629 163.058 125.243 163.672 126.001 163.672C126.759 163.672 127.372 163.058 127.372 162.301C127.372 161.543 126.758 160.929 126.001 160.929ZM134.401 166.896C133.644 166.896 133.03 167.51 133.03 168.268C133.03 169.025 133.644 169.639 134.401 169.639C135.159 169.639 135.773 169.025 135.773 168.268C135.773 167.51 135.159 166.896 134.401 166.896ZM137.457 161.703C137.349 161.091 137.151 160.389 136.872 159.633C136.485 159.867 136.233 160.299 136.233 160.785C136.233 161.523 136.8 162.117 137.52 162.153C137.502 162 137.484 161.856 137.457 161.703ZM97.281 159.966C97.029 160.587 96.777 161.208 96.534 161.829C97.047 161.631 97.416 161.136 97.416 160.551C97.416 160.344 97.371 160.137 97.281 159.966Z" fill="white"/>
<path d="M104.706 141.136C85.6125 153.13 64.8225 182.911 71.2665 187.855C77.1543 192.373 99.0387 196.213 108.18 196.363C110.865 196.407 110.651 173.075 107.781 173.024C104.312 172.963 95.5089 173.366 95.1777 173.256C94.4694 173.021 107.8 153.071 112.409 145.284C118.831 134.434 111.876 136.633 104.706 141.136Z" fill="#AD6359"/>
<path d="M136.471 175.65C137.234 177.939 135.21 179.403 135.21 179.403C135.21 179.403 136.73 180.588 136.982 182.422C137.271 184.523 134.104 185.897 134.104 185.897C134.104 185.897 135.395 187.414 135.466 189.378C135.541 191.416 132.544 193.259 132.544 193.259C132.544 193.259 132.969 195.333 131.813 197.075C129.838 200.053 124.381 199.905 120.911 199.847C117.442 199.788 107.655 196.372 105.725 195.91L105.909 173.64C105.909 173.64 121.542 169.476 125.612 170.124C129.042 170.669 135.616 173.079 136.471 175.65Z" fill="#AD6359"/>
<path d="M135.059 179.045C131.554 177.59 127.809 177.251 124.09 176.7C124.007 176.687 123.989 176.818 124.072 176.829C127.777 177.333 131.334 178.567 135.011 179.219C135.112 179.237 135.154 179.084 135.059 179.045Z" fill="#263238"/>
<path d="M134.036 185.604C133.233 185.299 132.331 185.26 131.484 185.177C130.571 185.088 129.658 185.015 128.741 184.956C126.909 184.839 125.074 184.762 123.239 184.74C123.158 184.74 123.136 184.864 123.221 184.869C125.047 184.99 126.87 185.138 128.689 185.335C129.599 185.434 130.509 185.541 131.418 185.653C132.263 185.757 133.147 185.938 134 185.853C134.127 185.841 134.158 185.651 134.036 185.604Z" fill="#263238"/>
<path d="M132.467 193.252C131.78 192.958 130.886 193.021 130.15 192.99C129.314 192.954 128.479 192.912 127.642 192.867C125.972 192.776 124.302 192.683 122.635 192.533C122.552 192.526 122.533 192.655 122.617 192.662C124.309 192.822 125.999 193.006 127.693 193.151C128.524 193.223 129.357 193.29 130.189 193.352C130.897 193.405 131.776 193.551 132.466 193.334C132.505 193.324 132.502 193.266 132.467 193.252Z" fill="#263238"/>
<path d="M95.7357 173.236C94.3749 173.173 92.9646 173.376 91.6137 173.525C90.2457 173.677 88.8867 173.905 87.5376 174.173C84.8772 174.703 82.2897 175.559 79.758 176.522C79.6725 176.555 79.7193 176.678 79.8057 176.655C82.4787 175.921 85.1895 175.354 87.8985 174.773C89.2152 174.49 90.5382 174.24 91.8612 173.99C93.1518 173.745 94.4793 173.627 95.7555 173.325C95.8104 173.311 95.7825 173.237 95.7357 173.236Z" fill="#263238"/>
<path d="M81.1926 160.294L101.206 164.231C101.206 164.231 107.686 155.253 113.088 145.152C118.49 135.051 114.15 134.602 102.029 142.384C89.9073 150.165 81.1926 160.294 81.1926 160.294Z" fill="#E83153"/>
<path d="M106.836 142.752C106.836 143.51 106.222 144.123 105.465 144.123C104.707 144.123 104.093 143.51 104.093 142.752C104.093 141.994 104.707 141.38 105.465 141.38C106.222 141.38 106.836 141.994 106.836 142.752ZM91.08 152.719C90.3222 152.719 89.7084 153.333 89.7084 154.091C89.7084 154.849 90.3222 155.462 91.08 155.462C91.8378 155.462 92.4516 154.849 92.4516 154.091C92.4516 153.333 91.8378 152.719 91.08 152.719ZM105.723 156.996C104.967 156.996 104.355 157.608 104.355 158.364C104.355 158.679 104.463 158.967 104.643 159.201C105.084 158.535 105.561 157.815 106.056 157.041C105.948 157.014 105.84 156.996 105.723 156.996ZM109.899 150.615C109.899 150.669 109.899 150.723 109.917 150.768C110.196 150.309 110.466 149.832 110.745 149.355C110.25 149.553 109.899 150.048 109.899 150.615ZM99.9396 149.907C99.1818 149.907 98.568 150.521 98.568 151.278C98.568 152.036 99.1818 152.65 99.9396 152.65C100.697 152.65 101.311 152.036 101.311 151.278C101.311 150.521 100.696 149.907 99.9396 149.907ZM114.552 141.651C114.552 141.768 114.57 141.876 114.597 141.984C114.804 141.471 114.966 141.003 115.092 140.571C114.759 140.814 114.552 141.21 114.552 141.651ZM96.0462 159.179C95.2884 159.179 94.6746 159.793 94.6746 160.551C94.6746 161.309 95.2884 161.923 96.0462 161.923C96.804 161.923 97.4178 161.309 97.4178 160.551C97.4178 159.793 96.8031 159.179 96.0462 159.179Z" fill="white"/>
<path d="M102.01 160.55C94.5585 159.684 86.9904 157.632 85.635 157.371C85.5711 157.358 85.6107 157.254 85.6737 157.271C86.9823 157.597 95.9967 158.979 102.053 160.44C102.123 160.457 102.082 160.558 102.01 160.55Z" fill="#263238"/>
<path d="M109.499 153.077C109.095 153.501 108.702 153.934 108.298 154.358C108.209 154.452 108.123 154.55 108.036 154.646C108.909 153.108 109.742 151.547 110.536 149.972C110.555 149.935 110.503 149.907 110.48 149.941C108.943 152.33 107.385 154.707 105.872 157.11C104.385 159.471 102.75 161.763 101.395 164.202C101.088 164.153 100.78 164.103 100.473 164.054C100.383 164.04 100.354 164.161 100.439 164.191C100.772 164.304 101.106 164.418 101.439 164.531C101.489 164.548 101.56 164.526 101.593 164.486C103.393 162.327 104.866 159.878 106.35 157.497C106.761 156.839 107.159 156.173 107.549 155.502C107.582 155.467 107.615 155.432 107.645 155.4C107.781 155.254 107.918 155.106 108.054 154.958C108.586 154.376 109.085 153.763 109.554 153.13C109.583 153.091 109.535 153.04 109.499 153.077Z" fill="#263238"/>
<path d="M115.134 139.412C115.465 140.172 120.198 144.634 123.796 143.8C124.968 143.527 123.76 137.066 123.76 137.066L123.78 136.568L124.052 129.606L115.275 126.002L114.017 125.542C114.017 125.542 114.069 127.452 114.156 129.829C114.16 129.939 114.163 130.049 114.169 130.167C114.17 130.301 114.169 130.429 114.177 130.554C114.185 130.91 114.196 131.272 114.213 131.633C114.225 131.908 114.235 132.176 114.259 132.464C114.276 132.754 114.297 133.034 114.313 133.324C114.533 136.176 114.998 139.088 115.134 139.412Z" fill="#AD6359"/>
<path d="M114.155 129.829C117.044 134.801 121.693 136.194 123.78 136.568L124.052 129.606L115.275 126.002L114.017 125.542C114.017 125.542 114.068 127.451 114.155 129.829Z" fill="#263238"/>
<path d="M132.348 118.292C135.153 130.193 128.342 133.217 125.775 133.819C123.445 134.366 115.441 135.932 111.42 124.384C107.4 112.836 112.046 107.77 117.31 106.237C122.574 104.705 129.542 106.391 132.348 118.292Z" fill="#AD6359"/>
<path d="M130.092 115.757C129.805 115.79 129.535 115.774 129.248 115.778C128.924 115.782 128.667 115.819 128.383 115.635C128.231 115.536 128.18 115.275 128.262 115.118C128.453 114.754 128.848 114.649 129.238 114.629C129.661 114.605 129.993 114.696 130.335 114.945C130.666 115.185 130.47 115.712 130.092 115.757Z" fill="#263238"/>
<path d="M122.287 117.651C122.559 117.552 122.793 117.416 123.051 117.291C123.343 117.149 123.59 117.067 123.761 116.775C123.852 116.618 123.781 116.362 123.637 116.258C123.303 116.018 122.903 116.102 122.545 116.258C122.156 116.427 121.9 116.656 121.706 117.032C121.518 117.397 121.929 117.78 122.287 117.651Z" fill="#263238"/>
<path d="M123.002 120.66C122.956 120.753 122.9 120.837 122.833 120.902C122.725 121.019 122.58 121.083 122.41 121.079C121.915 121.067 121.664 120.574 121.593 120.076C121.587 120.04 121.604 120.017 121.629 120.042C121.853 120.28 122.112 120.525 122.392 120.458C122.582 120.414 122.719 120.23 122.858 120.072C122.885 120.276 122.934 120.473 123.002 120.66Z" fill="#263238"/>
<path d="M122.788 120.549C122.776 120.336 122.814 120.106 122.928 119.886C123.043 119.665 123.28 119.508 123.521 119.449C123.77 119.389 124.064 119.481 124.24 119.644C124.417 119.808 124.536 120 124.612 120.201C124.662 120.327 124.695 120.457 124.724 120.588C124.781 120.866 124.79 121.148 124.719 121.418C124.688 121.214 124.634 121.018 124.561 120.833C124.493 120.656 124.417 120.494 124.329 120.337C124.142 120.014 123.876 119.769 123.602 119.846C123.308 119.903 123.143 120.186 123.105 120.561C123.064 120.929 123.091 121.324 123.127 121.725C122.93 121.372 122.804 120.975 122.788 120.549Z" fill="#263238"/>
<path d="M130.743 118.805C130.831 118.861 130.923 118.904 131.014 118.923C131.167 118.967 131.325 118.946 131.466 118.853C131.882 118.584 131.838 118.033 131.637 117.572C131.624 117.537 131.597 117.527 131.589 117.561C131.522 117.881 131.43 118.225 131.155 118.314C130.971 118.376 130.756 118.292 130.557 118.229C130.642 118.418 130.703 118.611 130.743 118.805Z" fill="#263238"/>
<path d="M130.868 118.599C130.767 118.412 130.614 118.236 130.402 118.108C130.189 117.98 129.904 117.97 129.668 118.046C129.425 118.124 129.222 118.356 129.158 118.589C129.094 118.821 129.092 119.047 129.132 119.256C129.156 119.391 129.196 119.518 129.239 119.645C129.335 119.913 129.476 120.158 129.678 120.351C129.598 120.16 129.541 119.965 129.507 119.769C129.472 119.583 129.452 119.405 129.445 119.225C129.434 118.852 129.533 118.503 129.807 118.426C130.088 118.32 130.376 118.476 130.605 118.775C130.832 119.067 131.016 119.418 131.196 119.778C131.178 119.375 131.078 118.971 130.868 118.599Z" fill="#263238"/>
<path d="M125.937 126.767C126.166 126.925 126.408 127.156 126.711 127.13C127.001 127.104 127.313 126.917 127.557 126.77C127.581 126.756 127.612 126.779 127.6 126.806C127.442 127.158 127.028 127.433 126.636 127.432C126.254 127.431 126.014 127.142 125.866 126.818C125.843 126.773 125.904 126.744 125.937 126.767Z" fill="#263238"/>
<path d="M128.646 123.048C128.646 123.048 129.095 124.221 129.227 124.791C129.239 124.845 129.107 124.902 128.916 124.959C128.908 124.964 128.903 124.969 128.893 124.965C127.921 125.357 126.824 125.245 126.02 124.564C125.968 124.517 126.026 124.441 126.086 124.465C126.967 124.843 127.833 124.792 128.731 124.599C128.735 124.431 127.895 122.617 127.984 122.589C128.29 122.49 128.956 122.559 129.35 122.582C128.486 120.113 127.233 117.802 126.409 115.331C126.382 115.242 126.505 115.185 126.55 115.259C128.035 117.587 129.091 120.407 130.049 122.934C130.173 123.248 128.897 123.092 128.646 123.048Z" fill="#263238"/>
<path d="M128.816 124.574C128.816 124.574 128.53 125.495 127.88 126.018C127.641 126.212 127.36 126.353 127.022 126.379C126.33 126.434 126.111 125.858 126.054 125.32C126.005 124.878 126.072 124.458 126.072 124.458C126.072 124.458 127.3 125 128.816 124.574Z" fill="#263238"/>
<path d="M127.88 126.018C127.641 126.212 127.36 126.353 127.022 126.379C126.33 126.434 126.111 125.858 126.054 125.32C126.758 125.151 127.591 125.377 127.88 126.018Z" fill="#FF9BBC"/>
<path d="M111.801 123.89C114.694 123.262 113.64 118.714 113.64 118.714C113.64 118.714 116.849 117.674 115.892 112.333C115.892 112.333 118.191 115.167 122.779 114.811C123.75 114.736 120.047 113.014 120.047 113.014C120.047 113.014 124.598 115.576 131.31 112.691C131.785 112.487 129.434 104.497 123.367 103.221C117.299 101.945 112.288 105.337 109.672 109.575C109.672 109.575 105.085 113.368 105.497 117.284C105.907 121.202 110.676 124.134 111.801 123.89Z" fill="#263238"/>
<path d="M114.507 123.944C114.507 123.944 111.315 120.553 109.739 121.746C108.163 122.937 110.947 128.122 113.069 128.578C115.19 129.033 115.65 127.077 115.65 127.077L114.507 123.944Z" fill="#AD6359"/>
<path d="M110.574 123.212C110.541 123.214 110.542 123.26 110.571 123.267C112.065 123.632 112.999 124.832 113.717 126.113C113.221 125.652 112.608 125.449 111.982 126.05C111.949 126.082 111.992 126.134 112.031 126.121C112.591 125.913 113.023 125.952 113.48 126.357C113.804 126.644 114.053 127.031 114.307 127.381C114.392 127.497 114.61 127.396 114.54 127.258C114.535 127.248 114.529 127.238 114.524 127.228C114.297 125.424 112.531 123.111 110.574 123.212Z" fill="#263238"/>
<path d="M219.622 88.722C219.268 85.8033 219.186 82.8855 219.172 79.9668C219.184 77.049 219.265 74.1303 219.622 71.2125C219.978 74.1312 220.059 77.049 220.072 79.9668C220.057 82.8855 219.976 85.8033 219.622 88.722Z" fill="#263238"/>
<path d="M201.794 93.8772C200.029 91.5273 198.499 89.0406 197.027 86.5206C195.579 83.9871 194.19 81.4194 193.039 78.714C194.807 81.063 196.336 83.5497 197.806 86.0706C199.253 88.605 200.641 91.1736 201.794 93.8772Z" fill="#263238"/>
<path d="M188.932 107.257C186.228 106.104 183.66 104.715 181.126 103.269C178.605 101.799 176.118 100.269 173.769 98.5015C176.475 99.6526 179.042 101.041 181.576 102.489C184.096 103.961 186.583 105.491 188.932 107.257Z" fill="#263238"/>
<path d="M251.018 106.033C253.368 104.267 255.855 102.738 258.375 101.265C260.908 99.8173 263.476 98.4286 266.181 97.2775C263.832 99.0451 261.346 100.574 258.825 102.045C256.289 103.491 253.722 104.88 251.018 106.033Z" fill="#263238"/>
<path d="M237.64 93.1708C238.793 90.4663 240.181 87.8986 241.628 85.3642C243.097 82.8433 244.627 80.3566 246.394 78.0076C245.243 80.713 243.854 83.2807 242.406 85.8142C240.935 88.3342 239.405 90.8209 237.64 93.1708Z" fill="#263238"/>
<path d="M250.811 210.12L247.621 210.71L246.908 214.073L246.195 210.71L243.005 210.118L246.182 209.342L246.908 206.165L247.634 209.342L250.811 210.12Z" fill="#E83153"/>
<path d="M214.678 102.801L211.487 103.391L210.775 106.754L210.062 103.391L206.871 102.799L210.047 102.023L210.775 98.8462L211.501 102.023L214.678 102.801Z" fill="#E83153"/>
<path d="M187.745 181.805L184.554 182.395L183.841 185.758L183.128 182.395L179.938 181.804L183.115 181.027L183.841 177.851L184.568 181.027L187.745 181.805Z" fill="#E83153"/>
<path d="M266.401 158.776L263.211 159.367L262.499 162.73L261.785 159.367L258.595 158.775L261.771 157.999L262.499 154.822L263.225 157.999L266.401 158.776Z" fill="#E83153"/>
<path d="M292.041 147.78L290.258 148.109L289.859 149.989L289.461 148.109L287.678 147.779L289.454 147.345L289.859 145.57L290.265 147.345L292.041 147.78Z" fill="#E83153"/>
<path d="M214.826 205.998L213.044 206.329L212.645 208.208L212.247 206.329L210.463 205.997L212.239 205.564L212.645 203.788L213.052 205.564L214.826 205.998Z" fill="#E83153"/>
<path d="M243.56 105.168L241.777 105.497L241.378 107.377L240.98 105.497L239.197 105.167L240.971 104.732L241.378 102.957L241.784 104.732L243.56 105.168Z" fill="#E83153"/>
<path d="M278.349 178.189L276.566 178.519L276.167 180.398L275.769 178.519L273.985 178.187L275.761 177.754L276.167 175.979L276.574 177.754L278.349 178.189Z" fill="#E83153"/>
<path d="M263.843 181.805L262.06 182.134L261.662 184.014L261.263 182.134L259.48 181.804L261.256 181.37L261.662 179.594L262.067 181.37L263.843 181.805Z" fill="#E83153"/>
<path d="M176.036 196.141L174.254 196.47L173.855 198.349L173.457 196.47L171.673 196.139L173.449 195.706L173.855 193.93L174.262 195.706L176.036 196.141Z" fill="#E83153"/>
<path d="M185.739 143.44L183.956 143.771L183.558 145.65L183.159 143.771L181.376 143.439L183.152 143.006L183.558 141.23L183.964 143.006L185.739 143.44Z" fill="#E83153"/>
<path d="M256.487 190.205C255.822 190.205 255.821 191.238 256.487 191.238C257.153 191.238 257.153 190.205 256.487 190.205Z" fill="#E83153"/>
<path d="M172.259 113.265C171.594 113.265 171.593 114.299 172.259 114.299C172.924 114.299 172.925 113.265 172.259 113.265Z" fill="#E83153"/>
<path d="M273.985 140.853C273.32 140.853 273.319 141.886 273.985 141.886C274.65 141.887 274.652 140.853 273.985 140.853Z" fill="#E83153"/>
<path d="M169.122 179.078C168.457 179.078 168.456 180.112 169.122 180.112C169.787 180.112 169.789 179.078 169.122 179.078Z" fill="#E83153"/>
<path d="M163.256 154.091C162.786 154.091 162.785 154.823 163.256 154.823C163.727 154.822 163.728 154.091 163.256 154.091Z" fill="#E83153"/>
<path d="M221.608 201.773C221.137 201.773 221.136 202.505 221.608 202.505C222.078 202.505 222.079 201.773 221.608 201.773Z" fill="#E83153"/>
<path d="M193.248 217.628C192.777 217.628 192.776 218.36 193.248 218.36C193.719 218.36 193.72 217.628 193.248 217.628Z" fill="#E83153"/>
<path d="M245.493 195.295C244.218 195.295 244.216 197.276 245.493 197.276C246.768 197.277 246.771 195.295 245.493 195.295Z" fill="#E83153"/>
<path d="M221.254 95.8077C219.979 95.8077 219.976 97.7895 221.254 97.7895C222.53 97.7904 222.532 95.8077 221.254 95.8077Z" fill="#E83153"/>
<path d="M197.931 214.266C196.655 214.266 196.653 216.248 197.931 216.248C199.206 216.248 199.209 214.266 197.931 214.266Z" fill="#E83153"/>
</svg>
