<svg xmlns="http://www.w3.org/2000/svg" fill="none">
  <path d="M17.625 7.3125V4.5C17.625 3.75408 17.3287 3.03871 16.8012 2.51126C16.2738 1.98382 15.5584 1.6875 14.8125 1.6875H4.5C3.75408 1.6875 3.03871 1.98382 2.51126 2.51126C1.98382 3.03871 1.6875 3.75408 1.6875 4.5V14.8125C1.6875 15.5584 1.98382 16.2738 2.51126 16.8012C3.03871 17.3287 3.75408 17.625 4.5 17.625H7.3125M17.625 7.3125H19.5C20.2459 7.3125 20.9613 7.60882 21.4887 8.13626C22.0162 8.66371 22.3125 9.37908 22.3125 10.125V19.5C22.3125 20.2459 22.0162 20.9613 21.4887 21.4887C20.9613 22.0162 20.2459 22.3125 19.5 22.3125H10.125C9.37908 22.3125 8.66371 22.0162 8.13626 21.4887C7.60882 20.9613 7.3125 20.2459 7.3125 19.5V17.625M17.625 7.3125H10.125C9.37908 7.3125 8.66371 7.60882 8.13626 8.13626C7.60882 8.66371 7.3125 9.37908 7.3125 10.125V17.625"
    stroke="currentColor" 
    strokeWidth="1.5" 
    strokeLinecap="round" 
    strokeLinejoin="round"/>
</svg>