<svg width="22" height="22" viewBox="0 0 22 22" fill="none" xmlns="http://www.w3.org/2000/svg">
<path d="M13.6189 15.6585C15.3268 15.4563 17.0049 15.0532 18.6184 14.4577C17.252 12.9441 16.4969 10.9766 16.4999 8.9375V8.25C16.4999 6.79131 15.9205 5.39236 14.889 4.36091C13.8576 3.32946 12.4586 2.75 10.9999 2.75C9.54126 2.75 8.14231 3.32946 7.11086 4.36091C6.07941 5.39236 5.49995 6.79131 5.49995 8.25V8.9375C5.50271 10.9767 4.74735 12.9442 3.38062 14.4577C4.9692 15.0443 6.64395 15.4523 8.38103 15.6585M13.6189 15.6585C11.879 15.8649 10.1209 15.8649 8.38103 15.6585M13.6189 15.6585C13.751 16.0709 13.7838 16.5086 13.7147 16.9361C13.6457 17.3635 13.4766 17.7687 13.2214 18.1184C12.9661 18.4682 12.6319 18.7528 12.2459 18.949C11.8599 19.1452 11.433 19.2474 10.9999 19.2474C10.5669 19.2474 10.14 19.1452 9.75402 18.949C9.368 18.7528 9.03376 18.4682 8.77852 18.1184C8.52327 17.7687 8.35423 17.3635 8.28516 16.9361C8.21609 16.5086 8.24894 16.0709 8.38103 15.6585" stroke="#1E1E1E" stroke-width="1.5" stroke-linecap="round" stroke-linejoin="round"/>
</svg>
