<svg xmlns="http://www.w3.org/2000/svg" fill="none">
  <path d="M17.89 2.41249C18.6397 2.87423 19.3328 3.42212 19.955 4.04499C20.5925 4.68249 21.135 5.37499 21.5875 6.10999M17.89 2.41249L13.58 7.58499M17.89 2.41249C16.1177 1.32567 14.0791 0.750427 12 0.750427C9.92098 0.750427 7.88244 1.32567 6.11005 2.41249M21.5875 6.10999L16.415 10.42M21.5875 6.10999C22.6744 7.88238 23.2496 9.92092 23.2496 12C23.2496 14.0791 22.6744 16.1176 21.5875 17.89M13.58 7.58499C14.2328 7.81837 14.8255 8.19412 15.3151 8.68499C15.806 9.1745 16.1817 9.76718 16.415 10.42M13.58 7.58499C12.5582 7.22079 11.4419 7.22079 10.42 7.58499M6.11005 2.41249L10.42 7.58499M6.11005 2.41249C5.36036 2.8742 4.66731 3.4221 4.04505 4.04499C3.42216 4.66726 2.87427 5.36031 2.41255 6.10999M16.415 10.42C16.7792 11.4418 16.7792 12.5581 16.415 13.58M21.5875 17.89L16.415 13.58M21.5875 17.89C21.1258 18.6397 20.5779 19.3327 19.955 19.955C19.3176 20.5925 18.625 21.135 17.89 21.5875M16.415 13.58C16.1888 14.2125 15.8213 14.8075 15.3151 15.315C14.8255 15.8059 14.2329 16.1816 13.58 16.415M10.42 7.58499C9.76724 7.81833 9.17457 8.19409 8.68505 8.68499C8.1788 9.19249 7.8113 9.78749 7.58505 10.42M13.58 16.415L17.89 21.5875M13.58 16.415C12.5582 16.7792 11.4419 16.7792 10.42 16.415M17.89 21.5875C16.1177 22.6743 14.0791 23.2495 12 23.2495C9.92098 23.2495 7.88244 22.6743 6.11005 21.5875M6.11005 21.5875L10.42 16.415M6.11005 21.5875C5.36036 21.1258 4.66731 20.5779 4.04505 19.955C3.42218 19.3327 2.87429 18.6397 2.41255 17.89M10.42 16.415C9.76724 16.1816 9.17457 15.8059 8.68505 15.315C8.19418 14.8254 7.81843 14.2328 7.58505 13.58M7.58505 13.58L2.41255 17.89M7.58505 13.58C7.22085 12.5581 7.22085 11.4418 7.58505 10.42M2.41255 17.89C1.32573 16.1176 0.750488 14.0791 0.750488 12C0.750488 9.92092 1.32573 7.88238 2.41255 6.10999M2.41255 6.10999L7.58505 10.42"
    stroke="currentColor" 
    strokeWidth="1.5" 
    strokeLinecap="round" 
    strokeLinejoin="round"/>
</svg>